<?xml version="1.0" encoding="UTF-8" standalone="no"?>
<!-- Created with Inkscape (http://www.inkscape.org/) -->

<svg
   width="360mm"
   height="140mm"
   viewBox="0 0 360 140"
   version="1.1"
   id="svg8"
   inkscape:version="1.2 (dc2aedaf03, 2022-05-15)"
   sodipodi:docname="logo.svg"
   inkscape:export-filename="icon.png"
   inkscape:export-xdpi="29.030001"
   inkscape:export-ydpi="29.030001"
   xmlns:inkscape="http://www.inkscape.org/namespaces/inkscape"
   xmlns:sodipodi="http://sodipodi.sourceforge.net/DTD/sodipodi-0.dtd"
   xmlns="http://www.w3.org/2000/svg"
   xmlns:svg="http://www.w3.org/2000/svg"
   xmlns:rdf="http://www.w3.org/1999/02/22-rdf-syntax-ns#"
   xmlns:cc="http://creativecommons.org/ns#"
   xmlns:dc="http://purl.org/dc/elements/1.1/">
  <defs
     id="defs2" />
  <sodipodi:namedview
     id="base"
     pagecolor="#ffffff"
     bordercolor="#666666"
     borderopacity="1.0"
     inkscape:pageopacity="0.0"
     inkscape:pageshadow="2"
     inkscape:zoom="0.50075408"
     inkscape:cx="546.17628"
     inkscape:cy="20.968376"
     inkscape:document-units="mm"
     inkscape:current-layer="layer2"
     showgrid="false"
     inkscape:object-paths="true"
     inkscape:snap-intersection-paths="true"
     inkscape:snap-smooth-nodes="true"
     inkscape:snap-midpoints="true"
     inkscape:window-width="1920"
     inkscape:window-height="1056"
     inkscape:window-x="0"
     inkscape:window-y="0"
     inkscape:window-maximized="1"
     inkscape:showpageshadow="0"
     inkscape:pagecheckerboard="0"
     inkscape:deskcolor="#d1d1d1" />
  <metadata
     id="metadata5">
    <rdf:RDF>
      <cc:Work
         rdf:about="">
        <dc:format>image/svg+xml</dc:format>
        <dc:type
           rdf:resource="http://purl.org/dc/dcmitype/StillImage" />
      </cc:Work>
    </rdf:RDF>
  </metadata>
  <g
     inkscape:groupmode="layer"
     id="layer2"
     inkscape:label="Cone"
     transform="translate(0,40)">
    <g
       id="g1043"
       transform="matrix(1.0534122,0,0,1.0583108,-2.6706587,-42.648853)">
      <path
         id="path905"
         transform="scale(0.26458333)"
         d="M 91.365234,38.748047 C 41.150155,71.382434 10.247031,126.79062 9.5820312,187.00586 L 169.31836,506.49414 Z"
         style="opacity:1;vector-effect:none;fill:#ff9683;fill-opacity:1;stroke:none;stroke-width:18.8976;stroke-linecap:round;stroke-linejoin:round;stroke-miterlimit:4;stroke-dasharray:none;stroke-dashoffset:0;stroke-opacity:1"
         inkscape:connector-curvature="0" />
      <path
         id="path905-3"
         transform="scale(0.26458333)"
         d="M 286.58789,38.748047 208.63477,506.49414 368.37109,187.00586 c -0.665,-60.21524 -31.56812,-115.623426 -81.7832,-148.257813 z"
         style="opacity:1;vector-effect:none;fill:#8bc6ff;fill-opacity:1;stroke:none;stroke-width:18.8976;stroke-linecap:round;stroke-linejoin:round;stroke-miterlimit:4;stroke-dasharray:none;stroke-dashoffset:0;stroke-opacity:1"
         inkscape:connector-curvature="0" />
      <path
         id="path905-8"
         transform="scale(0.26458333)"
         d="M 190.25195,9.46875 C 188.42395,9.45026 186.59374,9.46039 184.76172,9.5 h -0.0371 C 158.28334,10.1807 132.4547,16.94826 108.8672,28.796875 L 188.97656,509.43945 269.08398,28.833984 C 244.57563,16.527437 217.67193,9.7461016 190.25195,9.46875 Z"
         style="opacity:1;vector-effect:none;fill:#95ff95;fill-opacity:1;stroke:none;stroke-width:18.8976;stroke-linecap:round;stroke-linejoin:round;stroke-miterlimit:4;stroke-dasharray:none;stroke-dashoffset:0;stroke-opacity:1"
         inkscape:connector-curvature="0" />
    </g>
    <g
       id="g455"
       transform="matrix(1.1855251,0,0,1.1855251,-37.060951,-8.2238812)">
      <g
         id="g434"
         transform="translate(0,4.4274862)">
        <path
           d="m 151.10326,7.7036116 q 0.32184,0 0.57894,-0.1608592 V 4.6153252 q 2.18754,-1.4797995 6.11222,-2.4127149 3.95686,-0.9329153 7.6885,-0.9329153 1.70502,1.7371495 2.83091,5.2114608 1.15814,3.4421396 1.22244,6.2408922 -0.64337,1.28678 -2.18747,2.76658 -1.51198,1.479793 -3.66733,2.734408 -5.34017,3.152612 -12.25662,3.152612 -9.90822,0 -15.60223,-5.758345 -5.88699,-5.8226826 -5.88699,-16.11693552 0,-10.32641848 6.43388,-16.21344448 2.83091,-2.637899 6.59473,-3.956852 3.76388,-1.351118 7.91373,-1.351118 8.10671,0 13.28601,3.92468 5.17931,3.924686 5.17931,9.6830308 0,4.3428892 -2.67005,6.4339042 -2.67012,2.0588493 -7.23817,2.0588493 -2.50926,0 -5.05063,-1.2224371 -2.54138,-1.2546152 -3.02396,-2.3483774 0,-2.6379054 0.0965,-4.1498705 -0.0641,-0.032371 -0.22535,-0.032371 h -0.22535 q -0.48246,0 -0.77205,0.2895343 -0.2571,0.2573499 -0.48246,1.125934 -0.19298,0.8685778 -0.19298,4.7289203 0,9.2326564 1.5441,9.2326564 z"
           style="font-size:10.5833px;line-height:1.25;font-family:Modak;-inkscape-font-specification:Modak;letter-spacing:0px;word-spacing:0px;stroke-width:1.64708"
           id="path344" />
        <path
           d="M 187.32616,2.5886539 V 8.218324 q 0.22536,0.2251656 0.73993,0.2251656 0.51483,0 0.73987,-0.3538406 0.22535,-0.3538406 0.22535,-1.2224371 V 2.2669665 q 0,-3.08827399 -0.2571,-4.085533 -0.2571,-1.0294247 -0.96503,-1.0294247 -0.45071,0 -0.77212,0.3217186 0.28948,3.1847833 0.28948,5.1149514 z M 175.29477,16.839759 q -5.27579,-5.082786 -5.27579,-13.7685584 0,-8.717944 4.95407,-13.7363926 4.98627,-5.050614 13.06086,-5.050614 8.07452,0 13.06085,5.243633 4.95408,5.2436326 4.95408,13.6720486 0,8.3962504 -4.79328,13.3503554 -4.76104,4.954111 -12.9643,4.954111 -8.2032,0 -12.99649,-4.664583 z"
           style="font-size:10.5833px;line-height:1.25;font-family:Modak;-inkscape-font-specification:Modak;letter-spacing:0px;word-spacing:0px;stroke-width:1.64708"
           id="path346" />
        <path
           d="M 224.25681,-18.321539 V 4.2936378 q 0,4.793264 2.31622,6.2408912 0.0311,0.16086 0.0311,0.611253 v 0.579069 q 0,4.600245 -2.34833,6.980788 -2.31621,2.380549 -6.5948,2.380549 -4.27852,0 -6.78777,-2.380549 -2.99171,-2.830918 -2.99171,-8.557091 V -23.27565 q 3.37779,-2.05885 7.72068,-2.05885 4.37501,0 6.49825,1.865837 2.15535,1.833659 2.15535,5.147124 z"
           style="font-size:10.5833px;line-height:1.25;font-family:Modak;-inkscape-font-specification:Modak;letter-spacing:0px;word-spacing:0px;stroke-width:1.64708"
           id="path348" />
        <path
           d="M 244.29842,2.5886539 V 8.218324 q 0.22536,0.2251656 0.73987,0.2251656 0.51482,0 0.73993,-0.3538406 0.22535,-0.3538406 0.22535,-1.2224371 V 2.2669665 q 0,-3.08827399 -0.2571,-4.085533 -0.2571,-1.0294247 -0.9651,-1.0294247 -0.45008,0 -0.77205,0.3217186 0.28948,3.1847833 0.28948,5.1149514 z M 232.26703,16.839759 q -5.2758,-5.082786 -5.2758,-13.7685584 0,-8.717944 4.95408,-13.7363926 4.98627,-5.050614 13.06086,-5.050614 8.07452,0 13.06079,5.243633 4.95414,5.2436326 4.95414,13.6720486 0,8.3962504 -4.79328,13.3503554 -4.7611,4.954111 -12.9643,4.954111 -8.20327,0 -12.99649,-4.664583 z"
           style="font-size:10.5833px;line-height:1.25;font-family:Modak;-inkscape-font-specification:Modak;letter-spacing:0px;word-spacing:0px;stroke-width:1.64708"
           id="path350" />
        <path
           d="m 274.21607,20.925292 q -3.82819,0 -6.11222,-1.38329 -2.54137,-1.447634 -2.54137,-4.278552 V -1.3038604 q -1.89801,-2.670071 -1.89801,-6.5625792 0,-3.9246864 1.89801,-6.7877754 h 4.92195 q 3.79601,0 5.43666,2.444886 -0.8043,0.90075 -1.41549,2.2840339 -0.61131,1.3832902 -0.61131,1.9945118 0,0.5790685 0.28947,0.8685779 0.32184,0.2895342 0.90079,0.2895342 1.12589,-4.4715638 4.27852,-6.5625858 2.60574,-1.769321 6.43393,-1.769321 4.7611,0 7.46334,2.026678 0.96503,2.573561 0.96503,6.3052288 0,3.6994957 -1.47979,6.72343221 -1.09377,0.57906849 -3.0239,0.99725281 -1.93018,0.38602488 -3.89255,0.38602488 -1.96231,0 -3.5386,-0.2573499 -1.54416,-0.28953426 -2.2519,-0.51469989 -0.2571,0.25734994 -0.2571,0.73989669 0,0.4825155 0.61131,0.7399028 0.64338,0.2251657 2.12317,0.5146999 V 18.705589 q -3.50647,2.219703 -8.29975,2.219703 z"
           style="font-size:10.5833px;line-height:1.25;font-family:Modak;-inkscape-font-specification:Modak;letter-spacing:0px;word-spacing:0px;stroke-width:1.64708"
           id="path352" />
      </g>
      <g
         id="g441"
         transform="translate(-148.36073,53.271018)">
        <path
           d="m 325.1726,8.7973738 q 1.06159,-0.1930436 1.06159,-1.0615903 0,-0.9007497 -0.57895,-1.9945119 -0.54719,-1.125934 -1.64065,-2.123193 -2.8631,-2.5735617 -7.75287,-2.5735617 -2.4127,0 -4.50375,0.8042404 -2.21966,-1.12593402 -3.53865,-3.5708207 -1.31894,-2.4448805 -1.31894,-5.2757983 0,-7.3989973 6.17659,-11.4201873 5.30792,-3.442139 13.09297,-3.442139 5.7905,0 9.74737,1.254609 3.95686,1.222443 6.46605,3.152618 0.73993,2.123186 0.73993,4.407226 0,2.284034 -0.61131,4.1498708 -0.61132,1.8658306 -1.76933,2.9917646 -1.09377,-0.8042403 -3.9568,-1.6406463 -2.8631,-0.836406 -5.2115,-0.836406 -2.34839,0 -3.15263,0.2895342 -0.77205,0.2895343 -0.77205,0.9007497 0,0.2895343 0.0965,0.5468842 1.12596,-0.2895342 2.89529,-0.2895342 6.27307,0 10.22987,2.9595928 4.66461,3.53864884 4.66461,10.6159465 0,6.2408917 -5.05063,10.3585907 -5.46878,4.407226 -14.70144,4.407226 -5.08282,0 -8.81446,-0.772068 -3.7317,-0.739903 -7.27035,-2.637899 -2.4127,-3.506483 -2.4127,-7.10947 0,-3.635158 2.47707,-6.015701 2.47707,-2.3805492 6.08003,-2.3805492 3.63515,0 5.91917,1.4797995 2.31621,1.4797996 3.40998,4.8254235 z"
           style="font-size:10.5833px;line-height:1.25;font-family:Modak;-inkscape-font-specification:Modak;letter-spacing:0px;word-spacing:0px;stroke-width:1.64708"
           id="path354" />
        <path
           d="m 363.87258,3.1355381 v 4.3107174 q 0.22535,0.2251656 0.73987,0.2251656 0.51482,0 0.73992,-0.3538406 0.22536,-0.3538406 0.22536,-1.2224371 V 2.8138507 q 0,-3.08828023 -0.2571,-4.085533 -0.25711,-1.0294247 -0.9651,-1.0294247 -0.45008,0 -0.77205,0.3217185 0.28947,3.1847834 0.28947,5.1149578 z M 353.61052,-10.729529 q 0,0.9650869 1.12589,0.9650869 1.93019,-3.0239369 4.53593,-4.4715699 2.60575,-1.479794 6.27308,-1.479794 3.66727,0 6.69122,1.1581 4.14991,1.640646 6.56261,5.2758044 3.02389,4.6002454 3.02389,12.0635742 0,8.3962504 -4.50368,13.0608334 -4.47157,4.632411 -12.41748,4.632411 -4.43938,0 -6.91645,-1.093769 -0.22535,0.128675 -0.22535,0.546885 0,0.965087 1.47979,1.38329 1.51198,0.418209 5.17931,0.611253 v 8.557097 q -3.31349,1.479799 -7.27036,1.479799 -4.66454,0 -7.04512,-1.70499 -2.70224,-1.833658 -2.70224,-5.629663 V -1.2716574 q -1.898,-2.670071 -1.898,-6.6269229 0,-1.6084745 0.51482,-3.5064767 0.51483,-1.898003 1.38324,-3.249127 h 4.56812 q 2.79873,0 4.27852,0.772068 -2.63787,1.962346 -2.63787,3.152618 z"
           style="font-size:10.5833px;line-height:1.25;font-family:Modak;-inkscape-font-specification:Modak;letter-spacing:0px;word-spacing:0px;stroke-width:1.64708"
           id="path356" />
        <path
           d="m 393.01818,20.925292 q -3.82819,0 -6.11222,-1.38329 -2.54138,-1.447634 -2.54138,-4.278552 V -1.3038604 q -1.898,-2.670071 -1.898,-6.5625792 0,-3.9246864 1.898,-6.7877754 h 4.9219 q 3.796,0 5.43666,2.444886 -0.80424,0.90075 -1.41543,2.2840339 -0.61131,1.3832902 -0.61131,1.9945118 0,0.5790685 0.28947,0.8685779 0.32184,0.2895342 0.90072,0.2895342 1.12596,-4.4715638 4.27859,-6.5625858 2.60574,-1.769321 6.43387,-1.769321 4.7611,0 7.46333,2.026678 0.9651,2.573561 0.9651,6.3052288 0,3.6994957 -1.4798,6.72343221 -1.09376,0.57906849 -3.02395,0.99725281 -1.93012,0.38602488 -3.8925,0.38602488 -1.9623,0 -3.53865,-0.2573499 -1.5441,-0.28953426 -2.25184,-0.51469989 -0.25711,0.25734994 -0.25711,0.73989669 0,0.4825155 0.61132,0.7399028 0.64344,0.2251657 2.12323,0.5146999 V 18.705589 q -3.50653,2.219703 -8.29975,2.219703 z"
           style="font-size:10.5833px;line-height:1.25;font-family:Modak;-inkscape-font-specification:Modak;letter-spacing:0px;word-spacing:0px;stroke-width:1.64708"
           id="path358" />
        <path
           d="m 445.0363,4.5831658 q 0,2.3162055 0.51482,3.7316675 0.51482,1.4154558 1.80151,2.2196957 0.0311,0.16086 0.0311,0.611253 v 0.579069 q 0,4.568073 -2.76661,7.109469 -2.44488,2.251868 -6.04785,2.251868 -2.44488,0 -4.47156,-1.158106 -2.02668,-1.158099 -2.89528,-3.34563 -1.09377,0 -1.09377,1.061597 0,0.900743 1.12595,2.026677 -2.09104,1.415462 -6.30526,1.415462 -5.95135,0 -9.52213,-3.216955 -3.53866,-3.249121 -3.53866,-9.0396375 0,-5.8226888 3.76382,-9.00747211 3.44217,-2.86308349 8.91095,-2.86308349 1.86588,0 3.60302,0.25735 1.15808,0.2251656 1.25457,0.2573499 0.0965,-0.3217185 0.0965,-0.5468842 0,-0.836406 -1.41549,-1.125934 -1.41542,-0.2895342 -3.69945,-0.2895342 -4.85765,0 -8.29975,1.9623462 -1.57635,-2.670071 -1.57635,-6.7556041 0,-2.3162055 0.57894,-3.4421395 2.31622,-1.061597 5.88706,-1.865831 3.57077,-0.836412 7.52764,-0.836412 8.17107,0 12.3531,3.570821 4.18203,3.5708143 4.18203,10.1333997 z m -16.696,1.5763088 q -1.35112,0 -1.35112,1.2224434 0,1.1580996 1.57635,1.1580996 1.09376,0 1.60846,-0.5146999 0.51483,-0.5468841 0.51483,-1.8658306 0,0 -2.3484,0 z"
           style="font-size:10.5833px;line-height:1.25;font-family:Modak;-inkscape-font-specification:Modak;letter-spacing:0px;word-spacing:0px;stroke-width:1.64708"
           id="path360" />
        <path
           d="m 463.91983,4.2614721 v 0.7398967 q 0,0.5146999 0.0311,0.7399028 0.32184,0.1608593 0.70768,0.1608593 0.93291,0 0.93291,-1.415462 0,-4.72892035 0.51482,-9.8117062 0.5472,-5.1149577 1.15808,-7.8815317 2.60574,-1.898003 6.94863,-1.898003 4.34289,0 6.69122,1.704984 2.38058,1.672812 2.38058,4.0533614 0,0.9972528 -1.19026,8.2353973 -1.31899,7.3668257 -3.37779,15.5057133 -0.41833,1.640647 -1.51198,4.600246 -1.06158,2.959599 -2.28403,4.921939 -3.82819,6.080038 -9.45789,7.527666 -2.63786,0.675566 -5.30792,0.675566 -5.1793,0 -8.01022,-2.573562 -2.60574,-2.316212 -2.60574,-5.758351 0,-3.409968 2.02668,-6.433905 0.48245,-0.128675 1.76932,-0.128675 1.28675,0 3.21694,0.321719 5.34017,0.997253 5.43666,0.997253 0.22535,0.03237 0.48245,0.09649 0.28947,0.03237 0.73993,0.03237 0.4507,0 0.77205,-0.25735 0.32184,-0.25735 0.32184,-1.029425 l -7.59201,-1.447634 q -2.79873,-1.1581 -4.85759,-4.857595 -2.54138,-4.5680737 -3.44216,-12.3852743 -2.12317,-2.7665741 -2.12317,-6.6269229 0,-3.8603428 1.93019,-6.7234318 h 8.26757 q 4.14984,0 6.2087,2.380549 1.51198,1.769321 1.93019,5.179295 -0.70774,5.5974982 -0.70774,11.3558432 z"
           style="font-size:10.5833px;line-height:1.25;font-family:Modak;-inkscape-font-specification:Modak;letter-spacing:0px;word-spacing:0px;stroke-width:1.64708"
           id="path362" />
      </g>
    </g>
  </g>
</svg>
