%TF.GenerationSoftware,KiCad,Pcbnew,6.0.4+dfsg-1+b1*%
%TF.CreationDate,2022-05-07T15:52:57-05:00*%
%TF.ProjectId,color-spray,61726475-696e-46f2-9d6d-6964692d6172,rev?*%
%TF.SameCoordinates,Original*%
%TF.FileFunction,Legend,Top*%
%TF.FilePolarity,Positive*%
%FSLAX46Y46*%
G04 Gerber Fmt 4.6, Leading zero omitted, Abs format (unit mm)*
G04 Created by KiCad (PCBNEW 6.0.4+dfsg-1+b1) date 2022-05-07 15:52:57*
%MOMM*%
%LPD*%
G01*
G04 APERTURE LIST*
%ADD10C,0.150000*%
%ADD11C,0.200000*%
%ADD12C,0.300000*%
%ADD13C,0.120000*%
%ADD14C,0.304800*%
G04 APERTURE END LIST*
D10*
X167015357Y-109559285D02*
X167015357Y-108809285D01*
X167443928Y-109559285D01*
X167443928Y-108809285D01*
X168051071Y-109166428D02*
X167801071Y-109166428D01*
X167801071Y-109559285D02*
X167801071Y-108809285D01*
X168158214Y-108809285D01*
X168443928Y-109166428D02*
X168693928Y-109166428D01*
X168801071Y-109559285D02*
X168443928Y-109559285D01*
X168443928Y-108809285D01*
X168801071Y-108809285D01*
X169015357Y-108809285D02*
X169443928Y-108809285D01*
X169229642Y-109559285D02*
X169229642Y-108809285D01*
X170229642Y-108773571D02*
X169586785Y-109737857D01*
X170479642Y-109559285D02*
X170479642Y-108809285D01*
X170908214Y-109559285D01*
X170908214Y-108809285D01*
X171265357Y-109559285D02*
X171265357Y-108809285D01*
X171551071Y-108809285D01*
X171622500Y-108845000D01*
X171658214Y-108880714D01*
X171693928Y-108952142D01*
X171693928Y-109059285D01*
X171658214Y-109130714D01*
X171622500Y-109166428D01*
X171551071Y-109202142D01*
X171265357Y-109202142D01*
X172015357Y-109559285D02*
X172015357Y-108809285D01*
X172443928Y-109559285D01*
X172443928Y-108809285D01*
X167015357Y-103209285D02*
X167015357Y-102459285D01*
X167443928Y-103209285D01*
X167443928Y-102459285D01*
X168051071Y-102816428D02*
X167801071Y-102816428D01*
X167801071Y-103209285D02*
X167801071Y-102459285D01*
X168158214Y-102459285D01*
X168443928Y-102816428D02*
X168693928Y-102816428D01*
X168801071Y-103209285D02*
X168443928Y-103209285D01*
X168443928Y-102459285D01*
X168801071Y-102459285D01*
X169015357Y-102459285D02*
X169443928Y-102459285D01*
X169229642Y-103209285D02*
X169229642Y-102459285D01*
X170229642Y-102423571D02*
X169586785Y-103387857D01*
X170479642Y-103209285D02*
X170479642Y-102459285D01*
X170908214Y-103209285D01*
X170908214Y-102459285D01*
X171265357Y-103209285D02*
X171265357Y-102459285D01*
X171551071Y-102459285D01*
X171622500Y-102495000D01*
X171658214Y-102530714D01*
X171693928Y-102602142D01*
X171693928Y-102709285D01*
X171658214Y-102780714D01*
X171622500Y-102816428D01*
X171551071Y-102852142D01*
X171265357Y-102852142D01*
X172015357Y-103209285D02*
X172015357Y-102459285D01*
X172443928Y-103209285D01*
X172443928Y-102459285D01*
X167015357Y-96859285D02*
X167015357Y-96109285D01*
X167443928Y-96859285D01*
X167443928Y-96109285D01*
X168051071Y-96466428D02*
X167801071Y-96466428D01*
X167801071Y-96859285D02*
X167801071Y-96109285D01*
X168158214Y-96109285D01*
X168443928Y-96466428D02*
X168693928Y-96466428D01*
X168801071Y-96859285D02*
X168443928Y-96859285D01*
X168443928Y-96109285D01*
X168801071Y-96109285D01*
X169015357Y-96109285D02*
X169443928Y-96109285D01*
X169229642Y-96859285D02*
X169229642Y-96109285D01*
X170229642Y-96073571D02*
X169586785Y-97037857D01*
X170479642Y-96859285D02*
X170479642Y-96109285D01*
X170908214Y-96859285D01*
X170908214Y-96109285D01*
X171265357Y-96859285D02*
X171265357Y-96109285D01*
X171551071Y-96109285D01*
X171622500Y-96145000D01*
X171658214Y-96180714D01*
X171693928Y-96252142D01*
X171693928Y-96359285D01*
X171658214Y-96430714D01*
X171622500Y-96466428D01*
X171551071Y-96502142D01*
X171265357Y-96502142D01*
X172015357Y-96859285D02*
X172015357Y-96109285D01*
X172443928Y-96859285D01*
X172443928Y-96109285D01*
X177800238Y-115022380D02*
X177324047Y-115022380D01*
X177276428Y-115498571D01*
X177324047Y-115450952D01*
X177419285Y-115403333D01*
X177657380Y-115403333D01*
X177752619Y-115450952D01*
X177800238Y-115498571D01*
X177847857Y-115593809D01*
X177847857Y-115831904D01*
X177800238Y-115927142D01*
X177752619Y-115974761D01*
X177657380Y-116022380D01*
X177419285Y-116022380D01*
X177324047Y-115974761D01*
X177276428Y-115927142D01*
X178133571Y-115022380D02*
X178466904Y-116022380D01*
X178800238Y-115022380D01*
X179895476Y-116022380D02*
X179895476Y-115022380D01*
X180276428Y-115022380D01*
X180371666Y-115070000D01*
X180419285Y-115117619D01*
X180466904Y-115212857D01*
X180466904Y-115355714D01*
X180419285Y-115450952D01*
X180371666Y-115498571D01*
X180276428Y-115546190D01*
X179895476Y-115546190D01*
X180800238Y-115355714D02*
X180990714Y-116022380D01*
X181181190Y-115546190D01*
X181371666Y-116022380D01*
X181562142Y-115355714D01*
X181943095Y-116022380D02*
X181943095Y-115355714D01*
X181943095Y-115546190D02*
X181990714Y-115450952D01*
X182038333Y-115403333D01*
X182133571Y-115355714D01*
X182228809Y-115355714D01*
D11*
X157942380Y-95994047D02*
X157942380Y-96565476D01*
X157942380Y-96279761D02*
X156942380Y-96279761D01*
X157085238Y-96375000D01*
X157180476Y-96470238D01*
X157228095Y-96565476D01*
X157942380Y-95565476D02*
X156942380Y-95565476D01*
X157561428Y-95470238D02*
X157942380Y-95184523D01*
X157275714Y-95184523D02*
X157656666Y-95565476D01*
D12*
X161764285Y-116619571D02*
X161264285Y-115905285D01*
X160907142Y-116619571D02*
X160907142Y-115119571D01*
X161478571Y-115119571D01*
X161621428Y-115191000D01*
X161692857Y-115262428D01*
X161764285Y-115405285D01*
X161764285Y-115619571D01*
X161692857Y-115762428D01*
X161621428Y-115833857D01*
X161478571Y-115905285D01*
X160907142Y-115905285D01*
D11*
X138114761Y-63307380D02*
X137543333Y-63307380D01*
X137829047Y-63307380D02*
X137829047Y-62307380D01*
X137733809Y-62450238D01*
X137638571Y-62545476D01*
X137543333Y-62593095D01*
X138543333Y-62640714D02*
X138543333Y-63307380D01*
X138543333Y-62735952D02*
X138590952Y-62688333D01*
X138686190Y-62640714D01*
X138829047Y-62640714D01*
X138924285Y-62688333D01*
X138971904Y-62783571D01*
X138971904Y-63307380D01*
X139495714Y-63307380D02*
X139686190Y-63307380D01*
X139781428Y-63259761D01*
X139829047Y-63212142D01*
X139924285Y-63069285D01*
X139971904Y-62878809D01*
X139971904Y-62497857D01*
X139924285Y-62402619D01*
X139876666Y-62355000D01*
X139781428Y-62307380D01*
X139590952Y-62307380D01*
X139495714Y-62355000D01*
X139448095Y-62402619D01*
X139400476Y-62497857D01*
X139400476Y-62735952D01*
X139448095Y-62831190D01*
X139495714Y-62878809D01*
X139590952Y-62926428D01*
X139781428Y-62926428D01*
X139876666Y-62878809D01*
X139924285Y-62831190D01*
X139971904Y-62735952D01*
X140924285Y-63307380D02*
X140352857Y-63307380D01*
X140638571Y-63307380D02*
X140638571Y-62307380D01*
X140543333Y-62450238D01*
X140448095Y-62545476D01*
X140352857Y-62593095D01*
X141781428Y-62640714D02*
X141781428Y-63307380D01*
X141543333Y-62259761D02*
X141305238Y-62974047D01*
X141924285Y-62974047D01*
D12*
X158867142Y-115833857D02*
X159081428Y-115905285D01*
X159152857Y-115976714D01*
X159224285Y-116119571D01*
X159224285Y-116333857D01*
X159152857Y-116476714D01*
X159081428Y-116548142D01*
X158938571Y-116619571D01*
X158367142Y-116619571D01*
X158367142Y-115119571D01*
X158867142Y-115119571D01*
X159010000Y-115191000D01*
X159081428Y-115262428D01*
X159152857Y-115405285D01*
X159152857Y-115548142D01*
X159081428Y-115691000D01*
X159010000Y-115762428D01*
X158867142Y-115833857D01*
X158367142Y-115833857D01*
X159530000Y-72828571D02*
X160030000Y-74328571D01*
X160530000Y-72828571D01*
D11*
X125028571Y-119839880D02*
X125123809Y-119839880D01*
X125219047Y-119887500D01*
X125266666Y-119935119D01*
X125314285Y-120030357D01*
X125361904Y-120220833D01*
X125361904Y-120458928D01*
X125314285Y-120649404D01*
X125266666Y-120744642D01*
X125219047Y-120792261D01*
X125123809Y-120839880D01*
X125028571Y-120839880D01*
X124933333Y-120792261D01*
X124885714Y-120744642D01*
X124838095Y-120649404D01*
X124790476Y-120458928D01*
X124790476Y-120220833D01*
X124838095Y-120030357D01*
X124885714Y-119935119D01*
X124933333Y-119887500D01*
X125028571Y-119839880D01*
X125790476Y-120744642D02*
X125838095Y-120792261D01*
X125790476Y-120839880D01*
X125742857Y-120792261D01*
X125790476Y-120744642D01*
X125790476Y-120839880D01*
X126790476Y-120839880D02*
X126219047Y-120839880D01*
X126504761Y-120839880D02*
X126504761Y-119839880D01*
X126409523Y-119982738D01*
X126314285Y-120077976D01*
X126219047Y-120125595D01*
X127647619Y-120173214D02*
X127647619Y-120839880D01*
X127219047Y-120173214D02*
X127219047Y-120697023D01*
X127266666Y-120792261D01*
X127361904Y-120839880D01*
X127504761Y-120839880D01*
X127600000Y-120792261D01*
X127647619Y-120744642D01*
X128457142Y-120316071D02*
X128123809Y-120316071D01*
X128123809Y-120839880D02*
X128123809Y-119839880D01*
X128600000Y-119839880D01*
X161117380Y-109964047D02*
X161117380Y-110535476D01*
X161117380Y-110249761D02*
X160117380Y-110249761D01*
X160260238Y-110345000D01*
X160355476Y-110440238D01*
X160403095Y-110535476D01*
X161117380Y-109535476D02*
X160117380Y-109535476D01*
X160736428Y-109440238D02*
X161117380Y-109154523D01*
X160450714Y-109154523D02*
X160831666Y-109535476D01*
D12*
X157095000Y-66107142D02*
X157095000Y-65392857D01*
X157523571Y-66250000D02*
X156023571Y-65750000D01*
X157523571Y-65250000D01*
X157523571Y-63892857D02*
X156809285Y-64392857D01*
X157523571Y-64750000D02*
X156023571Y-64750000D01*
X156023571Y-64178571D01*
X156095000Y-64035714D01*
X156166428Y-63964285D01*
X156309285Y-63892857D01*
X156523571Y-63892857D01*
X156666428Y-63964285D01*
X156737857Y-64035714D01*
X156809285Y-64178571D01*
X156809285Y-64750000D01*
X156095000Y-62464285D02*
X156023571Y-62607142D01*
X156023571Y-62821428D01*
X156095000Y-63035714D01*
X156237857Y-63178571D01*
X156380714Y-63250000D01*
X156666428Y-63321428D01*
X156880714Y-63321428D01*
X157166428Y-63250000D01*
X157309285Y-63178571D01*
X157452142Y-63035714D01*
X157523571Y-62821428D01*
X157523571Y-62678571D01*
X157452142Y-62464285D01*
X157380714Y-62392857D01*
X156880714Y-62392857D01*
X156880714Y-62678571D01*
X156737857Y-61250000D02*
X156809285Y-61035714D01*
X156880714Y-60964285D01*
X157023571Y-60892857D01*
X157237857Y-60892857D01*
X157380714Y-60964285D01*
X157452142Y-61035714D01*
X157523571Y-61178571D01*
X157523571Y-61750000D01*
X156023571Y-61750000D01*
X156023571Y-61250000D01*
X156095000Y-61107142D01*
X156166428Y-61035714D01*
X156309285Y-60964285D01*
X156452142Y-60964285D01*
X156595000Y-61035714D01*
X156666428Y-61107142D01*
X156737857Y-61250000D01*
X156737857Y-61750000D01*
X126257142Y-109253571D02*
X126257142Y-107753571D01*
X126757142Y-108253571D02*
X127328571Y-108253571D01*
X126971428Y-107753571D02*
X126971428Y-109039285D01*
X127042857Y-109182142D01*
X127185714Y-109253571D01*
X127328571Y-109253571D01*
X127757142Y-109182142D02*
X127900000Y-109253571D01*
X128185714Y-109253571D01*
X128328571Y-109182142D01*
X128400000Y-109039285D01*
X128400000Y-108967857D01*
X128328571Y-108825000D01*
X128185714Y-108753571D01*
X127971428Y-108753571D01*
X127828571Y-108682142D01*
X127757142Y-108539285D01*
X127757142Y-108467857D01*
X127828571Y-108325000D01*
X127971428Y-108253571D01*
X128185714Y-108253571D01*
X128328571Y-108325000D01*
X128900000Y-108253571D02*
X129257142Y-109253571D01*
X129614285Y-108253571D02*
X129257142Y-109253571D01*
X129114285Y-109610714D01*
X129042857Y-109682142D01*
X128900000Y-109753571D01*
X130685714Y-108467857D02*
X130900000Y-108539285D01*
X130971428Y-108610714D01*
X131042857Y-108753571D01*
X131042857Y-108967857D01*
X130971428Y-109110714D01*
X130900000Y-109182142D01*
X130757142Y-109253571D01*
X130185714Y-109253571D01*
X130185714Y-107753571D01*
X130685714Y-107753571D01*
X130828571Y-107825000D01*
X130900000Y-107896428D01*
X130971428Y-108039285D01*
X130971428Y-108182142D01*
X130900000Y-108325000D01*
X130828571Y-108396428D01*
X130685714Y-108467857D01*
X130185714Y-108467857D01*
X131685714Y-109253571D02*
X131685714Y-108253571D01*
X131685714Y-107753571D02*
X131614285Y-107825000D01*
X131685714Y-107896428D01*
X131757142Y-107825000D01*
X131685714Y-107753571D01*
X131685714Y-107896428D01*
X132185714Y-108253571D02*
X132757142Y-108253571D01*
X132400000Y-107753571D02*
X132400000Y-109039285D01*
X132471428Y-109182142D01*
X132614285Y-109253571D01*
X132757142Y-109253571D01*
X133185714Y-109182142D02*
X133328571Y-109253571D01*
X133614285Y-109253571D01*
X133757142Y-109182142D01*
X133828571Y-109039285D01*
X133828571Y-108967857D01*
X133757142Y-108825000D01*
X133614285Y-108753571D01*
X133400000Y-108753571D01*
X133257142Y-108682142D01*
X133185714Y-108539285D01*
X133185714Y-108467857D01*
X133257142Y-108325000D01*
X133400000Y-108253571D01*
X133614285Y-108253571D01*
X133757142Y-108325000D01*
X134328571Y-108253571D02*
X134685714Y-109253571D01*
X135042857Y-108253571D02*
X134685714Y-109253571D01*
X134542857Y-109610714D01*
X134471428Y-109682142D01*
X134328571Y-109753571D01*
X136614285Y-107753571D02*
X137542857Y-107753571D01*
X137042857Y-108325000D01*
X137257142Y-108325000D01*
X137400000Y-108396428D01*
X137471428Y-108467857D01*
X137542857Y-108610714D01*
X137542857Y-108967857D01*
X137471428Y-109110714D01*
X137400000Y-109182142D01*
X137257142Y-109253571D01*
X136828571Y-109253571D01*
X136685714Y-109182142D01*
X136614285Y-109110714D01*
X138114285Y-107896428D02*
X138185714Y-107825000D01*
X138328571Y-107753571D01*
X138685714Y-107753571D01*
X138828571Y-107825000D01*
X138900000Y-107896428D01*
X138971428Y-108039285D01*
X138971428Y-108182142D01*
X138900000Y-108396428D01*
X138042857Y-109253571D01*
X138971428Y-109253571D01*
X140257142Y-108253571D02*
X140257142Y-109253571D01*
X139614285Y-108253571D02*
X139614285Y-109039285D01*
X139685714Y-109182142D01*
X139828571Y-109253571D01*
X140042857Y-109253571D01*
X140185714Y-109182142D01*
X140257142Y-109110714D01*
X141614285Y-108253571D02*
X141614285Y-109253571D01*
X141257142Y-107682142D02*
X140900000Y-108753571D01*
X141828571Y-108753571D01*
X144257142Y-107753571D02*
X143542857Y-107753571D01*
X143471428Y-108467857D01*
X143542857Y-108396428D01*
X143685714Y-108325000D01*
X144042857Y-108325000D01*
X144185714Y-108396428D01*
X144257142Y-108467857D01*
X144328571Y-108610714D01*
X144328571Y-108967857D01*
X144257142Y-109110714D01*
X144185714Y-109182142D01*
X144042857Y-109253571D01*
X143685714Y-109253571D01*
X143542857Y-109182142D01*
X143471428Y-109110714D01*
X144757142Y-107753571D02*
X145257142Y-109253571D01*
X145757142Y-107753571D01*
X181542857Y-63115000D02*
X182257142Y-63115000D01*
X181400000Y-63543571D02*
X181900000Y-62043571D01*
X182400000Y-63543571D01*
X183757142Y-63543571D02*
X183257142Y-62829285D01*
X182900000Y-63543571D02*
X182900000Y-62043571D01*
X183471428Y-62043571D01*
X183614285Y-62115000D01*
X183685714Y-62186428D01*
X183757142Y-62329285D01*
X183757142Y-62543571D01*
X183685714Y-62686428D01*
X183614285Y-62757857D01*
X183471428Y-62829285D01*
X182900000Y-62829285D01*
X185185714Y-62115000D02*
X185042857Y-62043571D01*
X184828571Y-62043571D01*
X184614285Y-62115000D01*
X184471428Y-62257857D01*
X184400000Y-62400714D01*
X184328571Y-62686428D01*
X184328571Y-62900714D01*
X184400000Y-63186428D01*
X184471428Y-63329285D01*
X184614285Y-63472142D01*
X184828571Y-63543571D01*
X184971428Y-63543571D01*
X185185714Y-63472142D01*
X185257142Y-63400714D01*
X185257142Y-62900714D01*
X184971428Y-62900714D01*
X186400000Y-62757857D02*
X186614285Y-62829285D01*
X186685714Y-62900714D01*
X186757142Y-63043571D01*
X186757142Y-63257857D01*
X186685714Y-63400714D01*
X186614285Y-63472142D01*
X186471428Y-63543571D01*
X185900000Y-63543571D01*
X185900000Y-62043571D01*
X186400000Y-62043571D01*
X186542857Y-62115000D01*
X186614285Y-62186428D01*
X186685714Y-62329285D01*
X186685714Y-62472142D01*
X186614285Y-62615000D01*
X186542857Y-62686428D01*
X186400000Y-62757857D01*
X185900000Y-62757857D01*
D11*
X157053571Y-82357380D02*
X156482142Y-82357380D01*
X156767857Y-82357380D02*
X156767857Y-81357380D01*
X156672619Y-81500238D01*
X156577380Y-81595476D01*
X156482142Y-81643095D01*
X157672619Y-81357380D02*
X157767857Y-81357380D01*
X157863095Y-81405000D01*
X157910714Y-81452619D01*
X157958333Y-81547857D01*
X158005952Y-81738333D01*
X158005952Y-81976428D01*
X157958333Y-82166904D01*
X157910714Y-82262142D01*
X157863095Y-82309761D01*
X157767857Y-82357380D01*
X157672619Y-82357380D01*
X157577380Y-82309761D01*
X157529761Y-82262142D01*
X157482142Y-82166904D01*
X157434523Y-81976428D01*
X157434523Y-81738333D01*
X157482142Y-81547857D01*
X157529761Y-81452619D01*
X157577380Y-81405000D01*
X157672619Y-81357380D01*
X158863095Y-81690714D02*
X158863095Y-82357380D01*
X158434523Y-81690714D02*
X158434523Y-82214523D01*
X158482142Y-82309761D01*
X158577380Y-82357380D01*
X158720238Y-82357380D01*
X158815476Y-82309761D01*
X158863095Y-82262142D01*
X159672619Y-81833571D02*
X159339285Y-81833571D01*
X159339285Y-82357380D02*
X159339285Y-81357380D01*
X159815476Y-81357380D01*
X157073571Y-89977380D02*
X156502142Y-89977380D01*
X156787857Y-89977380D02*
X156787857Y-88977380D01*
X156692619Y-89120238D01*
X156597380Y-89215476D01*
X156502142Y-89263095D01*
X157692619Y-88977380D02*
X157787857Y-88977380D01*
X157883095Y-89025000D01*
X157930714Y-89072619D01*
X157978333Y-89167857D01*
X158025952Y-89358333D01*
X158025952Y-89596428D01*
X157978333Y-89786904D01*
X157930714Y-89882142D01*
X157883095Y-89929761D01*
X157787857Y-89977380D01*
X157692619Y-89977380D01*
X157597380Y-89929761D01*
X157549761Y-89882142D01*
X157502142Y-89786904D01*
X157454523Y-89596428D01*
X157454523Y-89358333D01*
X157502142Y-89167857D01*
X157549761Y-89072619D01*
X157597380Y-89025000D01*
X157692619Y-88977380D01*
X158883095Y-89310714D02*
X158883095Y-89977380D01*
X158454523Y-89310714D02*
X158454523Y-89834523D01*
X158502142Y-89929761D01*
X158597380Y-89977380D01*
X158740238Y-89977380D01*
X158835476Y-89929761D01*
X158883095Y-89882142D01*
X159692619Y-89453571D02*
X159359285Y-89453571D01*
X159359285Y-89977380D02*
X159359285Y-88977380D01*
X159835476Y-88977380D01*
X147845683Y-80412865D02*
X147845683Y-81079531D01*
X147607588Y-80031912D02*
X147369492Y-80746198D01*
X147988540Y-80746198D01*
X148274254Y-80079531D02*
X148940921Y-80079531D01*
X148512349Y-81079531D01*
X149512349Y-80079531D02*
X149607588Y-80079531D01*
X149702826Y-80127151D01*
X149750445Y-80174770D01*
X149798064Y-80270008D01*
X149845683Y-80460484D01*
X149845683Y-80698579D01*
X149798064Y-80889055D01*
X149750445Y-80984293D01*
X149702826Y-81031912D01*
X149607588Y-81079531D01*
X149512349Y-81079531D01*
X149417111Y-81031912D01*
X149369492Y-80984293D01*
X149321873Y-80889055D01*
X149274254Y-80698579D01*
X149274254Y-80460484D01*
X149321873Y-80270008D01*
X149369492Y-80174770D01*
X149417111Y-80127151D01*
X149512349Y-80079531D01*
X157942380Y-108186047D02*
X157942380Y-108757476D01*
X157942380Y-108471761D02*
X156942380Y-108471761D01*
X157085238Y-108567000D01*
X157180476Y-108662238D01*
X157228095Y-108757476D01*
X157942380Y-107757476D02*
X156942380Y-107757476D01*
X157561428Y-107662238D02*
X157942380Y-107376523D01*
X157275714Y-107376523D02*
X157656666Y-107757476D01*
D12*
X182185714Y-91483571D02*
X182185714Y-89983571D01*
X182542857Y-89983571D01*
X182757142Y-90055000D01*
X182900000Y-90197857D01*
X182971428Y-90340714D01*
X183042857Y-90626428D01*
X183042857Y-90840714D01*
X182971428Y-91126428D01*
X182900000Y-91269285D01*
X182757142Y-91412142D01*
X182542857Y-91483571D01*
X182185714Y-91483571D01*
X183685714Y-91483571D02*
X183685714Y-89983571D01*
X184185714Y-91055000D01*
X184685714Y-89983571D01*
X184685714Y-91483571D01*
X185257142Y-89983571D02*
X186257142Y-91483571D01*
X186257142Y-89983571D02*
X185257142Y-91483571D01*
X162177142Y-74328571D02*
X162177142Y-72828571D01*
X162534285Y-72828571D01*
X162748571Y-72900000D01*
X162891428Y-73042857D01*
X162962857Y-73185714D01*
X163034285Y-73471428D01*
X163034285Y-73685714D01*
X162962857Y-73971428D01*
X162891428Y-74114285D01*
X162748571Y-74257142D01*
X162534285Y-74328571D01*
X162177142Y-74328571D01*
X168277142Y-115119571D02*
X168634285Y-116619571D01*
X168920000Y-115548142D01*
X169205714Y-116619571D01*
X169562857Y-115119571D01*
D11*
X148052380Y-70895476D02*
X148052380Y-71085952D01*
X148100000Y-71181190D01*
X148147619Y-71228809D01*
X148290476Y-71324047D01*
X148480952Y-71371666D01*
X148861904Y-71371666D01*
X148957142Y-71324047D01*
X149004761Y-71276428D01*
X149052380Y-71181190D01*
X149052380Y-70990714D01*
X149004761Y-70895476D01*
X148957142Y-70847857D01*
X148861904Y-70800238D01*
X148623809Y-70800238D01*
X148528571Y-70847857D01*
X148480952Y-70895476D01*
X148433333Y-70990714D01*
X148433333Y-71181190D01*
X148480952Y-71276428D01*
X148528571Y-71324047D01*
X148623809Y-71371666D01*
X148385714Y-70371666D02*
X149052380Y-70371666D01*
X148480952Y-70371666D02*
X148433333Y-70324047D01*
X148385714Y-70228809D01*
X148385714Y-70085952D01*
X148433333Y-69990714D01*
X148528571Y-69943095D01*
X149052380Y-69943095D01*
X149052380Y-68943095D02*
X149052380Y-69514523D01*
X149052380Y-69228809D02*
X148052380Y-69228809D01*
X148195238Y-69324047D01*
X148290476Y-69419285D01*
X148338095Y-69514523D01*
X148052380Y-68609761D02*
X148052380Y-67990714D01*
X148433333Y-68324047D01*
X148433333Y-68181190D01*
X148480952Y-68085952D01*
X148528571Y-68038333D01*
X148623809Y-67990714D01*
X148861904Y-67990714D01*
X148957142Y-68038333D01*
X149004761Y-68085952D01*
X149052380Y-68181190D01*
X149052380Y-68466904D01*
X149004761Y-68562142D01*
X148957142Y-68609761D01*
X148480952Y-67419285D02*
X148433333Y-67514523D01*
X148385714Y-67562142D01*
X148290476Y-67609761D01*
X148242857Y-67609761D01*
X148147619Y-67562142D01*
X148100000Y-67514523D01*
X148052380Y-67419285D01*
X148052380Y-67228809D01*
X148100000Y-67133571D01*
X148147619Y-67085952D01*
X148242857Y-67038333D01*
X148290476Y-67038333D01*
X148385714Y-67085952D01*
X148433333Y-67133571D01*
X148480952Y-67228809D01*
X148480952Y-67419285D01*
X148528571Y-67514523D01*
X148576190Y-67562142D01*
X148671428Y-67609761D01*
X148861904Y-67609761D01*
X148957142Y-67562142D01*
X149004761Y-67514523D01*
X149052380Y-67419285D01*
X149052380Y-67228809D01*
X149004761Y-67133571D01*
X148957142Y-67085952D01*
X148861904Y-67038333D01*
X148671428Y-67038333D01*
X148576190Y-67085952D01*
X148528571Y-67133571D01*
X148480952Y-67228809D01*
X166983333Y-76642380D02*
X166411904Y-76642380D01*
X166697619Y-76642380D02*
X166697619Y-75642380D01*
X166602380Y-75785238D01*
X166507142Y-75880476D01*
X166411904Y-75928095D01*
X167602380Y-75642380D02*
X167697619Y-75642380D01*
X167792857Y-75690000D01*
X167840476Y-75737619D01*
X167888095Y-75832857D01*
X167935714Y-76023333D01*
X167935714Y-76261428D01*
X167888095Y-76451904D01*
X167840476Y-76547142D01*
X167792857Y-76594761D01*
X167697619Y-76642380D01*
X167602380Y-76642380D01*
X167507142Y-76594761D01*
X167459523Y-76547142D01*
X167411904Y-76451904D01*
X167364285Y-76261428D01*
X167364285Y-76023333D01*
X167411904Y-75832857D01*
X167459523Y-75737619D01*
X167507142Y-75690000D01*
X167602380Y-75642380D01*
X168554761Y-75642380D02*
X168650000Y-75642380D01*
X168745238Y-75690000D01*
X168792857Y-75737619D01*
X168840476Y-75832857D01*
X168888095Y-76023333D01*
X168888095Y-76261428D01*
X168840476Y-76451904D01*
X168792857Y-76547142D01*
X168745238Y-76594761D01*
X168650000Y-76642380D01*
X168554761Y-76642380D01*
X168459523Y-76594761D01*
X168411904Y-76547142D01*
X168364285Y-76451904D01*
X168316666Y-76261428D01*
X168316666Y-76023333D01*
X168364285Y-75832857D01*
X168411904Y-75737619D01*
X168459523Y-75690000D01*
X168554761Y-75642380D01*
X147838095Y-84865714D02*
X147838095Y-85532380D01*
X147600000Y-84484761D02*
X147361904Y-85199047D01*
X147980952Y-85199047D01*
X148266666Y-84532380D02*
X148933333Y-84532380D01*
X148504761Y-85532380D01*
X149504761Y-84532380D02*
X149600000Y-84532380D01*
X149695238Y-84580000D01*
X149742857Y-84627619D01*
X149790476Y-84722857D01*
X149838095Y-84913333D01*
X149838095Y-85151428D01*
X149790476Y-85341904D01*
X149742857Y-85437142D01*
X149695238Y-85484761D01*
X149600000Y-85532380D01*
X149504761Y-85532380D01*
X149409523Y-85484761D01*
X149361904Y-85437142D01*
X149314285Y-85341904D01*
X149266666Y-85151428D01*
X149266666Y-84913333D01*
X149314285Y-84722857D01*
X149361904Y-84627619D01*
X149409523Y-84580000D01*
X149504761Y-84532380D01*
D12*
X156253571Y-120002857D02*
X155539285Y-120502857D01*
X156253571Y-120860000D02*
X154753571Y-120860000D01*
X154753571Y-120288571D01*
X154825000Y-120145714D01*
X154896428Y-120074285D01*
X155039285Y-120002857D01*
X155253571Y-120002857D01*
X155396428Y-120074285D01*
X155467857Y-120145714D01*
X155539285Y-120288571D01*
X155539285Y-120860000D01*
X154825000Y-118574285D02*
X154753571Y-118717142D01*
X154753571Y-118931428D01*
X154825000Y-119145714D01*
X154967857Y-119288571D01*
X155110714Y-119360000D01*
X155396428Y-119431428D01*
X155610714Y-119431428D01*
X155896428Y-119360000D01*
X156039285Y-119288571D01*
X156182142Y-119145714D01*
X156253571Y-118931428D01*
X156253571Y-118788571D01*
X156182142Y-118574285D01*
X156110714Y-118502857D01*
X155610714Y-118502857D01*
X155610714Y-118788571D01*
X155467857Y-117360000D02*
X155539285Y-117145714D01*
X155610714Y-117074285D01*
X155753571Y-117002857D01*
X155967857Y-117002857D01*
X156110714Y-117074285D01*
X156182142Y-117145714D01*
X156253571Y-117288571D01*
X156253571Y-117860000D01*
X154753571Y-117860000D01*
X154753571Y-117360000D01*
X154825000Y-117217142D01*
X154896428Y-117145714D01*
X155039285Y-117074285D01*
X155182142Y-117074285D01*
X155325000Y-117145714D01*
X155396428Y-117217142D01*
X155467857Y-117360000D01*
X155467857Y-117860000D01*
X154753571Y-116502857D02*
X156253571Y-116145714D01*
X155182142Y-115860000D01*
X156253571Y-115574285D01*
X154753571Y-115217142D01*
X164232857Y-115191000D02*
X164090000Y-115119571D01*
X163875714Y-115119571D01*
X163661428Y-115191000D01*
X163518571Y-115333857D01*
X163447142Y-115476714D01*
X163375714Y-115762428D01*
X163375714Y-115976714D01*
X163447142Y-116262428D01*
X163518571Y-116405285D01*
X163661428Y-116548142D01*
X163875714Y-116619571D01*
X164018571Y-116619571D01*
X164232857Y-116548142D01*
X164304285Y-116476714D01*
X164304285Y-115976714D01*
X164018571Y-115976714D01*
D11*
X138956190Y-124902380D02*
X138384761Y-124902380D01*
X138670476Y-124902380D02*
X138670476Y-123902380D01*
X138575238Y-124045238D01*
X138480000Y-124140476D01*
X138384761Y-124188095D01*
X139575238Y-123902380D02*
X139670476Y-123902380D01*
X139765714Y-123950000D01*
X139813333Y-123997619D01*
X139860952Y-124092857D01*
X139908571Y-124283333D01*
X139908571Y-124521428D01*
X139860952Y-124711904D01*
X139813333Y-124807142D01*
X139765714Y-124854761D01*
X139670476Y-124902380D01*
X139575238Y-124902380D01*
X139480000Y-124854761D01*
X139432380Y-124807142D01*
X139384761Y-124711904D01*
X139337142Y-124521428D01*
X139337142Y-124283333D01*
X139384761Y-124092857D01*
X139432380Y-123997619D01*
X139480000Y-123950000D01*
X139575238Y-123902380D01*
X140527619Y-123902380D02*
X140622857Y-123902380D01*
X140718095Y-123950000D01*
X140765714Y-123997619D01*
X140813333Y-124092857D01*
X140860952Y-124283333D01*
X140860952Y-124521428D01*
X140813333Y-124711904D01*
X140765714Y-124807142D01*
X140718095Y-124854761D01*
X140622857Y-124902380D01*
X140527619Y-124902380D01*
X140432380Y-124854761D01*
X140384761Y-124807142D01*
X140337142Y-124711904D01*
X140289523Y-124521428D01*
X140289523Y-124283333D01*
X140337142Y-124092857D01*
X140384761Y-123997619D01*
X140432380Y-123950000D01*
X140527619Y-123902380D01*
X141480000Y-123902380D02*
X141575238Y-123902380D01*
X141670476Y-123950000D01*
X141718095Y-123997619D01*
X141765714Y-124092857D01*
X141813333Y-124283333D01*
X141813333Y-124521428D01*
X141765714Y-124711904D01*
X141718095Y-124807142D01*
X141670476Y-124854761D01*
X141575238Y-124902380D01*
X141480000Y-124902380D01*
X141384761Y-124854761D01*
X141337142Y-124807142D01*
X141289523Y-124711904D01*
X141241904Y-124521428D01*
X141241904Y-124283333D01*
X141289523Y-124092857D01*
X141337142Y-123997619D01*
X141384761Y-123950000D01*
X141480000Y-123902380D01*
X142670476Y-124235714D02*
X142670476Y-124902380D01*
X142241904Y-124235714D02*
X142241904Y-124759523D01*
X142289523Y-124854761D01*
X142384761Y-124902380D01*
X142527619Y-124902380D01*
X142622857Y-124854761D01*
X142670476Y-124807142D01*
X143480000Y-124378571D02*
X143146666Y-124378571D01*
X143146666Y-124902380D02*
X143146666Y-123902380D01*
X143622857Y-123902380D01*
X167102380Y-88381666D02*
X167102380Y-87715000D01*
X168102380Y-88143571D01*
X167102380Y-86857857D02*
X167102380Y-87334047D01*
X167578571Y-87381666D01*
X167530952Y-87334047D01*
X167483333Y-87238809D01*
X167483333Y-87000714D01*
X167530952Y-86905476D01*
X167578571Y-86857857D01*
X167673809Y-86810238D01*
X167911904Y-86810238D01*
X168007142Y-86857857D01*
X168054761Y-86905476D01*
X168102380Y-87000714D01*
X168102380Y-87238809D01*
X168054761Y-87334047D01*
X168007142Y-87381666D01*
X168102380Y-85857857D02*
X168102380Y-86429285D01*
X168102380Y-86143571D02*
X167102380Y-86143571D01*
X167245238Y-86238809D01*
X167340476Y-86334047D01*
X167388095Y-86429285D01*
X167102380Y-85524523D02*
X167102380Y-84857857D01*
X168102380Y-85286428D01*
X167102380Y-84048333D02*
X167102380Y-84238809D01*
X167150000Y-84334047D01*
X167197619Y-84381666D01*
X167340476Y-84476904D01*
X167530952Y-84524523D01*
X167911904Y-84524523D01*
X168007142Y-84476904D01*
X168054761Y-84429285D01*
X168102380Y-84334047D01*
X168102380Y-84143571D01*
X168054761Y-84048333D01*
X168007142Y-84000714D01*
X167911904Y-83953095D01*
X167673809Y-83953095D01*
X167578571Y-84000714D01*
X167530952Y-84048333D01*
X167483333Y-84143571D01*
X167483333Y-84334047D01*
X167530952Y-84429285D01*
X167578571Y-84476904D01*
X167673809Y-84524523D01*
X167816666Y-83572142D02*
X167816666Y-83095952D01*
X168102380Y-83667380D02*
X167102380Y-83334047D01*
X168102380Y-83000714D01*
X120858571Y-98867380D02*
X120287142Y-98867380D01*
X120572857Y-98867380D02*
X120572857Y-97867380D01*
X120477619Y-98010238D01*
X120382380Y-98105476D01*
X120287142Y-98153095D01*
X121477619Y-97867380D02*
X121572857Y-97867380D01*
X121668095Y-97915000D01*
X121715714Y-97962619D01*
X121763333Y-98057857D01*
X121810952Y-98248333D01*
X121810952Y-98486428D01*
X121763333Y-98676904D01*
X121715714Y-98772142D01*
X121668095Y-98819761D01*
X121572857Y-98867380D01*
X121477619Y-98867380D01*
X121382380Y-98819761D01*
X121334761Y-98772142D01*
X121287142Y-98676904D01*
X121239523Y-98486428D01*
X121239523Y-98248333D01*
X121287142Y-98057857D01*
X121334761Y-97962619D01*
X121382380Y-97915000D01*
X121477619Y-97867380D01*
X122668095Y-98200714D02*
X122668095Y-98867380D01*
X122239523Y-98200714D02*
X122239523Y-98724523D01*
X122287142Y-98819761D01*
X122382380Y-98867380D01*
X122525238Y-98867380D01*
X122620476Y-98819761D01*
X122668095Y-98772142D01*
X123477619Y-98343571D02*
X123144285Y-98343571D01*
X123144285Y-98867380D02*
X123144285Y-97867380D01*
X123620476Y-97867380D01*
X139337142Y-94390714D02*
X139337142Y-95057380D01*
X139099047Y-94009761D02*
X138860952Y-94724047D01*
X139480000Y-94724047D01*
X139765714Y-94057380D02*
X140432380Y-94057380D01*
X140003809Y-95057380D01*
X141003809Y-94057380D02*
X141099047Y-94057380D01*
X141194285Y-94105000D01*
X141241904Y-94152619D01*
X141289523Y-94247857D01*
X141337142Y-94438333D01*
X141337142Y-94676428D01*
X141289523Y-94866904D01*
X141241904Y-94962142D01*
X141194285Y-95009761D01*
X141099047Y-95057380D01*
X141003809Y-95057380D01*
X140908571Y-95009761D01*
X140860952Y-94962142D01*
X140813333Y-94866904D01*
X140765714Y-94676428D01*
X140765714Y-94438333D01*
X140813333Y-94247857D01*
X140860952Y-94152619D01*
X140908571Y-94105000D01*
X141003809Y-94057380D01*
X142194285Y-94390714D02*
X142194285Y-95057380D01*
X141765714Y-94390714D02*
X141765714Y-94914523D01*
X141813333Y-95009761D01*
X141908571Y-95057380D01*
X142051428Y-95057380D01*
X142146666Y-95009761D01*
X142194285Y-94962142D01*
X143003809Y-94533571D02*
X142670476Y-94533571D01*
X142670476Y-95057380D02*
X142670476Y-94057380D01*
X143146666Y-94057380D01*
X130851904Y-66212619D02*
X130899523Y-66165000D01*
X130994761Y-66117380D01*
X131232857Y-66117380D01*
X131328095Y-66165000D01*
X131375714Y-66212619D01*
X131423333Y-66307857D01*
X131423333Y-66403095D01*
X131375714Y-66545952D01*
X130804285Y-67117380D01*
X131423333Y-67117380D01*
X131804285Y-66212619D02*
X131851904Y-66165000D01*
X131947142Y-66117380D01*
X132185238Y-66117380D01*
X132280476Y-66165000D01*
X132328095Y-66212619D01*
X132375714Y-66307857D01*
X132375714Y-66403095D01*
X132328095Y-66545952D01*
X131756666Y-67117380D01*
X132375714Y-67117380D01*
X132994761Y-66117380D02*
X133090000Y-66117380D01*
X133185238Y-66165000D01*
X133232857Y-66212619D01*
X133280476Y-66307857D01*
X133328095Y-66498333D01*
X133328095Y-66736428D01*
X133280476Y-66926904D01*
X133232857Y-67022142D01*
X133185238Y-67069761D01*
X133090000Y-67117380D01*
X132994761Y-67117380D01*
X132899523Y-67069761D01*
X132851904Y-67022142D01*
X132804285Y-66926904D01*
X132756666Y-66736428D01*
X132756666Y-66498333D01*
X132804285Y-66307857D01*
X132851904Y-66212619D01*
X132899523Y-66165000D01*
X132994761Y-66117380D01*
D12*
X165880000Y-115119571D02*
X166380000Y-116619571D01*
X166880000Y-115119571D01*
D11*
X147671428Y-75975714D02*
X147671428Y-76642380D01*
X147433333Y-75594761D02*
X147195238Y-76309047D01*
X147814285Y-76309047D01*
X148195238Y-76547142D02*
X148242857Y-76594761D01*
X148195238Y-76642380D01*
X148147619Y-76594761D01*
X148195238Y-76547142D01*
X148195238Y-76642380D01*
X148576190Y-75642380D02*
X149242857Y-75642380D01*
X148814285Y-76642380D01*
X149623809Y-76642380D02*
X149623809Y-75642380D01*
X149719047Y-76261428D02*
X150004761Y-76642380D01*
X150004761Y-75975714D02*
X149623809Y-76356666D01*
D10*
X167065357Y-90499285D02*
X167065357Y-89749285D01*
X167493928Y-90499285D01*
X167493928Y-89749285D01*
X168101071Y-90106428D02*
X167851071Y-90106428D01*
X167851071Y-90499285D02*
X167851071Y-89749285D01*
X168208214Y-89749285D01*
X168493928Y-90106428D02*
X168743928Y-90106428D01*
X168851071Y-90499285D02*
X168493928Y-90499285D01*
X168493928Y-89749285D01*
X168851071Y-89749285D01*
X169065357Y-89749285D02*
X169493928Y-89749285D01*
X169279642Y-90499285D02*
X169279642Y-89749285D01*
X170279642Y-89713571D02*
X169636785Y-90677857D01*
X170529642Y-90499285D02*
X170529642Y-89749285D01*
X170958214Y-90499285D01*
X170958214Y-89749285D01*
X171315357Y-90499285D02*
X171315357Y-89749285D01*
X171601071Y-89749285D01*
X171672500Y-89785000D01*
X171708214Y-89820714D01*
X171743928Y-89892142D01*
X171743928Y-89999285D01*
X171708214Y-90070714D01*
X171672500Y-90106428D01*
X171601071Y-90142142D01*
X171315357Y-90142142D01*
X172065357Y-90499285D02*
X172065357Y-89749285D01*
X172493928Y-90499285D01*
X172493928Y-89749285D01*
D12*
X168042857Y-72900000D02*
X167900000Y-72828571D01*
X167685714Y-72828571D01*
X167471428Y-72900000D01*
X167328571Y-73042857D01*
X167257142Y-73185714D01*
X167185714Y-73471428D01*
X167185714Y-73685714D01*
X167257142Y-73971428D01*
X167328571Y-74114285D01*
X167471428Y-74257142D01*
X167685714Y-74328571D01*
X167828571Y-74328571D01*
X168042857Y-74257142D01*
X168114285Y-74185714D01*
X168114285Y-73685714D01*
X167828571Y-73685714D01*
D11*
X161117380Y-98026047D02*
X161117380Y-98597476D01*
X161117380Y-98311761D02*
X160117380Y-98311761D01*
X160260238Y-98407000D01*
X160355476Y-98502238D01*
X160403095Y-98597476D01*
X161117380Y-97597476D02*
X160117380Y-97597476D01*
X160736428Y-97502238D02*
X161117380Y-97216523D01*
X160450714Y-97216523D02*
X160831666Y-97597476D01*
D12*
X178899428Y-118055000D02*
X178899428Y-117255000D01*
X178899428Y-117655000D02*
X180399428Y-117655000D01*
X180185142Y-117521666D01*
X180042285Y-117388333D01*
X179970857Y-117255000D01*
X180256571Y-118588333D02*
X180328000Y-118655000D01*
X180399428Y-118788333D01*
X180399428Y-119121666D01*
X180328000Y-119255000D01*
X180256571Y-119321666D01*
X180113714Y-119388333D01*
X179970857Y-119388333D01*
X179756571Y-119321666D01*
X178899428Y-118521666D01*
X178899428Y-119388333D01*
X180399428Y-119788333D02*
X178899428Y-120255000D01*
X180399428Y-120721666D01*
X178899428Y-122255000D02*
X180399428Y-122255000D01*
X180399428Y-122788333D01*
X180328000Y-122921666D01*
X180256571Y-122988333D01*
X180113714Y-123055000D01*
X179899428Y-123055000D01*
X179756571Y-122988333D01*
X179685142Y-122921666D01*
X179613714Y-122788333D01*
X179613714Y-122255000D01*
X178899428Y-123855000D02*
X178970857Y-123721666D01*
X179042285Y-123655000D01*
X179185142Y-123588333D01*
X179613714Y-123588333D01*
X179756571Y-123655000D01*
X179828000Y-123721666D01*
X179899428Y-123855000D01*
X179899428Y-124055000D01*
X179828000Y-124188333D01*
X179756571Y-124255000D01*
X179613714Y-124321666D01*
X179185142Y-124321666D01*
X179042285Y-124255000D01*
X178970857Y-124188333D01*
X178899428Y-124055000D01*
X178899428Y-123855000D01*
X179899428Y-124788333D02*
X178899428Y-125055000D01*
X179613714Y-125321666D01*
X178899428Y-125588333D01*
X179899428Y-125855000D01*
X178970857Y-126921666D02*
X178899428Y-126788333D01*
X178899428Y-126521666D01*
X178970857Y-126388333D01*
X179113714Y-126321666D01*
X179685142Y-126321666D01*
X179828000Y-126388333D01*
X179899428Y-126521666D01*
X179899428Y-126788333D01*
X179828000Y-126921666D01*
X179685142Y-126988333D01*
X179542285Y-126988333D01*
X179399428Y-126321666D01*
X178899428Y-127588333D02*
X179899428Y-127588333D01*
X179613714Y-127588333D02*
X179756571Y-127655000D01*
X179828000Y-127721666D01*
X179899428Y-127855000D01*
X179899428Y-127988333D01*
D10*
%TO.C,Q4*%
X163562261Y-109767619D02*
X163467023Y-109720000D01*
X163371785Y-109624761D01*
X163228928Y-109481904D01*
X163133690Y-109434285D01*
X163038452Y-109434285D01*
X163086071Y-109672380D02*
X162990833Y-109624761D01*
X162895595Y-109529523D01*
X162847976Y-109339047D01*
X162847976Y-109005714D01*
X162895595Y-108815238D01*
X162990833Y-108720000D01*
X163086071Y-108672380D01*
X163276547Y-108672380D01*
X163371785Y-108720000D01*
X163467023Y-108815238D01*
X163514642Y-109005714D01*
X163514642Y-109339047D01*
X163467023Y-109529523D01*
X163371785Y-109624761D01*
X163276547Y-109672380D01*
X163086071Y-109672380D01*
X164371785Y-109005714D02*
X164371785Y-109672380D01*
X164133690Y-108624761D02*
X163895595Y-109339047D01*
X164514642Y-109339047D01*
%TO.C,Q3*%
X163562261Y-103417619D02*
X163467023Y-103370000D01*
X163371785Y-103274761D01*
X163228928Y-103131904D01*
X163133690Y-103084285D01*
X163038452Y-103084285D01*
X163086071Y-103322380D02*
X162990833Y-103274761D01*
X162895595Y-103179523D01*
X162847976Y-102989047D01*
X162847976Y-102655714D01*
X162895595Y-102465238D01*
X162990833Y-102370000D01*
X163086071Y-102322380D01*
X163276547Y-102322380D01*
X163371785Y-102370000D01*
X163467023Y-102465238D01*
X163514642Y-102655714D01*
X163514642Y-102989047D01*
X163467023Y-103179523D01*
X163371785Y-103274761D01*
X163276547Y-103322380D01*
X163086071Y-103322380D01*
X163847976Y-102322380D02*
X164467023Y-102322380D01*
X164133690Y-102703333D01*
X164276547Y-102703333D01*
X164371785Y-102750952D01*
X164419404Y-102798571D01*
X164467023Y-102893809D01*
X164467023Y-103131904D01*
X164419404Y-103227142D01*
X164371785Y-103274761D01*
X164276547Y-103322380D01*
X163990833Y-103322380D01*
X163895595Y-103274761D01*
X163847976Y-103227142D01*
%TO.C,Q2*%
X163562261Y-97067619D02*
X163467023Y-97020000D01*
X163371785Y-96924761D01*
X163228928Y-96781904D01*
X163133690Y-96734285D01*
X163038452Y-96734285D01*
X163086071Y-96972380D02*
X162990833Y-96924761D01*
X162895595Y-96829523D01*
X162847976Y-96639047D01*
X162847976Y-96305714D01*
X162895595Y-96115238D01*
X162990833Y-96020000D01*
X163086071Y-95972380D01*
X163276547Y-95972380D01*
X163371785Y-96020000D01*
X163467023Y-96115238D01*
X163514642Y-96305714D01*
X163514642Y-96639047D01*
X163467023Y-96829523D01*
X163371785Y-96924761D01*
X163276547Y-96972380D01*
X163086071Y-96972380D01*
X163895595Y-96067619D02*
X163943214Y-96020000D01*
X164038452Y-95972380D01*
X164276547Y-95972380D01*
X164371785Y-96020000D01*
X164419404Y-96067619D01*
X164467023Y-96162857D01*
X164467023Y-96258095D01*
X164419404Y-96400952D01*
X163847976Y-96972380D01*
X164467023Y-96972380D01*
%TO.C,Q1*%
X163562261Y-90717619D02*
X163467023Y-90670000D01*
X163371785Y-90574761D01*
X163228928Y-90431904D01*
X163133690Y-90384285D01*
X163038452Y-90384285D01*
X163086071Y-90622380D02*
X162990833Y-90574761D01*
X162895595Y-90479523D01*
X162847976Y-90289047D01*
X162847976Y-89955714D01*
X162895595Y-89765238D01*
X162990833Y-89670000D01*
X163086071Y-89622380D01*
X163276547Y-89622380D01*
X163371785Y-89670000D01*
X163467023Y-89765238D01*
X163514642Y-89955714D01*
X163514642Y-90289047D01*
X163467023Y-90479523D01*
X163371785Y-90574761D01*
X163276547Y-90622380D01*
X163086071Y-90622380D01*
X164467023Y-90622380D02*
X163895595Y-90622380D01*
X164181309Y-90622380D02*
X164181309Y-89622380D01*
X164086071Y-89765238D01*
X163990833Y-89860476D01*
X163895595Y-89908095D01*
%TO.C,JP1*%
X174426666Y-112692380D02*
X174426666Y-113406666D01*
X174379047Y-113549523D01*
X174283809Y-113644761D01*
X174140952Y-113692380D01*
X174045714Y-113692380D01*
X174902857Y-113692380D02*
X174902857Y-112692380D01*
X175283809Y-112692380D01*
X175379047Y-112740000D01*
X175426666Y-112787619D01*
X175474285Y-112882857D01*
X175474285Y-113025714D01*
X175426666Y-113120952D01*
X175379047Y-113168571D01*
X175283809Y-113216190D01*
X174902857Y-113216190D01*
X176426666Y-113692380D02*
X175855238Y-113692380D01*
X176140952Y-113692380D02*
X176140952Y-112692380D01*
X176045714Y-112835238D01*
X175950476Y-112930476D01*
X175855238Y-112978095D01*
%TO.C,J5*%
X190996666Y-116257380D02*
X190996666Y-116971666D01*
X190949047Y-117114523D01*
X190853809Y-117209761D01*
X190710952Y-117257380D01*
X190615714Y-117257380D01*
X191949047Y-116257380D02*
X191472857Y-116257380D01*
X191425238Y-116733571D01*
X191472857Y-116685952D01*
X191568095Y-116638333D01*
X191806190Y-116638333D01*
X191901428Y-116685952D01*
X191949047Y-116733571D01*
X191996666Y-116828809D01*
X191996666Y-117066904D01*
X191949047Y-117162142D01*
X191901428Y-117209761D01*
X191806190Y-117257380D01*
X191568095Y-117257380D01*
X191472857Y-117209761D01*
X191425238Y-117162142D01*
%TO.C,R7*%
X142083333Y-81087380D02*
X141750000Y-80611190D01*
X141511904Y-81087380D02*
X141511904Y-80087380D01*
X141892857Y-80087380D01*
X141988095Y-80135000D01*
X142035714Y-80182619D01*
X142083333Y-80277857D01*
X142083333Y-80420714D01*
X142035714Y-80515952D01*
X141988095Y-80563571D01*
X141892857Y-80611190D01*
X141511904Y-80611190D01*
X142416666Y-80087380D02*
X143083333Y-80087380D01*
X142654761Y-81087380D01*
%TO.C,R6*%
X142083333Y-76642380D02*
X141750000Y-76166190D01*
X141511904Y-76642380D02*
X141511904Y-75642380D01*
X141892857Y-75642380D01*
X141988095Y-75690000D01*
X142035714Y-75737619D01*
X142083333Y-75832857D01*
X142083333Y-75975714D01*
X142035714Y-76070952D01*
X141988095Y-76118571D01*
X141892857Y-76166190D01*
X141511904Y-76166190D01*
X142940476Y-75642380D02*
X142750000Y-75642380D01*
X142654761Y-75690000D01*
X142607142Y-75737619D01*
X142511904Y-75880476D01*
X142464285Y-76070952D01*
X142464285Y-76451904D01*
X142511904Y-76547142D01*
X142559523Y-76594761D01*
X142654761Y-76642380D01*
X142845238Y-76642380D01*
X142940476Y-76594761D01*
X142988095Y-76547142D01*
X143035714Y-76451904D01*
X143035714Y-76213809D01*
X142988095Y-76118571D01*
X142940476Y-76070952D01*
X142845238Y-76023333D01*
X142654761Y-76023333D01*
X142559523Y-76070952D01*
X142511904Y-76118571D01*
X142464285Y-76213809D01*
%TO.C,J2*%
X185086666Y-74382380D02*
X185086666Y-75096666D01*
X185039047Y-75239523D01*
X184943809Y-75334761D01*
X184800952Y-75382380D01*
X184705714Y-75382380D01*
X185515238Y-74477619D02*
X185562857Y-74430000D01*
X185658095Y-74382380D01*
X185896190Y-74382380D01*
X185991428Y-74430000D01*
X186039047Y-74477619D01*
X186086666Y-74572857D01*
X186086666Y-74668095D01*
X186039047Y-74810952D01*
X185467619Y-75382380D01*
X186086666Y-75382380D01*
%TO.C,R1*%
X154783333Y-100137380D02*
X154450000Y-99661190D01*
X154211904Y-100137380D02*
X154211904Y-99137380D01*
X154592857Y-99137380D01*
X154688095Y-99185000D01*
X154735714Y-99232619D01*
X154783333Y-99327857D01*
X154783333Y-99470714D01*
X154735714Y-99565952D01*
X154688095Y-99613571D01*
X154592857Y-99661190D01*
X154211904Y-99661190D01*
X155735714Y-100137380D02*
X155164285Y-100137380D01*
X155450000Y-100137380D02*
X155450000Y-99137380D01*
X155354761Y-99280238D01*
X155259523Y-99375476D01*
X155164285Y-99423095D01*
%TO.C,R2*%
X157958333Y-102042380D02*
X157625000Y-101566190D01*
X157386904Y-102042380D02*
X157386904Y-101042380D01*
X157767857Y-101042380D01*
X157863095Y-101090000D01*
X157910714Y-101137619D01*
X157958333Y-101232857D01*
X157958333Y-101375714D01*
X157910714Y-101470952D01*
X157863095Y-101518571D01*
X157767857Y-101566190D01*
X157386904Y-101566190D01*
X158339285Y-101137619D02*
X158386904Y-101090000D01*
X158482142Y-101042380D01*
X158720238Y-101042380D01*
X158815476Y-101090000D01*
X158863095Y-101137619D01*
X158910714Y-101232857D01*
X158910714Y-101328095D01*
X158863095Y-101470952D01*
X158291666Y-102042380D01*
X158910714Y-102042380D01*
%TO.C,C1*%
X125377023Y-119092142D02*
X125329404Y-119139761D01*
X125186547Y-119187380D01*
X125091309Y-119187380D01*
X124948452Y-119139761D01*
X124853214Y-119044523D01*
X124805595Y-118949285D01*
X124757976Y-118758809D01*
X124757976Y-118615952D01*
X124805595Y-118425476D01*
X124853214Y-118330238D01*
X124948452Y-118235000D01*
X125091309Y-118187380D01*
X125186547Y-118187380D01*
X125329404Y-118235000D01*
X125377023Y-118282619D01*
X126329404Y-119187380D02*
X125757976Y-119187380D01*
X126043690Y-119187380D02*
X126043690Y-118187380D01*
X125948452Y-118330238D01*
X125853214Y-118425476D01*
X125757976Y-118473095D01*
%TO.C,H3*%
X169418095Y-128077380D02*
X169418095Y-127077380D01*
X169418095Y-127553571D02*
X169989523Y-127553571D01*
X169989523Y-128077380D02*
X169989523Y-127077380D01*
X170370476Y-127077380D02*
X170989523Y-127077380D01*
X170656190Y-127458333D01*
X170799047Y-127458333D01*
X170894285Y-127505952D01*
X170941904Y-127553571D01*
X170989523Y-127648809D01*
X170989523Y-127886904D01*
X170941904Y-127982142D01*
X170894285Y-128029761D01*
X170799047Y-128077380D01*
X170513333Y-128077380D01*
X170418095Y-128029761D01*
X170370476Y-127982142D01*
%TO.C,H1*%
X124978095Y-62037380D02*
X124978095Y-61037380D01*
X124978095Y-61513571D02*
X125549523Y-61513571D01*
X125549523Y-62037380D02*
X125549523Y-61037380D01*
X126549523Y-62037380D02*
X125978095Y-62037380D01*
X126263809Y-62037380D02*
X126263809Y-61037380D01*
X126168571Y-61180238D01*
X126073333Y-61275476D01*
X125978095Y-61323095D01*
D12*
%TO.C,J1*%
X121108571Y-78595000D02*
X122180000Y-78595000D01*
X122394285Y-78666428D01*
X122537142Y-78809285D01*
X122608571Y-79023571D01*
X122608571Y-79166428D01*
X122608571Y-77095000D02*
X122608571Y-77952142D01*
X122608571Y-77523571D02*
X121108571Y-77523571D01*
X121322857Y-77666428D01*
X121465714Y-77809285D01*
X121537142Y-77952142D01*
X139958571Y-83452142D02*
X138458571Y-83452142D01*
X139530000Y-82952142D01*
X138458571Y-82452142D01*
X139958571Y-82452142D01*
X139958571Y-81737857D02*
X138458571Y-81737857D01*
X139958571Y-81023571D02*
X138458571Y-81023571D01*
X138458571Y-80666428D01*
X138530000Y-80452142D01*
X138672857Y-80309285D01*
X138815714Y-80237857D01*
X139101428Y-80166428D01*
X139315714Y-80166428D01*
X139601428Y-80237857D01*
X139744285Y-80309285D01*
X139887142Y-80452142D01*
X139958571Y-80666428D01*
X139958571Y-81023571D01*
X139958571Y-79523571D02*
X138458571Y-79523571D01*
X139958571Y-77666428D02*
X138458571Y-77666428D01*
X138958571Y-76952142D02*
X139958571Y-76952142D01*
X139101428Y-76952142D02*
X139030000Y-76880714D01*
X138958571Y-76737857D01*
X138958571Y-76523571D01*
X139030000Y-76380714D01*
X139172857Y-76309285D01*
X139958571Y-76309285D01*
X138958571Y-75595000D02*
X140458571Y-75595000D01*
X139030000Y-75595000D02*
X138958571Y-75452142D01*
X138958571Y-75166428D01*
X139030000Y-75023571D01*
X139101428Y-74952142D01*
X139244285Y-74880714D01*
X139672857Y-74880714D01*
X139815714Y-74952142D01*
X139887142Y-75023571D01*
X139958571Y-75166428D01*
X139958571Y-75452142D01*
X139887142Y-75595000D01*
X138958571Y-73595000D02*
X139958571Y-73595000D01*
X138958571Y-74237857D02*
X139744285Y-74237857D01*
X139887142Y-74166428D01*
X139958571Y-74023571D01*
X139958571Y-73809285D01*
X139887142Y-73666428D01*
X139815714Y-73595000D01*
X138958571Y-73095000D02*
X138958571Y-72523571D01*
X138458571Y-72880714D02*
X139744285Y-72880714D01*
X139887142Y-72809285D01*
X139958571Y-72666428D01*
X139958571Y-72523571D01*
D10*
%TO.C,U3*%
X166888095Y-80722380D02*
X166888095Y-81531904D01*
X166935714Y-81627142D01*
X166983333Y-81674761D01*
X167078571Y-81722380D01*
X167269047Y-81722380D01*
X167364285Y-81674761D01*
X167411904Y-81627142D01*
X167459523Y-81531904D01*
X167459523Y-80722380D01*
X167840476Y-80722380D02*
X168459523Y-80722380D01*
X168126190Y-81103333D01*
X168269047Y-81103333D01*
X168364285Y-81150952D01*
X168411904Y-81198571D01*
X168459523Y-81293809D01*
X168459523Y-81531904D01*
X168411904Y-81627142D01*
X168364285Y-81674761D01*
X168269047Y-81722380D01*
X167983333Y-81722380D01*
X167888095Y-81674761D01*
X167840476Y-81627142D01*
%TO.C,R8*%
X142083333Y-85532380D02*
X141750000Y-85056190D01*
X141511904Y-85532380D02*
X141511904Y-84532380D01*
X141892857Y-84532380D01*
X141988095Y-84580000D01*
X142035714Y-84627619D01*
X142083333Y-84722857D01*
X142083333Y-84865714D01*
X142035714Y-84960952D01*
X141988095Y-85008571D01*
X141892857Y-85056190D01*
X141511904Y-85056190D01*
X142654761Y-84960952D02*
X142559523Y-84913333D01*
X142511904Y-84865714D01*
X142464285Y-84770476D01*
X142464285Y-84722857D01*
X142511904Y-84627619D01*
X142559523Y-84580000D01*
X142654761Y-84532380D01*
X142845238Y-84532380D01*
X142940476Y-84580000D01*
X142988095Y-84627619D01*
X143035714Y-84722857D01*
X143035714Y-84770476D01*
X142988095Y-84865714D01*
X142940476Y-84913333D01*
X142845238Y-84960952D01*
X142654761Y-84960952D01*
X142559523Y-85008571D01*
X142511904Y-85056190D01*
X142464285Y-85151428D01*
X142464285Y-85341904D01*
X142511904Y-85437142D01*
X142559523Y-85484761D01*
X142654761Y-85532380D01*
X142845238Y-85532380D01*
X142940476Y-85484761D01*
X142988095Y-85437142D01*
X143035714Y-85341904D01*
X143035714Y-85151428D01*
X142988095Y-85056190D01*
X142940476Y-85008571D01*
X142845238Y-84960952D01*
%TO.C,H2*%
X177038095Y-62037380D02*
X177038095Y-61037380D01*
X177038095Y-61513571D02*
X177609523Y-61513571D01*
X177609523Y-62037380D02*
X177609523Y-61037380D01*
X178038095Y-61132619D02*
X178085714Y-61085000D01*
X178180952Y-61037380D01*
X178419047Y-61037380D01*
X178514285Y-61085000D01*
X178561904Y-61132619D01*
X178609523Y-61227857D01*
X178609523Y-61323095D01*
X178561904Y-61465952D01*
X177990476Y-62037380D01*
X178609523Y-62037380D01*
%TO.C,J3*%
X157156666Y-70562380D02*
X157156666Y-71276666D01*
X157109047Y-71419523D01*
X157013809Y-71514761D01*
X156870952Y-71562380D01*
X156775714Y-71562380D01*
X157537619Y-70562380D02*
X158156666Y-70562380D01*
X157823333Y-70943333D01*
X157966190Y-70943333D01*
X158061428Y-70990952D01*
X158109047Y-71038571D01*
X158156666Y-71133809D01*
X158156666Y-71371904D01*
X158109047Y-71467142D01*
X158061428Y-71514761D01*
X157966190Y-71562380D01*
X157680476Y-71562380D01*
X157585238Y-71514761D01*
X157537619Y-71467142D01*
%TO.C,U2*%
X147848095Y-64212380D02*
X147848095Y-65021904D01*
X147895714Y-65117142D01*
X147943333Y-65164761D01*
X148038571Y-65212380D01*
X148229047Y-65212380D01*
X148324285Y-65164761D01*
X148371904Y-65117142D01*
X148419523Y-65021904D01*
X148419523Y-64212380D01*
X148848095Y-64307619D02*
X148895714Y-64260000D01*
X148990952Y-64212380D01*
X149229047Y-64212380D01*
X149324285Y-64260000D01*
X149371904Y-64307619D01*
X149419523Y-64402857D01*
X149419523Y-64498095D01*
X149371904Y-64640952D01*
X148800476Y-65212380D01*
X149419523Y-65212380D01*
%TO.C,R4*%
X157958333Y-114107380D02*
X157625000Y-113631190D01*
X157386904Y-114107380D02*
X157386904Y-113107380D01*
X157767857Y-113107380D01*
X157863095Y-113155000D01*
X157910714Y-113202619D01*
X157958333Y-113297857D01*
X157958333Y-113440714D01*
X157910714Y-113535952D01*
X157863095Y-113583571D01*
X157767857Y-113631190D01*
X157386904Y-113631190D01*
X158815476Y-113440714D02*
X158815476Y-114107380D01*
X158577380Y-113059761D02*
X158339285Y-113774047D01*
X158958333Y-113774047D01*
%TO.C,C4*%
X140803333Y-122902142D02*
X140755714Y-122949761D01*
X140612857Y-122997380D01*
X140517619Y-122997380D01*
X140374761Y-122949761D01*
X140279523Y-122854523D01*
X140231904Y-122759285D01*
X140184285Y-122568809D01*
X140184285Y-122425952D01*
X140231904Y-122235476D01*
X140279523Y-122140238D01*
X140374761Y-122045000D01*
X140517619Y-121997380D01*
X140612857Y-121997380D01*
X140755714Y-122045000D01*
X140803333Y-122092619D01*
X141660476Y-122330714D02*
X141660476Y-122997380D01*
X141422380Y-121949761D02*
X141184285Y-122664047D01*
X141803333Y-122664047D01*
%TO.C,C2*%
X140813333Y-93057142D02*
X140765714Y-93104761D01*
X140622857Y-93152380D01*
X140527619Y-93152380D01*
X140384761Y-93104761D01*
X140289523Y-93009523D01*
X140241904Y-92914285D01*
X140194285Y-92723809D01*
X140194285Y-92580952D01*
X140241904Y-92390476D01*
X140289523Y-92295238D01*
X140384761Y-92200000D01*
X140527619Y-92152380D01*
X140622857Y-92152380D01*
X140765714Y-92200000D01*
X140813333Y-92247619D01*
X141194285Y-92247619D02*
X141241904Y-92200000D01*
X141337142Y-92152380D01*
X141575238Y-92152380D01*
X141670476Y-92200000D01*
X141718095Y-92247619D01*
X141765714Y-92342857D01*
X141765714Y-92438095D01*
X141718095Y-92580952D01*
X141146666Y-93152380D01*
X141765714Y-93152380D01*
%TO.C,D1*%
X131351904Y-63307380D02*
X131351904Y-62307380D01*
X131590000Y-62307380D01*
X131732857Y-62355000D01*
X131828095Y-62450238D01*
X131875714Y-62545476D01*
X131923333Y-62735952D01*
X131923333Y-62878809D01*
X131875714Y-63069285D01*
X131828095Y-63164523D01*
X131732857Y-63259761D01*
X131590000Y-63307380D01*
X131351904Y-63307380D01*
X132875714Y-63307380D02*
X132304285Y-63307380D01*
X132590000Y-63307380D02*
X132590000Y-62307380D01*
X132494761Y-62450238D01*
X132399523Y-62545476D01*
X132304285Y-62593095D01*
X136273095Y-65212380D02*
X136273095Y-64212380D01*
X136844523Y-65212380D02*
X136415952Y-64640952D01*
X136844523Y-64212380D02*
X136273095Y-64783809D01*
%TO.C,J6*%
X171126666Y-117552380D02*
X171126666Y-118266666D01*
X171079047Y-118409523D01*
X170983809Y-118504761D01*
X170840952Y-118552380D01*
X170745714Y-118552380D01*
X172031428Y-117552380D02*
X171840952Y-117552380D01*
X171745714Y-117600000D01*
X171698095Y-117647619D01*
X171602857Y-117790476D01*
X171555238Y-117980952D01*
X171555238Y-118361904D01*
X171602857Y-118457142D01*
X171650476Y-118504761D01*
X171745714Y-118552380D01*
X171936190Y-118552380D01*
X172031428Y-118504761D01*
X172079047Y-118457142D01*
X172126666Y-118361904D01*
X172126666Y-118123809D01*
X172079047Y-118028571D01*
X172031428Y-117980952D01*
X171936190Y-117933333D01*
X171745714Y-117933333D01*
X171650476Y-117980952D01*
X171602857Y-118028571D01*
X171555238Y-118123809D01*
%TO.C,R9*%
X161133333Y-76007380D02*
X160800000Y-75531190D01*
X160561904Y-76007380D02*
X160561904Y-75007380D01*
X160942857Y-75007380D01*
X161038095Y-75055000D01*
X161085714Y-75102619D01*
X161133333Y-75197857D01*
X161133333Y-75340714D01*
X161085714Y-75435952D01*
X161038095Y-75483571D01*
X160942857Y-75531190D01*
X160561904Y-75531190D01*
X161609523Y-76007380D02*
X161800000Y-76007380D01*
X161895238Y-75959761D01*
X161942857Y-75912142D01*
X162038095Y-75769285D01*
X162085714Y-75578809D01*
X162085714Y-75197857D01*
X162038095Y-75102619D01*
X161990476Y-75055000D01*
X161895238Y-75007380D01*
X161704761Y-75007380D01*
X161609523Y-75055000D01*
X161561904Y-75102619D01*
X161514285Y-75197857D01*
X161514285Y-75435952D01*
X161561904Y-75531190D01*
X161609523Y-75578809D01*
X161704761Y-75626428D01*
X161895238Y-75626428D01*
X161990476Y-75578809D01*
X162038095Y-75531190D01*
X162085714Y-75435952D01*
%TO.C,J4*%
X185086666Y-102322380D02*
X185086666Y-103036666D01*
X185039047Y-103179523D01*
X184943809Y-103274761D01*
X184800952Y-103322380D01*
X184705714Y-103322380D01*
X185991428Y-102655714D02*
X185991428Y-103322380D01*
X185753333Y-102274761D02*
X185515238Y-102989047D01*
X186134285Y-102989047D01*
%TO.C,C3*%
X121763333Y-91152142D02*
X121715714Y-91199761D01*
X121572857Y-91247380D01*
X121477619Y-91247380D01*
X121334761Y-91199761D01*
X121239523Y-91104523D01*
X121191904Y-91009285D01*
X121144285Y-90818809D01*
X121144285Y-90675952D01*
X121191904Y-90485476D01*
X121239523Y-90390238D01*
X121334761Y-90295000D01*
X121477619Y-90247380D01*
X121572857Y-90247380D01*
X121715714Y-90295000D01*
X121763333Y-90342619D01*
X122096666Y-90247380D02*
X122715714Y-90247380D01*
X122382380Y-90628333D01*
X122525238Y-90628333D01*
X122620476Y-90675952D01*
X122668095Y-90723571D01*
X122715714Y-90818809D01*
X122715714Y-91056904D01*
X122668095Y-91152142D01*
X122620476Y-91199761D01*
X122525238Y-91247380D01*
X122239523Y-91247380D01*
X122144285Y-91199761D01*
X122096666Y-91152142D01*
%TO.C,H4*%
X125613095Y-128077380D02*
X125613095Y-127077380D01*
X125613095Y-127553571D02*
X126184523Y-127553571D01*
X126184523Y-128077380D02*
X126184523Y-127077380D01*
X127089285Y-127410714D02*
X127089285Y-128077380D01*
X126851190Y-127029761D02*
X126613095Y-127744047D01*
X127232142Y-127744047D01*
%TO.C,C6*%
X154783333Y-88612142D02*
X154735714Y-88659761D01*
X154592857Y-88707380D01*
X154497619Y-88707380D01*
X154354761Y-88659761D01*
X154259523Y-88564523D01*
X154211904Y-88469285D01*
X154164285Y-88278809D01*
X154164285Y-88135952D01*
X154211904Y-87945476D01*
X154259523Y-87850238D01*
X154354761Y-87755000D01*
X154497619Y-87707380D01*
X154592857Y-87707380D01*
X154735714Y-87755000D01*
X154783333Y-87802619D01*
X155640476Y-87707380D02*
X155450000Y-87707380D01*
X155354761Y-87755000D01*
X155307142Y-87802619D01*
X155211904Y-87945476D01*
X155164285Y-88135952D01*
X155164285Y-88516904D01*
X155211904Y-88612142D01*
X155259523Y-88659761D01*
X155354761Y-88707380D01*
X155545238Y-88707380D01*
X155640476Y-88659761D01*
X155688095Y-88612142D01*
X155735714Y-88516904D01*
X155735714Y-88278809D01*
X155688095Y-88183571D01*
X155640476Y-88135952D01*
X155545238Y-88088333D01*
X155354761Y-88088333D01*
X155259523Y-88135952D01*
X155211904Y-88183571D01*
X155164285Y-88278809D01*
%TO.C,R3*%
X154783333Y-112202380D02*
X154450000Y-111726190D01*
X154211904Y-112202380D02*
X154211904Y-111202380D01*
X154592857Y-111202380D01*
X154688095Y-111250000D01*
X154735714Y-111297619D01*
X154783333Y-111392857D01*
X154783333Y-111535714D01*
X154735714Y-111630952D01*
X154688095Y-111678571D01*
X154592857Y-111726190D01*
X154211904Y-111726190D01*
X155116666Y-111202380D02*
X155735714Y-111202380D01*
X155402380Y-111583333D01*
X155545238Y-111583333D01*
X155640476Y-111630952D01*
X155688095Y-111678571D01*
X155735714Y-111773809D01*
X155735714Y-112011904D01*
X155688095Y-112107142D01*
X155640476Y-112154761D01*
X155545238Y-112202380D01*
X155259523Y-112202380D01*
X155164285Y-112154761D01*
X155116666Y-112107142D01*
%TO.C,C5*%
X154783333Y-80992142D02*
X154735714Y-81039761D01*
X154592857Y-81087380D01*
X154497619Y-81087380D01*
X154354761Y-81039761D01*
X154259523Y-80944523D01*
X154211904Y-80849285D01*
X154164285Y-80658809D01*
X154164285Y-80515952D01*
X154211904Y-80325476D01*
X154259523Y-80230238D01*
X154354761Y-80135000D01*
X154497619Y-80087380D01*
X154592857Y-80087380D01*
X154735714Y-80135000D01*
X154783333Y-80182619D01*
X155688095Y-80087380D02*
X155211904Y-80087380D01*
X155164285Y-80563571D01*
X155211904Y-80515952D01*
X155307142Y-80468333D01*
X155545238Y-80468333D01*
X155640476Y-80515952D01*
X155688095Y-80563571D01*
X155735714Y-80658809D01*
X155735714Y-80896904D01*
X155688095Y-80992142D01*
X155640476Y-81039761D01*
X155545238Y-81087380D01*
X155307142Y-81087380D01*
X155211904Y-81039761D01*
X155164285Y-80992142D01*
%TO.C,R5*%
X138273333Y-67117380D02*
X137940000Y-66641190D01*
X137701904Y-67117380D02*
X137701904Y-66117380D01*
X138082857Y-66117380D01*
X138178095Y-66165000D01*
X138225714Y-66212619D01*
X138273333Y-66307857D01*
X138273333Y-66450714D01*
X138225714Y-66545952D01*
X138178095Y-66593571D01*
X138082857Y-66641190D01*
X137701904Y-66641190D01*
X139178095Y-66117380D02*
X138701904Y-66117380D01*
X138654285Y-66593571D01*
X138701904Y-66545952D01*
X138797142Y-66498333D01*
X139035238Y-66498333D01*
X139130476Y-66545952D01*
X139178095Y-66593571D01*
X139225714Y-66688809D01*
X139225714Y-66926904D01*
X139178095Y-67022142D01*
X139130476Y-67069761D01*
X139035238Y-67117380D01*
X138797142Y-67117380D01*
X138701904Y-67069761D01*
X138654285Y-67022142D01*
%TO.C,U1*%
X121382380Y-109336904D02*
X122191904Y-109336904D01*
X122287142Y-109289285D01*
X122334761Y-109241666D01*
X122382380Y-109146428D01*
X122382380Y-108955952D01*
X122334761Y-108860714D01*
X122287142Y-108813095D01*
X122191904Y-108765476D01*
X121382380Y-108765476D01*
X122382380Y-107765476D02*
X122382380Y-108336904D01*
X122382380Y-108051190D02*
X121382380Y-108051190D01*
X121525238Y-108146428D01*
X121620476Y-108241666D01*
X121668095Y-108336904D01*
D13*
%TO.C,Q4*%
X162520000Y-110014000D02*
X172760000Y-110014000D01*
X165790000Y-110014000D02*
X165790000Y-111524000D01*
X169491000Y-110014000D02*
X169491000Y-111524000D01*
X162520000Y-110014000D02*
X162520000Y-114655000D01*
X162520000Y-114655000D02*
X172760000Y-114655000D01*
X172760000Y-110014000D02*
X172760000Y-114655000D01*
X162520000Y-111524000D02*
X172760000Y-111524000D01*
%TO.C,Q3*%
X162520000Y-103664000D02*
X172760000Y-103664000D01*
X165790000Y-103664000D02*
X165790000Y-105174000D01*
X169491000Y-103664000D02*
X169491000Y-105174000D01*
X162520000Y-103664000D02*
X162520000Y-108305000D01*
X162520000Y-108305000D02*
X172760000Y-108305000D01*
X172760000Y-103664000D02*
X172760000Y-108305000D01*
X162520000Y-105174000D02*
X172760000Y-105174000D01*
%TO.C,Q2*%
X162520000Y-97314000D02*
X172760000Y-97314000D01*
X165790000Y-97314000D02*
X165790000Y-98824000D01*
X169491000Y-97314000D02*
X169491000Y-98824000D01*
X162520000Y-97314000D02*
X162520000Y-101955000D01*
X162520000Y-101955000D02*
X172760000Y-101955000D01*
X172760000Y-97314000D02*
X172760000Y-101955000D01*
X162520000Y-98824000D02*
X172760000Y-98824000D01*
%TO.C,Q1*%
X162520000Y-90964000D02*
X172760000Y-90964000D01*
X165790000Y-90964000D02*
X165790000Y-92474000D01*
X169491000Y-90964000D02*
X169491000Y-92474000D01*
X162520000Y-90964000D02*
X162520000Y-95605000D01*
X162520000Y-95605000D02*
X172760000Y-95605000D01*
X172760000Y-90964000D02*
X172760000Y-95605000D01*
X162520000Y-92474000D02*
X172760000Y-92474000D01*
%TO.C,JP1*%
X173930000Y-115570000D02*
X173930000Y-114240000D01*
X173930000Y-119440000D02*
X176590000Y-119440000D01*
X173930000Y-116840000D02*
X173930000Y-119440000D01*
X173930000Y-116840000D02*
X176590000Y-116840000D01*
X173930000Y-114240000D02*
X175260000Y-114240000D01*
X176590000Y-116840000D02*
X176590000Y-119440000D01*
%TO.C,J5*%
X182830000Y-127355000D02*
X181780000Y-127355000D01*
X181780000Y-126305000D02*
X181780000Y-127355000D01*
X187880000Y-117955000D02*
X196680000Y-117955000D01*
X181980000Y-127155000D02*
X181980000Y-124555000D01*
X181980000Y-120655000D02*
X181980000Y-117955000D01*
X181980000Y-117955000D02*
X183880000Y-117955000D01*
X196680000Y-117955000D02*
X196680000Y-127155000D01*
X196680000Y-127155000D02*
X181980000Y-127155000D01*
%TO.C,R7*%
X145330000Y-82005000D02*
X151870000Y-82005000D01*
X151870000Y-79265000D02*
X151870000Y-79595000D01*
X145330000Y-79265000D02*
X151870000Y-79265000D01*
X145330000Y-79595000D02*
X145330000Y-79265000D01*
X151870000Y-82005000D02*
X151870000Y-81675000D01*
X145330000Y-81675000D02*
X145330000Y-82005000D01*
%TO.C,R6*%
X151870000Y-74820000D02*
X151870000Y-75150000D01*
X145330000Y-77230000D02*
X145330000Y-77560000D01*
X145330000Y-77560000D02*
X151870000Y-77560000D01*
X145330000Y-74820000D02*
X151870000Y-74820000D01*
X145330000Y-75150000D02*
X145330000Y-74820000D01*
X151870000Y-77560000D02*
X151870000Y-77230000D01*
%TO.C,J2*%
X193940000Y-63810000D02*
X196640000Y-63810000D01*
X193940000Y-86050000D02*
X193940000Y-87550000D01*
X181700000Y-83050000D02*
X181700000Y-85800000D01*
X181700000Y-83050000D02*
X174200000Y-83050000D01*
X181700000Y-64060000D02*
X181700000Y-66810000D01*
X187200000Y-64060000D02*
X181700000Y-64060000D01*
X193940000Y-62310000D02*
X187200000Y-62310000D01*
X174200000Y-66810000D02*
X174200000Y-83050000D01*
X196640000Y-63810000D02*
X196640000Y-86050000D01*
X193940000Y-62310000D02*
X193940000Y-63810000D01*
X193940000Y-87550000D02*
X187200000Y-87550000D01*
X187200000Y-64060000D02*
X187200000Y-62310000D01*
X181700000Y-66810000D02*
X174200000Y-66810000D01*
X187200000Y-87550000D02*
X187200000Y-85800000D01*
X193940000Y-86050000D02*
X196640000Y-86050000D01*
X187200000Y-85800000D02*
X181700000Y-85800000D01*
%TO.C,R1*%
X158860000Y-99145000D02*
X158860000Y-92605000D01*
X156120000Y-99145000D02*
X156120000Y-92605000D01*
X158860000Y-92605000D02*
X158530000Y-92605000D01*
X156120000Y-92605000D02*
X156450000Y-92605000D01*
X156450000Y-99145000D02*
X156120000Y-99145000D01*
X158530000Y-99145000D02*
X158860000Y-99145000D01*
%TO.C,R2*%
X159295000Y-94637000D02*
X159625000Y-94637000D01*
X159625000Y-101177000D02*
X159295000Y-101177000D01*
X159295000Y-101177000D02*
X159295000Y-94637000D01*
X162035000Y-101177000D02*
X162035000Y-94637000D01*
X161705000Y-101177000D02*
X162035000Y-101177000D01*
X162035000Y-94637000D02*
X161705000Y-94637000D01*
%TO.C,C1*%
X124050000Y-118705000D02*
X124050000Y-118000000D01*
X119810000Y-120740000D02*
X119810000Y-120035000D01*
X124050000Y-120740000D02*
X124050000Y-120035000D01*
X124050000Y-120740000D02*
X119810000Y-120740000D01*
X124050000Y-118000000D02*
X119810000Y-118000000D01*
X119810000Y-118705000D02*
X119810000Y-118000000D01*
D14*
%TO.C,J1*%
X137779600Y-69596160D02*
X137779600Y-72095520D01*
X137279220Y-80093980D02*
X135280240Y-80093980D01*
X118780400Y-87094220D02*
X118780400Y-67594640D01*
X119280780Y-88595360D02*
X119280780Y-87094220D01*
X137779600Y-76593860D02*
X137779600Y-79596140D01*
X120279000Y-69596160D02*
X119781160Y-69596160D01*
X118780400Y-67594640D02*
X119280780Y-67594640D01*
X137779600Y-79596140D02*
X137279220Y-80093980D01*
X137779600Y-76593860D02*
X137279220Y-76096020D01*
X135280240Y-83594100D02*
X135280240Y-80093980D01*
X137779600Y-84094480D02*
X137279220Y-83594100D01*
X137279220Y-87094220D02*
X120279000Y-87094220D01*
X137279220Y-83594100D02*
X135280240Y-83594100D01*
X137279220Y-69095780D02*
X137779600Y-69596160D01*
X119781160Y-86593840D02*
X120279000Y-86593840D01*
X119529700Y-69095780D02*
X119529700Y-88595360D01*
X119029320Y-67594640D02*
X119029320Y-87094220D01*
X137279220Y-76096020D02*
X135280240Y-76096020D01*
X137779600Y-72095520D02*
X137279220Y-72595900D01*
X137779600Y-84594860D02*
X137779600Y-84094480D01*
X137279220Y-87094220D02*
X137779600Y-86593840D01*
X137279220Y-69095780D02*
X120279000Y-69095780D01*
X119280780Y-69095780D02*
X119781160Y-69095780D01*
X137779600Y-86593840D02*
X137779600Y-84594860D01*
X119781160Y-69095780D02*
X119781160Y-88595360D01*
X120279000Y-87094220D02*
X120279000Y-86593840D01*
X119280780Y-67594640D02*
X119280780Y-69095780D01*
X119781160Y-88595360D02*
X119280780Y-88595360D01*
X119280780Y-87094220D02*
X119280780Y-69095780D01*
X135280240Y-72595900D02*
X135280240Y-76096020D01*
X119280780Y-87094220D02*
X118780400Y-87094220D01*
X137279220Y-72595900D02*
X135280240Y-72595900D01*
X120279000Y-69095780D02*
X120279000Y-69596160D01*
D13*
%TO.C,U3*%
X162410000Y-89020000D02*
X172910000Y-89020000D01*
X166660000Y-78680000D02*
X165410000Y-78680000D01*
X169910000Y-78680000D02*
X168660000Y-78680000D01*
X165410000Y-78680000D02*
X165410000Y-88960000D01*
X172910000Y-78620000D02*
X162410000Y-78620000D01*
X172910000Y-89020000D02*
X172910000Y-78620000D01*
X169910000Y-88960000D02*
X169910000Y-78680000D01*
X162410000Y-78620000D02*
X162410000Y-89020000D01*
X165410000Y-88960000D02*
X169910000Y-88960000D01*
X166660000Y-78680000D02*
G75*
G03*
X168660000Y-78680000I1000000J0D01*
G01*
%TO.C,R8*%
X145330000Y-83710000D02*
X145330000Y-84040000D01*
X151870000Y-83710000D02*
X145330000Y-83710000D01*
X151870000Y-86120000D02*
X151870000Y-86450000D01*
X151870000Y-86450000D02*
X145330000Y-86450000D01*
X145330000Y-86450000D02*
X145330000Y-86120000D01*
X151870000Y-84040000D02*
X151870000Y-83710000D01*
%TO.C,J3*%
X168040000Y-69997071D02*
X168040000Y-69600000D01*
X162960000Y-69997071D02*
X162960000Y-69600000D01*
X168990000Y-69600000D02*
X168990000Y-66940000D01*
X167280000Y-60940000D02*
X168040000Y-60940000D01*
X160080000Y-66940000D02*
X160080000Y-60940000D01*
X164740000Y-69997071D02*
X164740000Y-69600000D01*
X160420000Y-69930000D02*
X160420000Y-69600000D01*
X161310000Y-69600000D02*
X161310000Y-66940000D01*
X166390000Y-69600000D02*
X166390000Y-66940000D01*
X158710000Y-69600000D02*
X168990000Y-69600000D01*
X160420000Y-60940000D02*
X160420000Y-66940000D01*
X160200000Y-66940000D02*
X160200000Y-60940000D01*
X165500000Y-69997071D02*
X165500000Y-69600000D01*
X163850000Y-69600000D02*
X163850000Y-66940000D01*
X162200000Y-69997071D02*
X162200000Y-69600000D01*
X160040000Y-72310000D02*
X158770000Y-72310000D01*
X159840000Y-66940000D02*
X159840000Y-60940000D01*
X164740000Y-66940000D02*
X164740000Y-60940000D01*
X168990000Y-66940000D02*
X158710000Y-66940000D01*
X162200000Y-60940000D02*
X162960000Y-60940000D01*
X167280000Y-66940000D02*
X167280000Y-60940000D01*
X160320000Y-66940000D02*
X160320000Y-60940000D01*
X165500000Y-60940000D02*
X165500000Y-66940000D01*
X158710000Y-66940000D02*
X158710000Y-69600000D01*
X168040000Y-60940000D02*
X168040000Y-66940000D01*
X162200000Y-66940000D02*
X162200000Y-60940000D01*
X158770000Y-72310000D02*
X158770000Y-71040000D01*
X164740000Y-60940000D02*
X165500000Y-60940000D01*
X167280000Y-69997071D02*
X167280000Y-69600000D01*
X159960000Y-66940000D02*
X159960000Y-60940000D01*
X159660000Y-69930000D02*
X159660000Y-69600000D01*
X159660000Y-66940000D02*
X159660000Y-60940000D01*
X162960000Y-60940000D02*
X162960000Y-66940000D01*
X159660000Y-60940000D02*
X160420000Y-60940000D01*
X159720000Y-66940000D02*
X159720000Y-60940000D01*
%TO.C,U2*%
X143360000Y-62110000D02*
X143360000Y-72510000D01*
X150860000Y-72450000D02*
X150860000Y-62170000D01*
X153860000Y-72510000D02*
X153860000Y-62110000D01*
X146360000Y-62170000D02*
X146360000Y-72450000D01*
X153860000Y-62110000D02*
X143360000Y-62110000D01*
X150860000Y-62170000D02*
X149610000Y-62170000D01*
X146360000Y-72450000D02*
X150860000Y-72450000D01*
X147610000Y-62170000D02*
X146360000Y-62170000D01*
X143360000Y-72510000D02*
X153860000Y-72510000D01*
X147610000Y-62170000D02*
G75*
G03*
X149610000Y-62170000I1000000J0D01*
G01*
%TO.C,R4*%
X162035000Y-106575000D02*
X162035000Y-113115000D01*
X161705000Y-106575000D02*
X162035000Y-106575000D01*
X162035000Y-113115000D02*
X161705000Y-113115000D01*
X159625000Y-106575000D02*
X159295000Y-106575000D01*
X159295000Y-113115000D02*
X159625000Y-113115000D01*
X159295000Y-106575000D02*
X159295000Y-113115000D01*
%TO.C,C4*%
X153190000Y-125780000D02*
X151390000Y-125780000D01*
X148390000Y-127400000D02*
X147490000Y-128300000D01*
X147490000Y-118060000D02*
X130850000Y-118060000D01*
X130850000Y-128300000D02*
X130850000Y-118060000D01*
X129410000Y-123180000D02*
X130850000Y-123180000D01*
X152530000Y-123180000D02*
X151090000Y-123180000D01*
X148390000Y-118960000D02*
X147490000Y-118060000D01*
X152290000Y-126680000D02*
X152290000Y-124880000D01*
X149290000Y-128300000D02*
X148390000Y-127400000D01*
X151090000Y-128300000D02*
X149290000Y-128300000D01*
X149290000Y-118060000D02*
X148390000Y-118960000D01*
X147490000Y-128300000D02*
X130850000Y-128300000D01*
X151090000Y-128300000D02*
X151090000Y-118060000D01*
X151090000Y-118060000D02*
X149290000Y-118060000D01*
%TO.C,C2*%
X151100000Y-88215000D02*
X151100000Y-98455000D01*
X133560000Y-97555000D02*
X134460000Y-98455000D01*
X130860000Y-88215000D02*
X130860000Y-98455000D01*
X128760000Y-90735000D02*
X130560000Y-90735000D01*
X129660000Y-89835000D02*
X129660000Y-91635000D01*
X133560000Y-89115000D02*
X134460000Y-88215000D01*
X129420000Y-93335000D02*
X130860000Y-93335000D01*
X134460000Y-98455000D02*
X151100000Y-98455000D01*
X132660000Y-98455000D02*
X133560000Y-97555000D01*
X134460000Y-88215000D02*
X151100000Y-88215000D01*
X130860000Y-88215000D02*
X132660000Y-88215000D01*
X130860000Y-98455000D02*
X132660000Y-98455000D01*
X152540000Y-93335000D02*
X151100000Y-93335000D01*
X132660000Y-88215000D02*
X133560000Y-89115000D01*
%TO.C,D1*%
X133490000Y-63975000D02*
X133490000Y-61735000D01*
X134210000Y-63975000D02*
X134210000Y-61735000D01*
X129970000Y-63975000D02*
X134210000Y-63975000D01*
X129970000Y-61735000D02*
X129970000Y-63975000D01*
X133370000Y-63975000D02*
X133370000Y-61735000D01*
X129320000Y-62855000D02*
X129970000Y-62855000D01*
X134860000Y-62855000D02*
X134210000Y-62855000D01*
X133610000Y-63975000D02*
X133610000Y-61735000D01*
X134210000Y-61735000D02*
X129970000Y-61735000D01*
%TO.C,J6*%
X161675000Y-122270000D02*
X161675000Y-128270000D01*
X168875000Y-122270000D02*
X168875000Y-128270000D01*
X165105000Y-119610000D02*
X165105000Y-122270000D01*
X169295000Y-122270000D02*
X169295000Y-128270000D01*
X161675000Y-128270000D02*
X160915000Y-128270000D01*
X160025000Y-119610000D02*
X160025000Y-122270000D01*
X157425000Y-119610000D02*
X157425000Y-122270000D01*
X162565000Y-119610000D02*
X162565000Y-122270000D01*
X169235000Y-122270000D02*
X169235000Y-128270000D01*
X159135000Y-119212929D02*
X159135000Y-119610000D01*
X157425000Y-122270000D02*
X170245000Y-122270000D01*
X165995000Y-119212929D02*
X165995000Y-119610000D01*
X164215000Y-119212929D02*
X164215000Y-119610000D01*
X160915000Y-119212929D02*
X160915000Y-119610000D01*
X168915000Y-116900000D02*
X170185000Y-116900000D01*
X158375000Y-128270000D02*
X158375000Y-122270000D01*
X164215000Y-128270000D02*
X163455000Y-128270000D01*
X164215000Y-122270000D02*
X164215000Y-128270000D01*
X169115000Y-122270000D02*
X169115000Y-128270000D01*
X160915000Y-128270000D02*
X160915000Y-122270000D01*
X163455000Y-128270000D02*
X163455000Y-122270000D01*
X170245000Y-122270000D02*
X170245000Y-119610000D01*
X170185000Y-116900000D02*
X170185000Y-118170000D01*
X168755000Y-122270000D02*
X168755000Y-128270000D01*
X166755000Y-122270000D02*
X166755000Y-128270000D01*
X168535000Y-119280000D02*
X168535000Y-119610000D01*
X159135000Y-128270000D02*
X158375000Y-128270000D01*
X159135000Y-122270000D02*
X159135000Y-128270000D01*
X165995000Y-128270000D02*
X165995000Y-122270000D01*
X161675000Y-119212929D02*
X161675000Y-119610000D01*
X166755000Y-128270000D02*
X165995000Y-128270000D01*
X169295000Y-128270000D02*
X168535000Y-128270000D01*
X168995000Y-122270000D02*
X168995000Y-128270000D01*
X163455000Y-119212929D02*
X163455000Y-119610000D01*
X168535000Y-128270000D02*
X168535000Y-122270000D01*
X167645000Y-119610000D02*
X167645000Y-122270000D01*
X158375000Y-119212929D02*
X158375000Y-119610000D01*
X169295000Y-119280000D02*
X169295000Y-119610000D01*
X170245000Y-119610000D02*
X157425000Y-119610000D01*
X166755000Y-119212929D02*
X166755000Y-119610000D01*
X168635000Y-122270000D02*
X168635000Y-128270000D01*
%TO.C,R9*%
X170920000Y-74820000D02*
X170920000Y-75150000D01*
X164380000Y-77560000D02*
X170920000Y-77560000D01*
X164380000Y-75150000D02*
X164380000Y-74820000D01*
X164380000Y-77230000D02*
X164380000Y-77560000D01*
X170920000Y-77560000D02*
X170920000Y-77230000D01*
X164380000Y-74820000D02*
X170920000Y-74820000D01*
%TO.C,J4*%
X181700000Y-110990000D02*
X181700000Y-113740000D01*
X174200000Y-94750000D02*
X174200000Y-110990000D01*
X193940000Y-90250000D02*
X193940000Y-91750000D01*
X181700000Y-92000000D02*
X181700000Y-94750000D01*
X196640000Y-91750000D02*
X196640000Y-113990000D01*
X193940000Y-113990000D02*
X193940000Y-115490000D01*
X193940000Y-90250000D02*
X187200000Y-90250000D01*
X187200000Y-92000000D02*
X181700000Y-92000000D01*
X181700000Y-94750000D02*
X174200000Y-94750000D01*
X193940000Y-91750000D02*
X196640000Y-91750000D01*
X187200000Y-92000000D02*
X187200000Y-90250000D01*
X193940000Y-113990000D02*
X196640000Y-113990000D01*
X193940000Y-115490000D02*
X187200000Y-115490000D01*
X187200000Y-113740000D02*
X181700000Y-113740000D01*
X181700000Y-110990000D02*
X174200000Y-110990000D01*
X187200000Y-115490000D02*
X187200000Y-113740000D01*
%TO.C,C3*%
X122970000Y-92664000D02*
X123629000Y-92664000D01*
X119351000Y-94545000D02*
X124509000Y-94545000D01*
X119352000Y-94505000D02*
X124508000Y-94505000D01*
X120231000Y-92664000D02*
X120890000Y-92664000D01*
X122970000Y-92904000D02*
X123867000Y-92904000D01*
X122970000Y-93904000D02*
X124410000Y-93904000D01*
X119387000Y-94185000D02*
X120890000Y-94185000D01*
X120455000Y-97429775D02*
X120455000Y-96929775D01*
X119865000Y-93064000D02*
X120890000Y-93064000D01*
X122970000Y-93544000D02*
X124278000Y-93544000D01*
X122970000Y-93184000D02*
X124079000Y-93184000D01*
X120430000Y-92504000D02*
X120890000Y-92504000D01*
X119582000Y-93544000D02*
X120890000Y-93544000D01*
X122970000Y-93624000D02*
X124312000Y-93624000D01*
X122970000Y-93384000D02*
X124198000Y-93384000D01*
X119730000Y-93264000D02*
X120890000Y-93264000D01*
X120205000Y-97179775D02*
X120705000Y-97179775D01*
X120487000Y-92464000D02*
X120890000Y-92464000D01*
X119374000Y-94265000D02*
X120890000Y-94265000D01*
X122970000Y-94265000D02*
X124486000Y-94265000D01*
X119895000Y-93024000D02*
X120890000Y-93024000D01*
X122970000Y-93704000D02*
X124344000Y-93704000D01*
X119620000Y-93464000D02*
X120890000Y-93464000D01*
X122970000Y-93784000D02*
X124372000Y-93784000D01*
X120832000Y-92264000D02*
X123028000Y-92264000D01*
X119781000Y-93184000D02*
X120890000Y-93184000D01*
X121646000Y-92024000D02*
X122214000Y-92024000D01*
X119683000Y-93344000D02*
X120890000Y-93344000D01*
X122970000Y-93144000D02*
X124052000Y-93144000D01*
X122970000Y-93264000D02*
X124130000Y-93264000D01*
X119410000Y-94065000D02*
X120890000Y-94065000D01*
X120104000Y-92784000D02*
X120890000Y-92784000D01*
X122970000Y-93985000D02*
X124431000Y-93985000D01*
X120277000Y-92624000D02*
X120890000Y-92624000D01*
X122970000Y-93664000D02*
X124328000Y-93664000D01*
X122970000Y-93824000D02*
X124385000Y-93824000D01*
X122970000Y-93464000D02*
X124240000Y-93464000D01*
X119835000Y-93104000D02*
X120890000Y-93104000D01*
X119369000Y-94305000D02*
X120890000Y-94305000D01*
X122970000Y-93024000D02*
X123965000Y-93024000D01*
X122970000Y-93504000D02*
X124259000Y-93504000D01*
X119488000Y-93784000D02*
X120890000Y-93784000D01*
X119706000Y-93304000D02*
X120890000Y-93304000D01*
X121015000Y-92184000D02*
X122845000Y-92184000D01*
X119350000Y-94625000D02*
X124510000Y-94625000D01*
X122970000Y-92864000D02*
X123831000Y-92864000D01*
X119475000Y-93824000D02*
X120890000Y-93824000D01*
X122970000Y-93104000D02*
X124025000Y-93104000D01*
X122970000Y-94305000D02*
X124491000Y-94305000D01*
X122970000Y-92464000D02*
X123373000Y-92464000D01*
X122970000Y-94345000D02*
X124495000Y-94345000D01*
X122970000Y-93304000D02*
X124154000Y-93304000D01*
X120187000Y-92704000D02*
X120890000Y-92704000D01*
X122970000Y-92344000D02*
X123181000Y-92344000D01*
X122970000Y-93424000D02*
X124220000Y-93424000D01*
X122970000Y-94025000D02*
X124441000Y-94025000D01*
X122970000Y-92704000D02*
X123673000Y-92704000D01*
X121125000Y-92144000D02*
X122735000Y-92144000D01*
X120325000Y-92584000D02*
X120890000Y-92584000D01*
X119640000Y-93424000D02*
X120890000Y-93424000D01*
X122970000Y-92504000D02*
X123430000Y-92504000D01*
X119959000Y-92944000D02*
X120890000Y-92944000D01*
X122970000Y-93945000D02*
X124421000Y-93945000D01*
X120919000Y-92224000D02*
X122941000Y-92224000D01*
X119662000Y-93384000D02*
X120890000Y-93384000D01*
X119502000Y-93744000D02*
X120890000Y-93744000D01*
X119926000Y-92984000D02*
X120890000Y-92984000D01*
X122970000Y-94385000D02*
X124499000Y-94385000D01*
X122970000Y-92744000D02*
X123715000Y-92744000D01*
X122970000Y-94185000D02*
X124473000Y-94185000D01*
X119532000Y-93664000D02*
X120890000Y-93664000D01*
X122970000Y-93584000D02*
X124295000Y-93584000D01*
X119439000Y-93945000D02*
X120890000Y-93945000D01*
X119516000Y-93704000D02*
X120890000Y-93704000D01*
X119601000Y-93504000D02*
X120890000Y-93504000D01*
X122970000Y-94225000D02*
X124480000Y-94225000D01*
X122970000Y-92624000D02*
X123583000Y-92624000D01*
X122970000Y-93344000D02*
X124177000Y-93344000D01*
X122970000Y-94145000D02*
X124466000Y-94145000D01*
X119380000Y-94225000D02*
X120890000Y-94225000D01*
X119755000Y-93224000D02*
X120890000Y-93224000D01*
X122970000Y-93744000D02*
X124358000Y-93744000D01*
X122970000Y-92784000D02*
X123756000Y-92784000D01*
X121412000Y-92064000D02*
X122448000Y-92064000D01*
X119394000Y-94145000D02*
X120890000Y-94145000D01*
X122970000Y-92544000D02*
X123484000Y-92544000D01*
X122970000Y-92424000D02*
X123313000Y-92424000D01*
X120679000Y-92344000D02*
X120890000Y-92344000D01*
X122970000Y-92824000D02*
X123794000Y-92824000D01*
X122970000Y-92984000D02*
X123934000Y-92984000D01*
X120066000Y-92824000D02*
X120890000Y-92824000D01*
X119808000Y-93144000D02*
X120890000Y-93144000D01*
X120145000Y-92744000D02*
X120890000Y-92744000D01*
X119993000Y-92904000D02*
X120890000Y-92904000D01*
X119548000Y-93624000D02*
X120890000Y-93624000D01*
X122970000Y-93864000D02*
X124398000Y-93864000D01*
X120611000Y-92384000D02*
X120890000Y-92384000D01*
X122970000Y-93064000D02*
X123995000Y-93064000D01*
X122970000Y-94065000D02*
X124450000Y-94065000D01*
X119450000Y-93904000D02*
X120890000Y-93904000D01*
X119357000Y-94425000D02*
X124503000Y-94425000D01*
X122970000Y-93224000D02*
X124105000Y-93224000D01*
X122970000Y-92384000D02*
X123249000Y-92384000D01*
X122970000Y-92584000D02*
X123535000Y-92584000D01*
X120547000Y-92424000D02*
X120890000Y-92424000D01*
X119402000Y-94105000D02*
X120890000Y-94105000D01*
X122970000Y-92944000D02*
X123901000Y-92944000D01*
X120376000Y-92544000D02*
X120890000Y-92544000D01*
X119365000Y-94345000D02*
X120890000Y-94345000D01*
X119354000Y-94465000D02*
X124506000Y-94465000D01*
X119565000Y-93584000D02*
X120890000Y-93584000D01*
X119462000Y-93864000D02*
X120890000Y-93864000D01*
X119429000Y-93985000D02*
X120890000Y-93985000D01*
X119350000Y-94585000D02*
X124510000Y-94585000D01*
X121253000Y-92104000D02*
X122607000Y-92104000D01*
X122970000Y-94105000D02*
X124458000Y-94105000D01*
X119361000Y-94385000D02*
X120890000Y-94385000D01*
X119419000Y-94025000D02*
X120890000Y-94025000D01*
X120752000Y-92304000D02*
X123108000Y-92304000D01*
X120029000Y-92864000D02*
X120890000Y-92864000D01*
X124550000Y-94625000D02*
G75*
G03*
X124550000Y-94625000I-2620000J0D01*
G01*
%TO.C,C6*%
X157745000Y-84675000D02*
X157745000Y-83165000D01*
X157705000Y-88258000D02*
X157705000Y-86755000D01*
X156344000Y-84675000D02*
X156344000Y-83851000D01*
X155824000Y-86893000D02*
X155824000Y-84537000D01*
X157184000Y-88113000D02*
X157184000Y-86755000D01*
X156864000Y-87962000D02*
X156864000Y-86755000D01*
X157745000Y-88265000D02*
X157745000Y-86755000D01*
X157905000Y-84675000D02*
X157905000Y-83146000D01*
X156104000Y-87320000D02*
X156104000Y-86755000D01*
X157665000Y-84675000D02*
X157665000Y-83179000D01*
X156304000Y-87541000D02*
X156304000Y-86755000D01*
X156064000Y-87269000D02*
X156064000Y-86755000D01*
X157264000Y-88143000D02*
X157264000Y-86755000D01*
X157465000Y-88206000D02*
X157465000Y-86755000D01*
X156184000Y-84675000D02*
X156184000Y-84016000D01*
X157865000Y-84675000D02*
X157865000Y-83150000D01*
X157424000Y-84675000D02*
X157424000Y-83235000D01*
X156624000Y-84675000D02*
X156624000Y-83620000D01*
X156744000Y-87890000D02*
X156744000Y-86755000D01*
X156064000Y-84675000D02*
X156064000Y-84161000D01*
X156984000Y-88025000D02*
X156984000Y-86755000D01*
X155984000Y-84675000D02*
X155984000Y-84272000D01*
X157465000Y-84675000D02*
X157465000Y-83224000D01*
X157585000Y-88235000D02*
X157585000Y-86755000D01*
X156664000Y-87837000D02*
X156664000Y-86755000D01*
X155944000Y-87098000D02*
X155944000Y-86755000D01*
X158025000Y-88293000D02*
X158025000Y-83137000D01*
X157865000Y-88280000D02*
X157865000Y-86755000D01*
X157585000Y-84675000D02*
X157585000Y-83195000D01*
X155544000Y-85999000D02*
X155544000Y-85431000D01*
X156384000Y-87616000D02*
X156384000Y-86755000D01*
X156904000Y-84675000D02*
X156904000Y-83447000D01*
X156864000Y-84675000D02*
X156864000Y-83468000D01*
X157905000Y-88284000D02*
X157905000Y-86755000D01*
X156264000Y-87500000D02*
X156264000Y-86755000D01*
X156224000Y-87458000D02*
X156224000Y-86755000D01*
X157785000Y-88271000D02*
X157785000Y-86755000D01*
X157344000Y-88170000D02*
X157344000Y-86755000D01*
X156984000Y-84675000D02*
X156984000Y-83405000D01*
X156504000Y-87719000D02*
X156504000Y-86755000D01*
X157024000Y-84675000D02*
X157024000Y-83386000D01*
X157064000Y-88063000D02*
X157064000Y-86755000D01*
X155584000Y-86233000D02*
X155584000Y-85197000D01*
X156544000Y-87750000D02*
X156544000Y-86755000D01*
X156544000Y-84675000D02*
X156544000Y-83680000D01*
X157264000Y-84675000D02*
X157264000Y-83287000D01*
X155624000Y-86392000D02*
X155624000Y-85038000D01*
X157104000Y-84675000D02*
X157104000Y-83350000D01*
X157064000Y-84675000D02*
X157064000Y-83367000D01*
X156944000Y-88005000D02*
X156944000Y-86755000D01*
X157224000Y-84675000D02*
X157224000Y-83301000D01*
X157384000Y-84675000D02*
X157384000Y-83247000D01*
X156464000Y-87686000D02*
X156464000Y-86755000D01*
X155904000Y-87034000D02*
X155904000Y-86755000D01*
X156224000Y-84675000D02*
X156224000Y-83972000D01*
X155784000Y-86813000D02*
X155784000Y-84617000D01*
X158145000Y-88295000D02*
X158145000Y-83135000D01*
X156104000Y-84675000D02*
X156104000Y-84110000D01*
X157545000Y-88226000D02*
X157545000Y-86755000D01*
X157705000Y-84675000D02*
X157705000Y-83172000D01*
X157144000Y-88097000D02*
X157144000Y-86755000D01*
X157144000Y-84675000D02*
X157144000Y-83333000D01*
X156424000Y-87652000D02*
X156424000Y-86755000D01*
X155864000Y-84675000D02*
X155864000Y-84464000D01*
X155664000Y-86520000D02*
X155664000Y-84910000D01*
X155904000Y-84675000D02*
X155904000Y-84396000D01*
X157785000Y-84675000D02*
X157785000Y-83159000D01*
X156624000Y-87810000D02*
X156624000Y-86755000D01*
X156144000Y-87368000D02*
X156144000Y-86755000D01*
X157625000Y-88243000D02*
X157625000Y-86755000D01*
X157224000Y-88129000D02*
X157224000Y-86755000D01*
X156024000Y-87215000D02*
X156024000Y-86755000D01*
X156584000Y-84675000D02*
X156584000Y-83650000D01*
X155704000Y-86630000D02*
X155704000Y-84800000D01*
X155864000Y-86966000D02*
X155864000Y-86755000D01*
X156144000Y-84675000D02*
X156144000Y-84062000D01*
X155984000Y-87158000D02*
X155984000Y-86755000D01*
X156264000Y-84675000D02*
X156264000Y-83930000D01*
X157424000Y-88195000D02*
X157424000Y-86755000D01*
X157545000Y-84675000D02*
X157545000Y-83204000D01*
X157825000Y-84675000D02*
X157825000Y-83154000D01*
X156024000Y-84675000D02*
X156024000Y-84215000D01*
X158065000Y-88294000D02*
X158065000Y-83136000D01*
X160949775Y-87190000D02*
X160449775Y-87190000D01*
X157985000Y-88291000D02*
X157985000Y-83139000D01*
X157024000Y-88044000D02*
X157024000Y-86755000D01*
X156464000Y-84675000D02*
X156464000Y-83744000D01*
X157505000Y-88216000D02*
X157505000Y-86755000D01*
X160699775Y-87440000D02*
X160699775Y-86940000D01*
X156504000Y-84675000D02*
X156504000Y-83711000D01*
X156424000Y-84675000D02*
X156424000Y-83778000D01*
X157665000Y-88251000D02*
X157665000Y-86755000D01*
X157825000Y-88276000D02*
X157825000Y-86755000D01*
X156184000Y-87414000D02*
X156184000Y-86755000D01*
X157625000Y-84675000D02*
X157625000Y-83187000D01*
X156704000Y-84675000D02*
X156704000Y-83566000D01*
X157344000Y-84675000D02*
X157344000Y-83260000D01*
X156824000Y-84675000D02*
X156824000Y-83491000D01*
X157505000Y-84675000D02*
X157505000Y-83214000D01*
X158105000Y-88295000D02*
X158105000Y-83135000D01*
X157104000Y-88080000D02*
X157104000Y-86755000D01*
X156704000Y-87864000D02*
X156704000Y-86755000D01*
X156944000Y-84675000D02*
X156944000Y-83425000D01*
X156304000Y-84675000D02*
X156304000Y-83889000D01*
X157304000Y-88157000D02*
X157304000Y-86755000D01*
X155744000Y-86726000D02*
X155744000Y-84704000D01*
X156584000Y-87780000D02*
X156584000Y-86755000D01*
X155944000Y-84675000D02*
X155944000Y-84332000D01*
X157945000Y-88288000D02*
X157945000Y-83142000D01*
X156904000Y-87983000D02*
X156904000Y-86755000D01*
X156384000Y-84675000D02*
X156384000Y-83814000D01*
X156744000Y-84675000D02*
X156744000Y-83540000D01*
X156344000Y-87579000D02*
X156344000Y-86755000D01*
X156664000Y-84675000D02*
X156664000Y-83593000D01*
X156784000Y-84675000D02*
X156784000Y-83515000D01*
X156784000Y-87915000D02*
X156784000Y-86755000D01*
X157304000Y-84675000D02*
X157304000Y-83273000D01*
X157184000Y-84675000D02*
X157184000Y-83317000D01*
X157384000Y-88183000D02*
X157384000Y-86755000D01*
X156824000Y-87939000D02*
X156824000Y-86755000D01*
X160765000Y-85715000D02*
G75*
G03*
X160765000Y-85715000I-2620000J0D01*
G01*
%TO.C,R3*%
X158860000Y-111210000D02*
X158530000Y-111210000D01*
X158530000Y-104670000D02*
X158860000Y-104670000D01*
X156120000Y-104670000D02*
X156120000Y-111210000D01*
X158860000Y-104670000D02*
X158860000Y-111210000D01*
X156450000Y-104670000D02*
X156120000Y-104670000D01*
X156120000Y-111210000D02*
X156450000Y-111210000D01*
%TO.C,C5*%
X158529887Y-75539000D02*
X158529887Y-77055000D01*
X160010887Y-79135000D02*
X160010887Y-79921000D01*
X159610887Y-75946000D02*
X159610887Y-77055000D01*
X159690887Y-79135000D02*
X159690887Y-80190000D01*
X158529887Y-79135000D02*
X158529887Y-80651000D01*
X159890887Y-79135000D02*
X159890887Y-80032000D01*
X159330887Y-75785000D02*
X159330887Y-77055000D01*
X158449887Y-75530000D02*
X158449887Y-77055000D01*
X158930887Y-79135000D02*
X158930887Y-80563000D01*
X160050887Y-76310000D02*
X160050887Y-77055000D01*
X159170887Y-75713000D02*
X159170887Y-77055000D01*
X158369887Y-75522000D02*
X158369887Y-80668000D01*
X159850887Y-79135000D02*
X159850887Y-80066000D01*
X159770887Y-76060000D02*
X159770887Y-77055000D01*
X159010887Y-79135000D02*
X159010887Y-80537000D01*
X160770887Y-77811000D02*
X160770887Y-78379000D01*
X160490887Y-76917000D02*
X160490887Y-79273000D01*
X155365112Y-76620000D02*
X155865112Y-76620000D01*
X160330887Y-79135000D02*
X160330887Y-79538000D01*
X158689887Y-79135000D02*
X158689887Y-80623000D01*
X159090887Y-75681000D02*
X159090887Y-77055000D01*
X159530887Y-79135000D02*
X159530887Y-80295000D01*
X158609887Y-75552000D02*
X158609887Y-77055000D01*
X160650887Y-77290000D02*
X160650887Y-78900000D01*
X160130887Y-76396000D02*
X160130887Y-77055000D01*
X160210887Y-76490000D02*
X160210887Y-77055000D01*
X160410887Y-76776000D02*
X160410887Y-77055000D01*
X160370887Y-79135000D02*
X160370887Y-79478000D01*
X159690887Y-76000000D02*
X159690887Y-77055000D01*
X159730887Y-79135000D02*
X159730887Y-80160000D01*
X159210887Y-79135000D02*
X159210887Y-80460000D01*
X159890887Y-76158000D02*
X159890887Y-77055000D01*
X158809887Y-75594000D02*
X158809887Y-77055000D01*
X158890887Y-79135000D02*
X158890887Y-80575000D01*
X160410887Y-79135000D02*
X160410887Y-79414000D01*
X159010887Y-75653000D02*
X159010887Y-77055000D01*
X158649887Y-79135000D02*
X158649887Y-80631000D01*
X159450887Y-75848000D02*
X159450887Y-77055000D01*
X159410887Y-79135000D02*
X159410887Y-80363000D01*
X160210887Y-79135000D02*
X160210887Y-79700000D01*
X158329887Y-75519000D02*
X158329887Y-80671000D01*
X159290887Y-79135000D02*
X159290887Y-80424000D01*
X158769887Y-75584000D02*
X158769887Y-77055000D01*
X159570887Y-75920000D02*
X159570887Y-77055000D01*
X158169887Y-75515000D02*
X158169887Y-80675000D01*
X160170887Y-79135000D02*
X160170887Y-79748000D01*
X158449887Y-79135000D02*
X158449887Y-80660000D01*
X160090887Y-79135000D02*
X160090887Y-79838000D01*
X160690887Y-77418000D02*
X160690887Y-78772000D01*
X159050887Y-79135000D02*
X159050887Y-80523000D01*
X158609887Y-79135000D02*
X158609887Y-80638000D01*
X159490887Y-79135000D02*
X159490887Y-80319000D01*
X160730887Y-77577000D02*
X160730887Y-78613000D01*
X158569887Y-75545000D02*
X158569887Y-77055000D01*
X160330887Y-76652000D02*
X160330887Y-77055000D01*
X159810887Y-79135000D02*
X159810887Y-80099000D01*
X158970887Y-79135000D02*
X158970887Y-80550000D01*
X159650887Y-79135000D02*
X159650887Y-80217000D01*
X158209887Y-75515000D02*
X158209887Y-80675000D01*
X158849887Y-75604000D02*
X158849887Y-77055000D01*
X159530887Y-75895000D02*
X159530887Y-77055000D01*
X160610887Y-77180000D02*
X160610887Y-79010000D01*
X158289887Y-75517000D02*
X158289887Y-80673000D01*
X160250887Y-76541000D02*
X160250887Y-77055000D01*
X159570887Y-79135000D02*
X159570887Y-80270000D01*
X159930887Y-79135000D02*
X159930887Y-79996000D01*
X159410887Y-75827000D02*
X159410887Y-77055000D01*
X158970887Y-75640000D02*
X158970887Y-77055000D01*
X158649887Y-75559000D02*
X158649887Y-77055000D01*
X160570887Y-77084000D02*
X160570887Y-79106000D01*
X159770887Y-79135000D02*
X159770887Y-80130000D01*
X158689887Y-75567000D02*
X158689887Y-77055000D01*
X159050887Y-75667000D02*
X159050887Y-77055000D01*
X159730887Y-76030000D02*
X159730887Y-77055000D01*
X159130887Y-75697000D02*
X159130887Y-77055000D01*
X159330887Y-79135000D02*
X159330887Y-80405000D01*
X159930887Y-76194000D02*
X159930887Y-77055000D01*
X159370887Y-79135000D02*
X159370887Y-80385000D01*
X160370887Y-76712000D02*
X160370887Y-77055000D01*
X159490887Y-75871000D02*
X159490887Y-77055000D01*
X159970887Y-79135000D02*
X159970887Y-79959000D01*
X160010887Y-76269000D02*
X160010887Y-77055000D01*
X159370887Y-75805000D02*
X159370887Y-77055000D01*
X160090887Y-76352000D02*
X160090887Y-77055000D01*
X155615112Y-76370000D02*
X155615112Y-76870000D01*
X159610887Y-79135000D02*
X159610887Y-80244000D01*
X160450887Y-79135000D02*
X160450887Y-79346000D01*
X158409887Y-79135000D02*
X158409887Y-80664000D01*
X158489887Y-79135000D02*
X158489887Y-80656000D01*
X158569887Y-79135000D02*
X158569887Y-80645000D01*
X160130887Y-79135000D02*
X160130887Y-79794000D01*
X160290887Y-79135000D02*
X160290887Y-79595000D01*
X160530887Y-76997000D02*
X160530887Y-79193000D01*
X160250887Y-79135000D02*
X160250887Y-79649000D01*
X158890887Y-75615000D02*
X158890887Y-77055000D01*
X159970887Y-76231000D02*
X159970887Y-77055000D01*
X159250887Y-75747000D02*
X159250887Y-77055000D01*
X158729887Y-75575000D02*
X158729887Y-77055000D01*
X158249887Y-75516000D02*
X158249887Y-80674000D01*
X160050887Y-79135000D02*
X160050887Y-79880000D01*
X158930887Y-75627000D02*
X158930887Y-77055000D01*
X160450887Y-76844000D02*
X160450887Y-77055000D01*
X158489887Y-75534000D02*
X158489887Y-77055000D01*
X159170887Y-79135000D02*
X159170887Y-80477000D01*
X159650887Y-75973000D02*
X159650887Y-77055000D01*
X158409887Y-75526000D02*
X158409887Y-77055000D01*
X160290887Y-76595000D02*
X160290887Y-77055000D01*
X159090887Y-79135000D02*
X159090887Y-80509000D01*
X158729887Y-79135000D02*
X158729887Y-80615000D01*
X159450887Y-79135000D02*
X159450887Y-80342000D01*
X159130887Y-79135000D02*
X159130887Y-80493000D01*
X160170887Y-76442000D02*
X160170887Y-77055000D01*
X159850887Y-76124000D02*
X159850887Y-77055000D01*
X158809887Y-79135000D02*
X158809887Y-80596000D01*
X159290887Y-75766000D02*
X159290887Y-77055000D01*
X158769887Y-79135000D02*
X158769887Y-80606000D01*
X159210887Y-75730000D02*
X159210887Y-77055000D01*
X159250887Y-79135000D02*
X159250887Y-80443000D01*
X159810887Y-76091000D02*
X159810887Y-77055000D01*
X158849887Y-79135000D02*
X158849887Y-80586000D01*
X160789887Y-78095000D02*
G75*
G03*
X160789887Y-78095000I-2620000J0D01*
G01*
%TO.C,R5*%
X135360000Y-68035000D02*
X135360000Y-67705000D01*
X128820000Y-67705000D02*
X128820000Y-68035000D01*
X128820000Y-65625000D02*
X128820000Y-65295000D01*
X128820000Y-65295000D02*
X135360000Y-65295000D01*
X128820000Y-68035000D02*
X135360000Y-68035000D01*
X135360000Y-65295000D02*
X135360000Y-65625000D01*
D10*
%TO.C,U1*%
X118120000Y-99685000D02*
X153680000Y-99685000D01*
X153680000Y-99685000D02*
X153680000Y-117465000D01*
X153680000Y-117465000D02*
X118120000Y-117465000D01*
X118120000Y-117465000D02*
X118120000Y-99685000D01*
X118120000Y-111115000D02*
G75*
G03*
X118120000Y-106035000I0J2540000D01*
G01*
%TD*%
M02*
