%TF.GenerationSoftware,KiCad,Pcbnew,6.0.4+dfsg-1+b1*%
%TF.CreationDate,2022-05-07T15:52:57-05:00*%
%TF.ProjectId,arduino-midi-argb-dmx,61726475-696e-46f2-9d6d-6964692d6172,rev?*%
%TF.SameCoordinates,Original*%
%TF.FileFunction,Legend,Bot*%
%TF.FilePolarity,Positive*%
%FSLAX46Y46*%
G04 Gerber Fmt 4.6, Leading zero omitted, Abs format (unit mm)*
G04 Created by KiCad (PCBNEW 6.0.4+dfsg-1+b1) date 2022-05-07 15:52:57*
%MOMM*%
%LPD*%
G01*
G04 APERTURE LIST*
%ADD10C,0.150000*%
%ADD11C,0.300000*%
%ADD12C,0.200000*%
%ADD13C,0.400000*%
%ADD14C,0.500000*%
%ADD15C,0.010000*%
G04 APERTURE END LIST*
D10*
X192476428Y-119174047D02*
X192476428Y-119935952D01*
X192476428Y-125222047D02*
X192476428Y-125983952D01*
X192857380Y-125603000D02*
X192095476Y-125603000D01*
D11*
X165782380Y-65039761D02*
X166449047Y-64087380D01*
X166925238Y-65039761D02*
X166925238Y-63039761D01*
X166163333Y-63039761D01*
X165972857Y-63135000D01*
X165877619Y-63230238D01*
X165782380Y-63420714D01*
X165782380Y-63706428D01*
X165877619Y-63896904D01*
X165972857Y-63992142D01*
X166163333Y-64087380D01*
X166925238Y-64087380D01*
X164163333Y-64944523D02*
X164353809Y-65039761D01*
X164734761Y-65039761D01*
X164925238Y-64944523D01*
X165020476Y-64754047D01*
X165020476Y-63992142D01*
X164925238Y-63801666D01*
X164734761Y-63706428D01*
X164353809Y-63706428D01*
X164163333Y-63801666D01*
X164068095Y-63992142D01*
X164068095Y-64182619D01*
X165020476Y-64373095D01*
X163401428Y-63706428D02*
X162925238Y-65039761D01*
X162449047Y-63706428D01*
X160639523Y-65039761D02*
X161782380Y-65039761D01*
X161210952Y-65039761D02*
X161210952Y-63039761D01*
X161401428Y-63325476D01*
X161591904Y-63515952D01*
X161782380Y-63611190D01*
D12*
X146509047Y-111577380D02*
X146509047Y-110577380D01*
X146270952Y-110577380D01*
X146128095Y-110625000D01*
X146032857Y-110720238D01*
X145985238Y-110815476D01*
X145937619Y-111005952D01*
X145937619Y-111148809D01*
X145985238Y-111339285D01*
X146032857Y-111434523D01*
X146128095Y-111529761D01*
X146270952Y-111577380D01*
X146509047Y-111577380D01*
X144175714Y-111482142D02*
X144223333Y-111529761D01*
X144366190Y-111577380D01*
X144461428Y-111577380D01*
X144604285Y-111529761D01*
X144699523Y-111434523D01*
X144747142Y-111339285D01*
X144794761Y-111148809D01*
X144794761Y-111005952D01*
X144747142Y-110815476D01*
X144699523Y-110720238D01*
X144604285Y-110625000D01*
X144461428Y-110577380D01*
X144366190Y-110577380D01*
X144223333Y-110625000D01*
X144175714Y-110672619D01*
X143604285Y-111577380D02*
X143699523Y-111529761D01*
X143747142Y-111482142D01*
X143794761Y-111386904D01*
X143794761Y-111101190D01*
X143747142Y-111005952D01*
X143699523Y-110958333D01*
X143604285Y-110910714D01*
X143461428Y-110910714D01*
X143366190Y-110958333D01*
X143318571Y-111005952D01*
X143270952Y-111101190D01*
X143270952Y-111386904D01*
X143318571Y-111482142D01*
X143366190Y-111529761D01*
X143461428Y-111577380D01*
X143604285Y-111577380D01*
X142699523Y-111577380D02*
X142794761Y-111529761D01*
X142842380Y-111482142D01*
X142890000Y-111386904D01*
X142890000Y-111101190D01*
X142842380Y-111005952D01*
X142794761Y-110958333D01*
X142699523Y-110910714D01*
X142556666Y-110910714D01*
X142461428Y-110958333D01*
X142413809Y-111005952D01*
X142366190Y-111101190D01*
X142366190Y-111386904D01*
X142413809Y-111482142D01*
X142461428Y-111529761D01*
X142556666Y-111577380D01*
X142699523Y-111577380D01*
X141937619Y-110910714D02*
X141937619Y-111910714D01*
X141937619Y-110958333D02*
X141842380Y-110910714D01*
X141651904Y-110910714D01*
X141556666Y-110958333D01*
X141509047Y-111005952D01*
X141461428Y-111101190D01*
X141461428Y-111386904D01*
X141509047Y-111482142D01*
X141556666Y-111529761D01*
X141651904Y-111577380D01*
X141842380Y-111577380D01*
X141937619Y-111529761D01*
X140651904Y-111529761D02*
X140747142Y-111577380D01*
X140937619Y-111577380D01*
X141032857Y-111529761D01*
X141080476Y-111434523D01*
X141080476Y-111053571D01*
X141032857Y-110958333D01*
X140937619Y-110910714D01*
X140747142Y-110910714D01*
X140651904Y-110958333D01*
X140604285Y-111053571D01*
X140604285Y-111148809D01*
X141080476Y-111244047D01*
X140175714Y-111577380D02*
X140175714Y-110910714D01*
X140175714Y-111101190D02*
X140128095Y-111005952D01*
X140080476Y-110958333D01*
X139985238Y-110910714D01*
X139890000Y-110910714D01*
X138794761Y-111577380D02*
X138794761Y-110577380D01*
X138556666Y-110577380D01*
X138413809Y-110625000D01*
X138318571Y-110720238D01*
X138270952Y-110815476D01*
X138223333Y-111005952D01*
X138223333Y-111148809D01*
X138270952Y-111339285D01*
X138318571Y-111434523D01*
X138413809Y-111529761D01*
X138556666Y-111577380D01*
X138794761Y-111577380D01*
X137366190Y-111577380D02*
X137366190Y-111053571D01*
X137413809Y-110958333D01*
X137509047Y-110910714D01*
X137699523Y-110910714D01*
X137794761Y-110958333D01*
X137366190Y-111529761D02*
X137461428Y-111577380D01*
X137699523Y-111577380D01*
X137794761Y-111529761D01*
X137842380Y-111434523D01*
X137842380Y-111339285D01*
X137794761Y-111244047D01*
X137699523Y-111196428D01*
X137461428Y-111196428D01*
X137366190Y-111148809D01*
X136747142Y-111577380D02*
X136842380Y-111529761D01*
X136890000Y-111434523D01*
X136890000Y-110577380D01*
X136366190Y-111577380D02*
X136366190Y-110910714D01*
X136366190Y-111101190D02*
X136318571Y-111005952D01*
X136270952Y-110958333D01*
X136175714Y-110910714D01*
X136080476Y-110910714D01*
X135842380Y-110910714D02*
X135604285Y-111577380D01*
X135366190Y-110910714D02*
X135604285Y-111577380D01*
X135699523Y-111815476D01*
X135747142Y-111863095D01*
X135842380Y-111910714D01*
X134985238Y-111577380D02*
X134985238Y-110910714D01*
X134985238Y-111005952D02*
X134937619Y-110958333D01*
X134842380Y-110910714D01*
X134699523Y-110910714D01*
X134604285Y-110958333D01*
X134556666Y-111053571D01*
X134556666Y-111577380D01*
X134556666Y-111053571D02*
X134509047Y-110958333D01*
X134413809Y-110910714D01*
X134270952Y-110910714D01*
X134175714Y-110958333D01*
X134128095Y-111053571D01*
X134128095Y-111577380D01*
X133651904Y-110910714D02*
X133651904Y-111910714D01*
X133651904Y-110958333D02*
X133556666Y-110910714D01*
X133366190Y-110910714D01*
X133270952Y-110958333D01*
X133223333Y-111005952D01*
X133175714Y-111101190D01*
X133175714Y-111386904D01*
X133223333Y-111482142D01*
X133270952Y-111529761D01*
X133366190Y-111577380D01*
X133556666Y-111577380D01*
X133651904Y-111529761D01*
X132604285Y-111577380D02*
X132699523Y-111529761D01*
X132747142Y-111434523D01*
X132747142Y-110577380D01*
X131842380Y-111529761D02*
X131937619Y-111577380D01*
X132128095Y-111577380D01*
X132223333Y-111529761D01*
X132270952Y-111434523D01*
X132270952Y-111053571D01*
X132223333Y-110958333D01*
X132128095Y-110910714D01*
X131937619Y-110910714D01*
X131842380Y-110958333D01*
X131794761Y-111053571D01*
X131794761Y-111148809D01*
X132270952Y-111244047D01*
X130604285Y-111196428D02*
X129842380Y-111196428D01*
X128651904Y-110672619D02*
X128604285Y-110625000D01*
X128509047Y-110577380D01*
X128270952Y-110577380D01*
X128175714Y-110625000D01*
X128128095Y-110672619D01*
X128080476Y-110767857D01*
X128080476Y-110863095D01*
X128128095Y-111005952D01*
X128699523Y-111577380D01*
X128080476Y-111577380D01*
X127461428Y-110577380D02*
X127366190Y-110577380D01*
X127270952Y-110625000D01*
X127223333Y-110672619D01*
X127175714Y-110767857D01*
X127128095Y-110958333D01*
X127128095Y-111196428D01*
X127175714Y-111386904D01*
X127223333Y-111482142D01*
X127270952Y-111529761D01*
X127366190Y-111577380D01*
X127461428Y-111577380D01*
X127556666Y-111529761D01*
X127604285Y-111482142D01*
X127651904Y-111386904D01*
X127699523Y-111196428D01*
X127699523Y-110958333D01*
X127651904Y-110767857D01*
X127604285Y-110672619D01*
X127556666Y-110625000D01*
X127461428Y-110577380D01*
X126747142Y-110672619D02*
X126699523Y-110625000D01*
X126604285Y-110577380D01*
X126366190Y-110577380D01*
X126270952Y-110625000D01*
X126223333Y-110672619D01*
X126175714Y-110767857D01*
X126175714Y-110863095D01*
X126223333Y-111005952D01*
X126794761Y-111577380D01*
X126175714Y-111577380D01*
X125794761Y-110672619D02*
X125747142Y-110625000D01*
X125651904Y-110577380D01*
X125413809Y-110577380D01*
X125318571Y-110625000D01*
X125270952Y-110672619D01*
X125223333Y-110767857D01*
X125223333Y-110863095D01*
X125270952Y-111005952D01*
X125842380Y-111577380D01*
X125223333Y-111577380D01*
D10*
X149968571Y-113482380D02*
X149968571Y-112482380D01*
X149968571Y-113434761D02*
X150054285Y-113482380D01*
X150225714Y-113482380D01*
X150311428Y-113434761D01*
X150354285Y-113387142D01*
X150397142Y-113291904D01*
X150397142Y-113006190D01*
X150354285Y-112910952D01*
X150311428Y-112863333D01*
X150225714Y-112815714D01*
X150054285Y-112815714D01*
X149968571Y-112863333D01*
X149154285Y-113434761D02*
X149240000Y-113482380D01*
X149411428Y-113482380D01*
X149497142Y-113434761D01*
X149540000Y-113387142D01*
X149582857Y-113291904D01*
X149582857Y-113006190D01*
X149540000Y-112910952D01*
X149497142Y-112863333D01*
X149411428Y-112815714D01*
X149240000Y-112815714D01*
X149154285Y-112863333D01*
X148382857Y-113482380D02*
X148382857Y-112482380D01*
X148382857Y-113434761D02*
X148468571Y-113482380D01*
X148640000Y-113482380D01*
X148725714Y-113434761D01*
X148768571Y-113387142D01*
X148811428Y-113291904D01*
X148811428Y-113006190D01*
X148768571Y-112910952D01*
X148725714Y-112863333D01*
X148640000Y-112815714D01*
X148468571Y-112815714D01*
X148382857Y-112863333D01*
X147568571Y-113482380D02*
X147568571Y-112958571D01*
X147611428Y-112863333D01*
X147697142Y-112815714D01*
X147868571Y-112815714D01*
X147954285Y-112863333D01*
X147568571Y-113434761D02*
X147654285Y-113482380D01*
X147868571Y-113482380D01*
X147954285Y-113434761D01*
X147997142Y-113339523D01*
X147997142Y-113244285D01*
X147954285Y-113149047D01*
X147868571Y-113101428D01*
X147654285Y-113101428D01*
X147568571Y-113053809D01*
X147011428Y-113482380D02*
X147097142Y-113434761D01*
X147140000Y-113339523D01*
X147140000Y-112482380D01*
X146668571Y-113482380D02*
X146668571Y-112815714D01*
X146668571Y-113006190D02*
X146625714Y-112910952D01*
X146582857Y-112863333D01*
X146497142Y-112815714D01*
X146411428Y-112815714D01*
X146197142Y-112815714D02*
X145982857Y-113482380D01*
X145768571Y-112815714D02*
X145982857Y-113482380D01*
X146068571Y-113720476D01*
X146111428Y-113768095D01*
X146197142Y-113815714D01*
X145425714Y-113482380D02*
X145425714Y-112815714D01*
X145425714Y-112910952D02*
X145382857Y-112863333D01*
X145297142Y-112815714D01*
X145168571Y-112815714D01*
X145082857Y-112863333D01*
X145040000Y-112958571D01*
X145040000Y-113482380D01*
X145040000Y-112958571D02*
X144997142Y-112863333D01*
X144911428Y-112815714D01*
X144782857Y-112815714D01*
X144697142Y-112863333D01*
X144654285Y-112958571D01*
X144654285Y-113482380D01*
X144225714Y-112815714D02*
X144225714Y-113815714D01*
X144225714Y-112863333D02*
X144140000Y-112815714D01*
X143968571Y-112815714D01*
X143882857Y-112863333D01*
X143840000Y-112910952D01*
X143797142Y-113006190D01*
X143797142Y-113291904D01*
X143840000Y-113387142D01*
X143882857Y-113434761D01*
X143968571Y-113482380D01*
X144140000Y-113482380D01*
X144225714Y-113434761D01*
X143282857Y-113482380D02*
X143368571Y-113434761D01*
X143411428Y-113339523D01*
X143411428Y-112482380D01*
X142597142Y-113434761D02*
X142682857Y-113482380D01*
X142854285Y-113482380D01*
X142940000Y-113434761D01*
X142982857Y-113339523D01*
X142982857Y-112958571D01*
X142940000Y-112863333D01*
X142854285Y-112815714D01*
X142682857Y-112815714D01*
X142597142Y-112863333D01*
X142554285Y-112958571D01*
X142554285Y-113053809D01*
X142982857Y-113149047D01*
X142168571Y-113387142D02*
X142125714Y-113434761D01*
X142168571Y-113482380D01*
X142211428Y-113434761D01*
X142168571Y-113387142D01*
X142168571Y-113482380D01*
X141354285Y-113434761D02*
X141440000Y-113482380D01*
X141611428Y-113482380D01*
X141697142Y-113434761D01*
X141740000Y-113387142D01*
X141782857Y-113291904D01*
X141782857Y-113006190D01*
X141740000Y-112910952D01*
X141697142Y-112863333D01*
X141611428Y-112815714D01*
X141440000Y-112815714D01*
X141354285Y-112863333D01*
X140840000Y-113482380D02*
X140925714Y-113434761D01*
X140968571Y-113387142D01*
X141011428Y-113291904D01*
X141011428Y-113006190D01*
X140968571Y-112910952D01*
X140925714Y-112863333D01*
X140840000Y-112815714D01*
X140711428Y-112815714D01*
X140625714Y-112863333D01*
X140582857Y-112910952D01*
X140540000Y-113006190D01*
X140540000Y-113291904D01*
X140582857Y-113387142D01*
X140625714Y-113434761D01*
X140711428Y-113482380D01*
X140840000Y-113482380D01*
X140154285Y-113482380D02*
X140154285Y-112815714D01*
X140154285Y-112910952D02*
X140111428Y-112863333D01*
X140025714Y-112815714D01*
X139897142Y-112815714D01*
X139811428Y-112863333D01*
X139768571Y-112958571D01*
X139768571Y-113482380D01*
X139768571Y-112958571D02*
X139725714Y-112863333D01*
X139640000Y-112815714D01*
X139511428Y-112815714D01*
X139425714Y-112863333D01*
X139382857Y-112958571D01*
X139382857Y-113482380D01*
X138311428Y-112434761D02*
X139082857Y-113720476D01*
X137625714Y-113482380D02*
X137625714Y-112958571D01*
X137668571Y-112863333D01*
X137754285Y-112815714D01*
X137925714Y-112815714D01*
X138011428Y-112863333D01*
X137625714Y-113434761D02*
X137711428Y-113482380D01*
X137925714Y-113482380D01*
X138011428Y-113434761D01*
X138054285Y-113339523D01*
X138054285Y-113244285D01*
X138011428Y-113149047D01*
X137925714Y-113101428D01*
X137711428Y-113101428D01*
X137625714Y-113053809D01*
X137197142Y-113482380D02*
X137197142Y-112815714D01*
X137197142Y-113006190D02*
X137154285Y-112910952D01*
X137111428Y-112863333D01*
X137025714Y-112815714D01*
X136940000Y-112815714D01*
X136254285Y-113482380D02*
X136254285Y-112482380D01*
X136254285Y-113434761D02*
X136340000Y-113482380D01*
X136511428Y-113482380D01*
X136597142Y-113434761D01*
X136640000Y-113387142D01*
X136682857Y-113291904D01*
X136682857Y-113006190D01*
X136640000Y-112910952D01*
X136597142Y-112863333D01*
X136511428Y-112815714D01*
X136340000Y-112815714D01*
X136254285Y-112863333D01*
X135440000Y-112815714D02*
X135440000Y-113482380D01*
X135825714Y-112815714D02*
X135825714Y-113339523D01*
X135782857Y-113434761D01*
X135697142Y-113482380D01*
X135568571Y-113482380D01*
X135482857Y-113434761D01*
X135440000Y-113387142D01*
X135011428Y-113482380D02*
X135011428Y-112815714D01*
X135011428Y-112482380D02*
X135054285Y-112530000D01*
X135011428Y-112577619D01*
X134968571Y-112530000D01*
X135011428Y-112482380D01*
X135011428Y-112577619D01*
X134582857Y-112815714D02*
X134582857Y-113482380D01*
X134582857Y-112910952D02*
X134540000Y-112863333D01*
X134454285Y-112815714D01*
X134325714Y-112815714D01*
X134240000Y-112863333D01*
X134197142Y-112958571D01*
X134197142Y-113482380D01*
X133640000Y-113482380D02*
X133725714Y-113434761D01*
X133768571Y-113387142D01*
X133811428Y-113291904D01*
X133811428Y-113006190D01*
X133768571Y-112910952D01*
X133725714Y-112863333D01*
X133640000Y-112815714D01*
X133511428Y-112815714D01*
X133425714Y-112863333D01*
X133382857Y-112910952D01*
X133340000Y-113006190D01*
X133340000Y-113291904D01*
X133382857Y-113387142D01*
X133425714Y-113434761D01*
X133511428Y-113482380D01*
X133640000Y-113482380D01*
X132954285Y-113101428D02*
X132268571Y-113101428D01*
X131840000Y-113482380D02*
X131840000Y-112815714D01*
X131840000Y-112910952D02*
X131797142Y-112863333D01*
X131711428Y-112815714D01*
X131582857Y-112815714D01*
X131497142Y-112863333D01*
X131454285Y-112958571D01*
X131454285Y-113482380D01*
X131454285Y-112958571D02*
X131411428Y-112863333D01*
X131325714Y-112815714D01*
X131197142Y-112815714D01*
X131111428Y-112863333D01*
X131068571Y-112958571D01*
X131068571Y-113482380D01*
X130640000Y-113482380D02*
X130640000Y-112815714D01*
X130640000Y-112482380D02*
X130682857Y-112530000D01*
X130640000Y-112577619D01*
X130597142Y-112530000D01*
X130640000Y-112482380D01*
X130640000Y-112577619D01*
X129825714Y-113482380D02*
X129825714Y-112482380D01*
X129825714Y-113434761D02*
X129911428Y-113482380D01*
X130082857Y-113482380D01*
X130168571Y-113434761D01*
X130211428Y-113387142D01*
X130254285Y-113291904D01*
X130254285Y-113006190D01*
X130211428Y-112910952D01*
X130168571Y-112863333D01*
X130082857Y-112815714D01*
X129911428Y-112815714D01*
X129825714Y-112863333D01*
X129397142Y-113482380D02*
X129397142Y-112815714D01*
X129397142Y-112482380D02*
X129440000Y-112530000D01*
X129397142Y-112577619D01*
X129354285Y-112530000D01*
X129397142Y-112482380D01*
X129397142Y-112577619D01*
X128968571Y-113101428D02*
X128282857Y-113101428D01*
X127468571Y-113482380D02*
X127468571Y-112958571D01*
X127511428Y-112863333D01*
X127597142Y-112815714D01*
X127768571Y-112815714D01*
X127854285Y-112863333D01*
X127468571Y-113434761D02*
X127554285Y-113482380D01*
X127768571Y-113482380D01*
X127854285Y-113434761D01*
X127897142Y-113339523D01*
X127897142Y-113244285D01*
X127854285Y-113149047D01*
X127768571Y-113101428D01*
X127554285Y-113101428D01*
X127468571Y-113053809D01*
X127040000Y-113482380D02*
X127040000Y-112815714D01*
X127040000Y-113006190D02*
X126997142Y-112910952D01*
X126954285Y-112863333D01*
X126868571Y-112815714D01*
X126782857Y-112815714D01*
X126097142Y-112815714D02*
X126097142Y-113625238D01*
X126140000Y-113720476D01*
X126182857Y-113768095D01*
X126268571Y-113815714D01*
X126397142Y-113815714D01*
X126482857Y-113768095D01*
X126097142Y-113434761D02*
X126182857Y-113482380D01*
X126354285Y-113482380D01*
X126440000Y-113434761D01*
X126482857Y-113387142D01*
X126525714Y-113291904D01*
X126525714Y-113006190D01*
X126482857Y-112910952D01*
X126440000Y-112863333D01*
X126354285Y-112815714D01*
X126182857Y-112815714D01*
X126097142Y-112863333D01*
X125668571Y-113482380D02*
X125668571Y-112482380D01*
X125668571Y-112863333D02*
X125582857Y-112815714D01*
X125411428Y-112815714D01*
X125325714Y-112863333D01*
X125282857Y-112910952D01*
X125240000Y-113006190D01*
X125240000Y-113291904D01*
X125282857Y-113387142D01*
X125325714Y-113434761D01*
X125411428Y-113482380D01*
X125582857Y-113482380D01*
X125668571Y-113434761D01*
X124854285Y-113101428D02*
X124168571Y-113101428D01*
X123354285Y-113482380D02*
X123354285Y-112482380D01*
X123354285Y-113434761D02*
X123440000Y-113482380D01*
X123611428Y-113482380D01*
X123697142Y-113434761D01*
X123740000Y-113387142D01*
X123782857Y-113291904D01*
X123782857Y-113006190D01*
X123740000Y-112910952D01*
X123697142Y-112863333D01*
X123611428Y-112815714D01*
X123440000Y-112815714D01*
X123354285Y-112863333D01*
X122925714Y-113482380D02*
X122925714Y-112815714D01*
X122925714Y-112910952D02*
X122882857Y-112863333D01*
X122797142Y-112815714D01*
X122668571Y-112815714D01*
X122582857Y-112863333D01*
X122540000Y-112958571D01*
X122540000Y-113482380D01*
X122540000Y-112958571D02*
X122497142Y-112863333D01*
X122411428Y-112815714D01*
X122282857Y-112815714D01*
X122197142Y-112863333D01*
X122154285Y-112958571D01*
X122154285Y-113482380D01*
X121811428Y-113482380D02*
X121340000Y-112815714D01*
X121811428Y-112815714D02*
X121340000Y-113482380D01*
D13*
X147175714Y-105403333D02*
X146223333Y-105403333D01*
X147366190Y-105974761D02*
X146699523Y-103974761D01*
X146032857Y-105974761D01*
X145366190Y-105974761D02*
X145366190Y-104641428D01*
X145366190Y-105022380D02*
X145270952Y-104831904D01*
X145175714Y-104736666D01*
X144985238Y-104641428D01*
X144794761Y-104641428D01*
X143270952Y-105974761D02*
X143270952Y-103974761D01*
X143270952Y-105879523D02*
X143461428Y-105974761D01*
X143842380Y-105974761D01*
X144032857Y-105879523D01*
X144128095Y-105784285D01*
X144223333Y-105593809D01*
X144223333Y-105022380D01*
X144128095Y-104831904D01*
X144032857Y-104736666D01*
X143842380Y-104641428D01*
X143461428Y-104641428D01*
X143270952Y-104736666D01*
X141461428Y-104641428D02*
X141461428Y-105974761D01*
X142318571Y-104641428D02*
X142318571Y-105689047D01*
X142223333Y-105879523D01*
X142032857Y-105974761D01*
X141747142Y-105974761D01*
X141556666Y-105879523D01*
X141461428Y-105784285D01*
X140509047Y-105974761D02*
X140509047Y-104641428D01*
X140509047Y-103974761D02*
X140604285Y-104070000D01*
X140509047Y-104165238D01*
X140413809Y-104070000D01*
X140509047Y-103974761D01*
X140509047Y-104165238D01*
X139556666Y-104641428D02*
X139556666Y-105974761D01*
X139556666Y-104831904D02*
X139461428Y-104736666D01*
X139270952Y-104641428D01*
X138985238Y-104641428D01*
X138794761Y-104736666D01*
X138699523Y-104927142D01*
X138699523Y-105974761D01*
X137461428Y-105974761D02*
X137651904Y-105879523D01*
X137747142Y-105784285D01*
X137842380Y-105593809D01*
X137842380Y-105022380D01*
X137747142Y-104831904D01*
X137651904Y-104736666D01*
X137461428Y-104641428D01*
X137175714Y-104641428D01*
X136985238Y-104736666D01*
X136890000Y-104831904D01*
X136794761Y-105022380D01*
X136794761Y-105593809D01*
X136890000Y-105784285D01*
X136985238Y-105879523D01*
X137175714Y-105974761D01*
X137461428Y-105974761D01*
X134413809Y-105974761D02*
X134413809Y-103974761D01*
X133747142Y-105403333D01*
X133080476Y-103974761D01*
X133080476Y-105974761D01*
X132128095Y-105974761D02*
X132128095Y-103974761D01*
X131175714Y-105974761D02*
X131175714Y-103974761D01*
X130699523Y-103974761D01*
X130413809Y-104070000D01*
X130223333Y-104260476D01*
X130128095Y-104450952D01*
X130032857Y-104831904D01*
X130032857Y-105117619D01*
X130128095Y-105498571D01*
X130223333Y-105689047D01*
X130413809Y-105879523D01*
X130699523Y-105974761D01*
X131175714Y-105974761D01*
X129175714Y-105974761D02*
X129175714Y-103974761D01*
X126985238Y-104641428D02*
X126223333Y-104641428D01*
X126699523Y-103974761D02*
X126699523Y-105689047D01*
X126604285Y-105879523D01*
X126413809Y-105974761D01*
X126223333Y-105974761D01*
X125270952Y-105974761D02*
X125461428Y-105879523D01*
X125556666Y-105784285D01*
X125651904Y-105593809D01*
X125651904Y-105022380D01*
X125556666Y-104831904D01*
X125461428Y-104736666D01*
X125270952Y-104641428D01*
X124985238Y-104641428D01*
X124794761Y-104736666D01*
X124699523Y-104831904D01*
X124604285Y-105022380D01*
X124604285Y-105593809D01*
X124699523Y-105784285D01*
X124794761Y-105879523D01*
X124985238Y-105974761D01*
X125270952Y-105974761D01*
X148699523Y-108623333D02*
X147747142Y-108623333D01*
X148890000Y-109194761D02*
X148223333Y-107194761D01*
X147556666Y-109194761D01*
X145747142Y-109194761D02*
X146413809Y-108242380D01*
X146890000Y-109194761D02*
X146890000Y-107194761D01*
X146128095Y-107194761D01*
X145937619Y-107290000D01*
X145842380Y-107385238D01*
X145747142Y-107575714D01*
X145747142Y-107861428D01*
X145842380Y-108051904D01*
X145937619Y-108147142D01*
X146128095Y-108242380D01*
X146890000Y-108242380D01*
X143842380Y-107290000D02*
X144032857Y-107194761D01*
X144318571Y-107194761D01*
X144604285Y-107290000D01*
X144794761Y-107480476D01*
X144890000Y-107670952D01*
X144985238Y-108051904D01*
X144985238Y-108337619D01*
X144890000Y-108718571D01*
X144794761Y-108909047D01*
X144604285Y-109099523D01*
X144318571Y-109194761D01*
X144128095Y-109194761D01*
X143842380Y-109099523D01*
X143747142Y-109004285D01*
X143747142Y-108337619D01*
X144128095Y-108337619D01*
X142223333Y-108147142D02*
X141937619Y-108242380D01*
X141842380Y-108337619D01*
X141747142Y-108528095D01*
X141747142Y-108813809D01*
X141842380Y-109004285D01*
X141937619Y-109099523D01*
X142128095Y-109194761D01*
X142890000Y-109194761D01*
X142890000Y-107194761D01*
X142223333Y-107194761D01*
X142032857Y-107290000D01*
X141937619Y-107385238D01*
X141842380Y-107575714D01*
X141842380Y-107766190D01*
X141937619Y-107956666D01*
X142032857Y-108051904D01*
X142223333Y-108147142D01*
X142890000Y-108147142D01*
X139461428Y-107099523D02*
X141175714Y-109670952D01*
X137651904Y-109194761D02*
X138318571Y-108242380D01*
X138794761Y-109194761D02*
X138794761Y-107194761D01*
X138032857Y-107194761D01*
X137842380Y-107290000D01*
X137747142Y-107385238D01*
X137651904Y-107575714D01*
X137651904Y-107861428D01*
X137747142Y-108051904D01*
X137842380Y-108147142D01*
X138032857Y-108242380D01*
X138794761Y-108242380D01*
X135747142Y-107290000D02*
X135937619Y-107194761D01*
X136223333Y-107194761D01*
X136509047Y-107290000D01*
X136699523Y-107480476D01*
X136794761Y-107670952D01*
X136890000Y-108051904D01*
X136890000Y-108337619D01*
X136794761Y-108718571D01*
X136699523Y-108909047D01*
X136509047Y-109099523D01*
X136223333Y-109194761D01*
X136032857Y-109194761D01*
X135747142Y-109099523D01*
X135651904Y-109004285D01*
X135651904Y-108337619D01*
X136032857Y-108337619D01*
X134128095Y-108147142D02*
X133842380Y-108242380D01*
X133747142Y-108337619D01*
X133651904Y-108528095D01*
X133651904Y-108813809D01*
X133747142Y-109004285D01*
X133842380Y-109099523D01*
X134032857Y-109194761D01*
X134794761Y-109194761D01*
X134794761Y-107194761D01*
X134128095Y-107194761D01*
X133937619Y-107290000D01*
X133842380Y-107385238D01*
X133747142Y-107575714D01*
X133747142Y-107766190D01*
X133842380Y-107956666D01*
X133937619Y-108051904D01*
X134128095Y-108147142D01*
X134794761Y-108147142D01*
X132985238Y-107194761D02*
X132509047Y-109194761D01*
X132128095Y-107766190D01*
X131747142Y-109194761D01*
X131270952Y-107194761D01*
X129080476Y-107099523D02*
X130794761Y-109670952D01*
X128413809Y-109194761D02*
X128413809Y-107194761D01*
X127937619Y-107194761D01*
X127651904Y-107290000D01*
X127461428Y-107480476D01*
X127366190Y-107670952D01*
X127270952Y-108051904D01*
X127270952Y-108337619D01*
X127366190Y-108718571D01*
X127461428Y-108909047D01*
X127651904Y-109099523D01*
X127937619Y-109194761D01*
X128413809Y-109194761D01*
X126413809Y-109194761D02*
X126413809Y-107194761D01*
X125747142Y-108623333D01*
X125080476Y-107194761D01*
X125080476Y-109194761D01*
X124318571Y-107194761D02*
X122985238Y-109194761D01*
X122985238Y-107194761D02*
X124318571Y-109194761D01*
D10*
%TO.C,REF\u002A\u002A*%
X192480000Y-122555000D02*
X192480000Y-124555000D01*
X192480000Y-120555000D02*
X192480000Y-121455000D01*
X193155000Y-123305000D02*
G75*
G03*
X191730000Y-123230000I-675000J750000D01*
G01*
D14*
X192655000Y-122555000D02*
G75*
G03*
X192655000Y-122555000I-175000J0D01*
G01*
D10*
X193405000Y-119555000D02*
G75*
G03*
X193405000Y-119555000I-925000J0D01*
G01*
X193405000Y-125555000D02*
G75*
G03*
X193405000Y-125555000I-925000J0D01*
G01*
G36*
X160015268Y-125415158D02*
G01*
X160006689Y-125566594D01*
X159987833Y-125703283D01*
X159957837Y-125829276D01*
X159915836Y-125948625D01*
X159860969Y-126065381D01*
X159794167Y-126176179D01*
X159703363Y-126289739D01*
X159599708Y-126385211D01*
X159483887Y-126462073D01*
X159356586Y-126519797D01*
X159218489Y-126557858D01*
X159180793Y-126563666D01*
X159101752Y-126569396D01*
X159013629Y-126569583D01*
X158924236Y-126564539D01*
X158841384Y-126554578D01*
X158772887Y-126540012D01*
X158742035Y-126530364D01*
X158664730Y-126500123D01*
X158587679Y-126462617D01*
X158518200Y-126421614D01*
X158463615Y-126380879D01*
X158440916Y-126361505D01*
X158418201Y-126343662D01*
X158406779Y-126336778D01*
X158405537Y-126338424D01*
X158402728Y-126356205D01*
X158400776Y-126389370D01*
X158400045Y-126432733D01*
X158400045Y-126528689D01*
X157541896Y-126528689D01*
X157576161Y-126467974D01*
X157581355Y-126458868D01*
X157589715Y-126444249D01*
X157597288Y-126430173D01*
X157604112Y-126415540D01*
X157610227Y-126399249D01*
X157615673Y-126380198D01*
X157620487Y-126357286D01*
X157624708Y-126329413D01*
X157628377Y-126295478D01*
X157631531Y-126254379D01*
X157634211Y-126205015D01*
X157636454Y-126146286D01*
X157638299Y-126077090D01*
X157639787Y-125996326D01*
X157640955Y-125902894D01*
X157641678Y-125815721D01*
X158445200Y-125815721D01*
X158515756Y-125862089D01*
X158556417Y-125885791D01*
X158610546Y-125911639D01*
X158659689Y-125929829D01*
X158723165Y-125945551D01*
X158819331Y-125956541D01*
X158903900Y-125948365D01*
X158977219Y-125920805D01*
X159039637Y-125873642D01*
X159091502Y-125806658D01*
X159133160Y-125719633D01*
X159164962Y-125612350D01*
X159167545Y-125600009D01*
X159176000Y-125538772D01*
X159181663Y-125461692D01*
X159184576Y-125374002D01*
X159184783Y-125280934D01*
X159182330Y-125187720D01*
X159177261Y-125099594D01*
X159169619Y-125021788D01*
X159159448Y-124959533D01*
X159158167Y-124953666D01*
X159129126Y-124843121D01*
X159094610Y-124752575D01*
X159053456Y-124679953D01*
X159004499Y-124623181D01*
X158946574Y-124580184D01*
X158914620Y-124564615D01*
X158841784Y-124545722D01*
X158760443Y-124542465D01*
X158675319Y-124554389D01*
X158591133Y-124581040D01*
X158512608Y-124621962D01*
X158445200Y-124665530D01*
X158445200Y-125815721D01*
X157641678Y-125815721D01*
X157641844Y-125795692D01*
X157642491Y-125673620D01*
X157642936Y-125535576D01*
X157643218Y-125380459D01*
X157643375Y-125207168D01*
X157643448Y-125014603D01*
X157643474Y-124801662D01*
X157643493Y-124567245D01*
X157643689Y-122882378D01*
X158549017Y-122882378D01*
X158524585Y-122919067D01*
X158518318Y-122928647D01*
X158492208Y-122974981D01*
X158474469Y-123022102D01*
X158462908Y-123077251D01*
X158455331Y-123147667D01*
X158454839Y-123154650D01*
X158453062Y-123192641D01*
X158451444Y-123246576D01*
X158449999Y-123313703D01*
X158448740Y-123391271D01*
X158447680Y-123476528D01*
X158446829Y-123566724D01*
X158446203Y-123659107D01*
X158445812Y-123750925D01*
X158445670Y-123839427D01*
X158445790Y-123921862D01*
X158446183Y-123995479D01*
X158446862Y-124057526D01*
X158447841Y-124105251D01*
X158449132Y-124135904D01*
X158450747Y-124146733D01*
X158458957Y-124142333D01*
X158480647Y-124127362D01*
X158510014Y-124105448D01*
X158558879Y-124071236D01*
X158647125Y-124024714D01*
X158745916Y-123991046D01*
X158858510Y-123969231D01*
X158988164Y-123958265D01*
X159080670Y-123957219D01*
X159202011Y-123967014D01*
X159312099Y-123991174D01*
X159415389Y-124030785D01*
X159516338Y-124086932D01*
X159561503Y-124117883D01*
X159666911Y-124209115D01*
X159758538Y-124318106D01*
X159836332Y-124444726D01*
X159900241Y-124588845D01*
X159950214Y-124750332D01*
X159986198Y-124929059D01*
X160008143Y-125124895D01*
X160013900Y-125280934D01*
X160015994Y-125337711D01*
X160015268Y-125415158D01*
G37*
D15*
X160015268Y-125415158D02*
X160006689Y-125566594D01*
X159987833Y-125703283D01*
X159957837Y-125829276D01*
X159915836Y-125948625D01*
X159860969Y-126065381D01*
X159794167Y-126176179D01*
X159703363Y-126289739D01*
X159599708Y-126385211D01*
X159483887Y-126462073D01*
X159356586Y-126519797D01*
X159218489Y-126557858D01*
X159180793Y-126563666D01*
X159101752Y-126569396D01*
X159013629Y-126569583D01*
X158924236Y-126564539D01*
X158841384Y-126554578D01*
X158772887Y-126540012D01*
X158742035Y-126530364D01*
X158664730Y-126500123D01*
X158587679Y-126462617D01*
X158518200Y-126421614D01*
X158463615Y-126380879D01*
X158440916Y-126361505D01*
X158418201Y-126343662D01*
X158406779Y-126336778D01*
X158405537Y-126338424D01*
X158402728Y-126356205D01*
X158400776Y-126389370D01*
X158400045Y-126432733D01*
X158400045Y-126528689D01*
X157541896Y-126528689D01*
X157576161Y-126467974D01*
X157581355Y-126458868D01*
X157589715Y-126444249D01*
X157597288Y-126430173D01*
X157604112Y-126415540D01*
X157610227Y-126399249D01*
X157615673Y-126380198D01*
X157620487Y-126357286D01*
X157624708Y-126329413D01*
X157628377Y-126295478D01*
X157631531Y-126254379D01*
X157634211Y-126205015D01*
X157636454Y-126146286D01*
X157638299Y-126077090D01*
X157639787Y-125996326D01*
X157640955Y-125902894D01*
X157641678Y-125815721D01*
X158445200Y-125815721D01*
X158515756Y-125862089D01*
X158556417Y-125885791D01*
X158610546Y-125911639D01*
X158659689Y-125929829D01*
X158723165Y-125945551D01*
X158819331Y-125956541D01*
X158903900Y-125948365D01*
X158977219Y-125920805D01*
X159039637Y-125873642D01*
X159091502Y-125806658D01*
X159133160Y-125719633D01*
X159164962Y-125612350D01*
X159167545Y-125600009D01*
X159176000Y-125538772D01*
X159181663Y-125461692D01*
X159184576Y-125374002D01*
X159184783Y-125280934D01*
X159182330Y-125187720D01*
X159177261Y-125099594D01*
X159169619Y-125021788D01*
X159159448Y-124959533D01*
X159158167Y-124953666D01*
X159129126Y-124843121D01*
X159094610Y-124752575D01*
X159053456Y-124679953D01*
X159004499Y-124623181D01*
X158946574Y-124580184D01*
X158914620Y-124564615D01*
X158841784Y-124545722D01*
X158760443Y-124542465D01*
X158675319Y-124554389D01*
X158591133Y-124581040D01*
X158512608Y-124621962D01*
X158445200Y-124665530D01*
X158445200Y-125815721D01*
X157641678Y-125815721D01*
X157641844Y-125795692D01*
X157642491Y-125673620D01*
X157642936Y-125535576D01*
X157643218Y-125380459D01*
X157643375Y-125207168D01*
X157643448Y-125014603D01*
X157643474Y-124801662D01*
X157643493Y-124567245D01*
X157643689Y-122882378D01*
X158549017Y-122882378D01*
X158524585Y-122919067D01*
X158518318Y-122928647D01*
X158492208Y-122974981D01*
X158474469Y-123022102D01*
X158462908Y-123077251D01*
X158455331Y-123147667D01*
X158454839Y-123154650D01*
X158453062Y-123192641D01*
X158451444Y-123246576D01*
X158449999Y-123313703D01*
X158448740Y-123391271D01*
X158447680Y-123476528D01*
X158446829Y-123566724D01*
X158446203Y-123659107D01*
X158445812Y-123750925D01*
X158445670Y-123839427D01*
X158445790Y-123921862D01*
X158446183Y-123995479D01*
X158446862Y-124057526D01*
X158447841Y-124105251D01*
X158449132Y-124135904D01*
X158450747Y-124146733D01*
X158458957Y-124142333D01*
X158480647Y-124127362D01*
X158510014Y-124105448D01*
X158558879Y-124071236D01*
X158647125Y-124024714D01*
X158745916Y-123991046D01*
X158858510Y-123969231D01*
X158988164Y-123958265D01*
X159080670Y-123957219D01*
X159202011Y-123967014D01*
X159312099Y-123991174D01*
X159415389Y-124030785D01*
X159516338Y-124086932D01*
X159561503Y-124117883D01*
X159666911Y-124209115D01*
X159758538Y-124318106D01*
X159836332Y-124444726D01*
X159900241Y-124588845D01*
X159950214Y-124750332D01*
X159986198Y-124929059D01*
X160008143Y-125124895D01*
X160013900Y-125280934D01*
X160015994Y-125337711D01*
X160015268Y-125415158D01*
G36*
X162557261Y-125772363D02*
G01*
X162553632Y-125847202D01*
X162546022Y-125909401D01*
X162533688Y-125965984D01*
X162489313Y-126092076D01*
X162426400Y-126206679D01*
X162346238Y-126307568D01*
X162249740Y-126393924D01*
X162137822Y-126464932D01*
X162011397Y-126519776D01*
X161871378Y-126557638D01*
X161835149Y-126563351D01*
X161756155Y-126569313D01*
X161667841Y-126569646D01*
X161578075Y-126564659D01*
X161494722Y-126554666D01*
X161425651Y-126539978D01*
X161339187Y-126509749D01*
X161229286Y-126455057D01*
X161131956Y-126387543D01*
X161069867Y-126336556D01*
X161066605Y-126432622D01*
X161063343Y-126528689D01*
X160640450Y-126528689D01*
X160629543Y-126528686D01*
X160535056Y-126528380D01*
X160448331Y-126527616D01*
X160371837Y-126526451D01*
X160308043Y-126524942D01*
X160259418Y-126523147D01*
X160228433Y-126521121D01*
X160217556Y-126518922D01*
X160217578Y-126518463D01*
X160224614Y-126502910D01*
X160240434Y-126480071D01*
X160244734Y-126474638D01*
X160255777Y-126460606D01*
X160265311Y-126447186D01*
X160273461Y-126432722D01*
X160280352Y-126415556D01*
X160286111Y-126394034D01*
X160290862Y-126366498D01*
X160294731Y-126331292D01*
X160297844Y-126286760D01*
X160300325Y-126231246D01*
X160302300Y-126163093D01*
X160303894Y-126080645D01*
X160305234Y-125982246D01*
X160306444Y-125866239D01*
X160306896Y-125815462D01*
X161109378Y-125815462D01*
X161154048Y-125871973D01*
X161166785Y-125887212D01*
X161213604Y-125929844D01*
X161274255Y-125965672D01*
X161284897Y-125970850D01*
X161323676Y-125987745D01*
X161358692Y-125997909D01*
X161398722Y-126003325D01*
X161452541Y-126005978D01*
X161470648Y-126006383D01*
X161546011Y-126003540D01*
X161606743Y-125991620D01*
X161658452Y-125969037D01*
X161706746Y-125934211D01*
X161711803Y-125929798D01*
X161760272Y-125874160D01*
X161788459Y-125810333D01*
X161797752Y-125735282D01*
X161790520Y-125663693D01*
X161765796Y-125600645D01*
X161721249Y-125542758D01*
X161666319Y-125495808D01*
X161593894Y-125455961D01*
X161507340Y-125428263D01*
X161404670Y-125412096D01*
X161283894Y-125406842D01*
X161275007Y-125406857D01*
X161219660Y-125407655D01*
X161172736Y-125409488D01*
X161138953Y-125412111D01*
X161123028Y-125415274D01*
X161118943Y-125421741D01*
X161114572Y-125443875D01*
X161111604Y-125482988D01*
X161109914Y-125540939D01*
X161109378Y-125619586D01*
X161109378Y-125815462D01*
X160306896Y-125815462D01*
X160307649Y-125730968D01*
X160308975Y-125574778D01*
X160310228Y-125432012D01*
X160311651Y-125286942D01*
X160313176Y-125161027D01*
X160314933Y-125052436D01*
X160317051Y-124959334D01*
X160319660Y-124879891D01*
X160322890Y-124812273D01*
X160326869Y-124754649D01*
X160331728Y-124705185D01*
X160337597Y-124662050D01*
X160344604Y-124623410D01*
X160352880Y-124587434D01*
X160362554Y-124552289D01*
X160373756Y-124516142D01*
X160386616Y-124477161D01*
X160402090Y-124434091D01*
X160444994Y-124341871D01*
X160498735Y-124262099D01*
X160567576Y-124187965D01*
X160645185Y-124124405D01*
X160749761Y-124062725D01*
X160869244Y-124015202D01*
X161004508Y-123981567D01*
X161156426Y-123961552D01*
X161325872Y-123954889D01*
X161383890Y-123955287D01*
X161449398Y-123957335D01*
X161510693Y-123961704D01*
X161572097Y-123969035D01*
X161637932Y-123979969D01*
X161712520Y-123995147D01*
X161800184Y-124015209D01*
X161905245Y-124040797D01*
X161933806Y-124047820D01*
X162009054Y-124065776D01*
X162079388Y-124081820D01*
X162140567Y-124095028D01*
X162188354Y-124104474D01*
X162218511Y-124109231D01*
X162246783Y-124112910D01*
X162273060Y-124118187D01*
X162283059Y-124122942D01*
X162279952Y-124131781D01*
X162269194Y-124159072D01*
X162251864Y-124201906D01*
X162229126Y-124257425D01*
X162202147Y-124322772D01*
X162172090Y-124395089D01*
X162165493Y-124410879D01*
X162126907Y-124501484D01*
X162095768Y-124571217D01*
X162071917Y-124620405D01*
X162055198Y-124649374D01*
X162045454Y-124658452D01*
X162037766Y-124656405D01*
X162011415Y-124646760D01*
X161972982Y-124631190D01*
X161927822Y-124611815D01*
X161833293Y-124573814D01*
X161696480Y-124532780D01*
X161555289Y-124507612D01*
X161517314Y-124503611D01*
X161414059Y-124501447D01*
X161326952Y-124514622D01*
X161255129Y-124543756D01*
X161197731Y-124589466D01*
X161153896Y-124652372D01*
X161122762Y-124733092D01*
X161103470Y-124832245D01*
X161096050Y-124891224D01*
X161257936Y-124884445D01*
X161384495Y-124882813D01*
X161535951Y-124889194D01*
X161684396Y-124903777D01*
X161820578Y-124925882D01*
X161885245Y-124940821D01*
X162017490Y-124983741D01*
X162139762Y-125040340D01*
X162249685Y-125109017D01*
X162344883Y-125188170D01*
X162422980Y-125276196D01*
X162481599Y-125371493D01*
X162505595Y-125423864D01*
X162531232Y-125494590D01*
X162547478Y-125565812D01*
X162555822Y-125644712D01*
X162557690Y-125735282D01*
X162557755Y-125738467D01*
X162557261Y-125772363D01*
G37*
X162557261Y-125772363D02*
X162553632Y-125847202D01*
X162546022Y-125909401D01*
X162533688Y-125965984D01*
X162489313Y-126092076D01*
X162426400Y-126206679D01*
X162346238Y-126307568D01*
X162249740Y-126393924D01*
X162137822Y-126464932D01*
X162011397Y-126519776D01*
X161871378Y-126557638D01*
X161835149Y-126563351D01*
X161756155Y-126569313D01*
X161667841Y-126569646D01*
X161578075Y-126564659D01*
X161494722Y-126554666D01*
X161425651Y-126539978D01*
X161339187Y-126509749D01*
X161229286Y-126455057D01*
X161131956Y-126387543D01*
X161069867Y-126336556D01*
X161066605Y-126432622D01*
X161063343Y-126528689D01*
X160640450Y-126528689D01*
X160629543Y-126528686D01*
X160535056Y-126528380D01*
X160448331Y-126527616D01*
X160371837Y-126526451D01*
X160308043Y-126524942D01*
X160259418Y-126523147D01*
X160228433Y-126521121D01*
X160217556Y-126518922D01*
X160217578Y-126518463D01*
X160224614Y-126502910D01*
X160240434Y-126480071D01*
X160244734Y-126474638D01*
X160255777Y-126460606D01*
X160265311Y-126447186D01*
X160273461Y-126432722D01*
X160280352Y-126415556D01*
X160286111Y-126394034D01*
X160290862Y-126366498D01*
X160294731Y-126331292D01*
X160297844Y-126286760D01*
X160300325Y-126231246D01*
X160302300Y-126163093D01*
X160303894Y-126080645D01*
X160305234Y-125982246D01*
X160306444Y-125866239D01*
X160306896Y-125815462D01*
X161109378Y-125815462D01*
X161154048Y-125871973D01*
X161166785Y-125887212D01*
X161213604Y-125929844D01*
X161274255Y-125965672D01*
X161284897Y-125970850D01*
X161323676Y-125987745D01*
X161358692Y-125997909D01*
X161398722Y-126003325D01*
X161452541Y-126005978D01*
X161470648Y-126006383D01*
X161546011Y-126003540D01*
X161606743Y-125991620D01*
X161658452Y-125969037D01*
X161706746Y-125934211D01*
X161711803Y-125929798D01*
X161760272Y-125874160D01*
X161788459Y-125810333D01*
X161797752Y-125735282D01*
X161790520Y-125663693D01*
X161765796Y-125600645D01*
X161721249Y-125542758D01*
X161666319Y-125495808D01*
X161593894Y-125455961D01*
X161507340Y-125428263D01*
X161404670Y-125412096D01*
X161283894Y-125406842D01*
X161275007Y-125406857D01*
X161219660Y-125407655D01*
X161172736Y-125409488D01*
X161138953Y-125412111D01*
X161123028Y-125415274D01*
X161118943Y-125421741D01*
X161114572Y-125443875D01*
X161111604Y-125482988D01*
X161109914Y-125540939D01*
X161109378Y-125619586D01*
X161109378Y-125815462D01*
X160306896Y-125815462D01*
X160307649Y-125730968D01*
X160308975Y-125574778D01*
X160310228Y-125432012D01*
X160311651Y-125286942D01*
X160313176Y-125161027D01*
X160314933Y-125052436D01*
X160317051Y-124959334D01*
X160319660Y-124879891D01*
X160322890Y-124812273D01*
X160326869Y-124754649D01*
X160331728Y-124705185D01*
X160337597Y-124662050D01*
X160344604Y-124623410D01*
X160352880Y-124587434D01*
X160362554Y-124552289D01*
X160373756Y-124516142D01*
X160386616Y-124477161D01*
X160402090Y-124434091D01*
X160444994Y-124341871D01*
X160498735Y-124262099D01*
X160567576Y-124187965D01*
X160645185Y-124124405D01*
X160749761Y-124062725D01*
X160869244Y-124015202D01*
X161004508Y-123981567D01*
X161156426Y-123961552D01*
X161325872Y-123954889D01*
X161383890Y-123955287D01*
X161449398Y-123957335D01*
X161510693Y-123961704D01*
X161572097Y-123969035D01*
X161637932Y-123979969D01*
X161712520Y-123995147D01*
X161800184Y-124015209D01*
X161905245Y-124040797D01*
X161933806Y-124047820D01*
X162009054Y-124065776D01*
X162079388Y-124081820D01*
X162140567Y-124095028D01*
X162188354Y-124104474D01*
X162218511Y-124109231D01*
X162246783Y-124112910D01*
X162273060Y-124118187D01*
X162283059Y-124122942D01*
X162279952Y-124131781D01*
X162269194Y-124159072D01*
X162251864Y-124201906D01*
X162229126Y-124257425D01*
X162202147Y-124322772D01*
X162172090Y-124395089D01*
X162165493Y-124410879D01*
X162126907Y-124501484D01*
X162095768Y-124571217D01*
X162071917Y-124620405D01*
X162055198Y-124649374D01*
X162045454Y-124658452D01*
X162037766Y-124656405D01*
X162011415Y-124646760D01*
X161972982Y-124631190D01*
X161927822Y-124611815D01*
X161833293Y-124573814D01*
X161696480Y-124532780D01*
X161555289Y-124507612D01*
X161517314Y-124503611D01*
X161414059Y-124501447D01*
X161326952Y-124514622D01*
X161255129Y-124543756D01*
X161197731Y-124589466D01*
X161153896Y-124652372D01*
X161122762Y-124733092D01*
X161103470Y-124832245D01*
X161096050Y-124891224D01*
X161257936Y-124884445D01*
X161384495Y-124882813D01*
X161535951Y-124889194D01*
X161684396Y-124903777D01*
X161820578Y-124925882D01*
X161885245Y-124940821D01*
X162017490Y-124983741D01*
X162139762Y-125040340D01*
X162249685Y-125109017D01*
X162344883Y-125188170D01*
X162422980Y-125276196D01*
X162481599Y-125371493D01*
X162505595Y-125423864D01*
X162531232Y-125494590D01*
X162547478Y-125565812D01*
X162555822Y-125644712D01*
X162557690Y-125735282D01*
X162557755Y-125738467D01*
X162557261Y-125772363D01*
G36*
X170106059Y-123338011D02*
G01*
X170106362Y-123485216D01*
X170106548Y-123649349D01*
X170106642Y-123831352D01*
X170106671Y-124032165D01*
X170106661Y-124252732D01*
X170106636Y-124493992D01*
X170106622Y-124756889D01*
X170106622Y-124799040D01*
X170106646Y-125059668D01*
X170106685Y-125298796D01*
X170106708Y-125517360D01*
X170106687Y-125716295D01*
X170106593Y-125896535D01*
X170106395Y-126059015D01*
X170106063Y-126204670D01*
X170105569Y-126334434D01*
X170104883Y-126449243D01*
X170103976Y-126550030D01*
X170102817Y-126637730D01*
X170101378Y-126713279D01*
X170099629Y-126777611D01*
X170097540Y-126831661D01*
X170095083Y-126876363D01*
X170092227Y-126912652D01*
X170088943Y-126941463D01*
X170085202Y-126963731D01*
X170080974Y-126980390D01*
X170076229Y-126992375D01*
X170070939Y-127000621D01*
X170065073Y-127006062D01*
X170058602Y-127009634D01*
X170051497Y-127012270D01*
X170043728Y-127014906D01*
X170035266Y-127018477D01*
X170030908Y-127020145D01*
X170022395Y-127022111D01*
X170009694Y-127023911D01*
X169991885Y-127025555D01*
X169968049Y-127027047D01*
X169937266Y-127028397D01*
X169898617Y-127029611D01*
X169851182Y-127030697D01*
X169794043Y-127031661D01*
X169726279Y-127032511D01*
X169646971Y-127033253D01*
X169555199Y-127033897D01*
X169450044Y-127034447D01*
X169330587Y-127034913D01*
X169195908Y-127035300D01*
X169045088Y-127035616D01*
X168877206Y-127035869D01*
X168691345Y-127036066D01*
X168486583Y-127036213D01*
X168262002Y-127036318D01*
X168016682Y-127036389D01*
X167749704Y-127036432D01*
X167711321Y-127036437D01*
X167445922Y-127036480D01*
X167202050Y-127036525D01*
X166978783Y-127036548D01*
X166775196Y-127036524D01*
X166590367Y-127036430D01*
X166423373Y-127036243D01*
X166273290Y-127035939D01*
X166139196Y-127035494D01*
X166020166Y-127034885D01*
X165915279Y-127034089D01*
X165823610Y-127033080D01*
X165744237Y-127031837D01*
X165676237Y-127030335D01*
X165618686Y-127028551D01*
X165570662Y-127026461D01*
X165531240Y-127024042D01*
X165499499Y-127021270D01*
X165474514Y-127018121D01*
X165455364Y-127014572D01*
X165441123Y-127010598D01*
X165430871Y-127006178D01*
X165423682Y-127001286D01*
X165418635Y-126995900D01*
X165414805Y-126989996D01*
X165411271Y-126983549D01*
X165407108Y-126976537D01*
X165406025Y-126974687D01*
X165403813Y-126969180D01*
X165401786Y-126960868D01*
X165399938Y-126948809D01*
X165398261Y-126932063D01*
X165396745Y-126909687D01*
X165395383Y-126880740D01*
X165394167Y-126844280D01*
X165393089Y-126799367D01*
X165392140Y-126745057D01*
X165391312Y-126680410D01*
X165390597Y-126604484D01*
X165389987Y-126516338D01*
X165389942Y-126507493D01*
X165681378Y-126507493D01*
X165685260Y-126508765D01*
X165708520Y-126510791D01*
X165750874Y-126512626D01*
X165810132Y-126514227D01*
X165884107Y-126515549D01*
X165970610Y-126516548D01*
X166067452Y-126517180D01*
X166172445Y-126517400D01*
X166870651Y-126517400D01*
X168025090Y-126517400D01*
X168024456Y-126441200D01*
X168025574Y-126399160D01*
X168031304Y-126363334D01*
X168043890Y-126325772D01*
X168065568Y-126277577D01*
X168068789Y-126270897D01*
X168094188Y-126221359D01*
X168120996Y-126173369D01*
X168143917Y-126136466D01*
X168148485Y-126129834D01*
X168170516Y-126098593D01*
X168202693Y-126053654D01*
X168243457Y-125997147D01*
X168291245Y-125931204D01*
X168344498Y-125857957D01*
X168401655Y-125779536D01*
X168461155Y-125698072D01*
X168521437Y-125615698D01*
X168580940Y-125534544D01*
X168638105Y-125456742D01*
X168691370Y-125384423D01*
X168739174Y-125319718D01*
X168779957Y-125264759D01*
X168812158Y-125221676D01*
X168834216Y-125192602D01*
X168844571Y-125179667D01*
X168849044Y-125175351D01*
X168853236Y-125173312D01*
X168856643Y-125175926D01*
X168859325Y-125184986D01*
X168861341Y-125202285D01*
X168862748Y-125229614D01*
X168863605Y-125268765D01*
X168863970Y-125321533D01*
X168863903Y-125389707D01*
X168863460Y-125475082D01*
X168862702Y-125579449D01*
X168861685Y-125704600D01*
X168861308Y-125749300D01*
X168860169Y-125870395D01*
X168858972Y-125971688D01*
X168857636Y-126055262D01*
X168856077Y-126123204D01*
X168854215Y-126177599D01*
X168851966Y-126220532D01*
X168849248Y-126254089D01*
X168845979Y-126280355D01*
X168842078Y-126301416D01*
X168837461Y-126319357D01*
X168829192Y-126345770D01*
X168805583Y-126407772D01*
X168779685Y-126460573D01*
X168754535Y-126497645D01*
X168753339Y-126499075D01*
X168751168Y-126503424D01*
X168753328Y-126507026D01*
X168761644Y-126509951D01*
X168777940Y-126512269D01*
X168804041Y-126514051D01*
X168841771Y-126515367D01*
X168892956Y-126516286D01*
X168959420Y-126516878D01*
X169042987Y-126517215D01*
X169145483Y-126517365D01*
X169268732Y-126517400D01*
X169800296Y-126517400D01*
X169761523Y-126459783D01*
X169755432Y-126450893D01*
X169744976Y-126436069D01*
X169735579Y-126422422D01*
X169727183Y-126408765D01*
X169719733Y-126393911D01*
X169713173Y-126376670D01*
X169707446Y-126355855D01*
X169702495Y-126330280D01*
X169698266Y-126298755D01*
X169694701Y-126260093D01*
X169691744Y-126213107D01*
X169689340Y-126156608D01*
X169687431Y-126089409D01*
X169685962Y-126010322D01*
X169684876Y-125918160D01*
X169684118Y-125811734D01*
X169683630Y-125689857D01*
X169683358Y-125551341D01*
X169683243Y-125394999D01*
X169683231Y-125219642D01*
X169683265Y-125024082D01*
X169683289Y-124807133D01*
X169683280Y-124684513D01*
X169683243Y-124479447D01*
X169683227Y-124295116D01*
X169683288Y-124130334D01*
X169683484Y-123983916D01*
X169683870Y-123854674D01*
X169684505Y-123741422D01*
X169685444Y-123642975D01*
X169686745Y-123558144D01*
X169688464Y-123485744D01*
X169690659Y-123424589D01*
X169693385Y-123373492D01*
X169696701Y-123331267D01*
X169700662Y-123296727D01*
X169705325Y-123268686D01*
X169710747Y-123245958D01*
X169716986Y-123227356D01*
X169724097Y-123211693D01*
X169732138Y-123197784D01*
X169741166Y-123184441D01*
X169751236Y-123170479D01*
X169762407Y-123154711D01*
X169802197Y-123096867D01*
X168742314Y-123096867D01*
X168780311Y-123159966D01*
X168794993Y-123185005D01*
X168809531Y-123212586D01*
X168821627Y-123240700D01*
X168831532Y-123271551D01*
X168839494Y-123307344D01*
X168845761Y-123350283D01*
X168850582Y-123402574D01*
X168854206Y-123466419D01*
X168856881Y-123544025D01*
X168858857Y-123637594D01*
X168860382Y-123749333D01*
X168861704Y-123881445D01*
X168862613Y-124001434D01*
X168863020Y-124118063D01*
X168862767Y-124213531D01*
X168861857Y-124287556D01*
X168860293Y-124339855D01*
X168858079Y-124370149D01*
X168855220Y-124378156D01*
X168852161Y-124374858D01*
X168834006Y-124353408D01*
X168804275Y-124316889D01*
X168764639Y-124267442D01*
X168716771Y-124207207D01*
X168662343Y-124138327D01*
X168603027Y-124062943D01*
X168540495Y-123983196D01*
X168476421Y-123901228D01*
X168412475Y-123819180D01*
X168350331Y-123739194D01*
X168291661Y-123663411D01*
X168238137Y-123593973D01*
X168191430Y-123533021D01*
X168153214Y-123482696D01*
X168125161Y-123445140D01*
X168108943Y-123422495D01*
X168063635Y-123350212D01*
X168023661Y-123270463D01*
X168002130Y-123202188D01*
X167998827Y-123144844D01*
X168004116Y-123096867D01*
X166872356Y-123097117D01*
X166911867Y-123127722D01*
X166921248Y-123135089D01*
X166984183Y-123189438D01*
X167052997Y-123257259D01*
X167129596Y-123340516D01*
X167215888Y-123441178D01*
X167233052Y-123461847D01*
X167273833Y-123511409D01*
X167323588Y-123572326D01*
X167380955Y-123642898D01*
X167444569Y-123721424D01*
X167513069Y-123806204D01*
X167585090Y-123895537D01*
X167659270Y-123987722D01*
X167674517Y-124006702D01*
X167734246Y-124081060D01*
X167808653Y-124173848D01*
X167881131Y-124264388D01*
X167950314Y-124350978D01*
X168014841Y-124431918D01*
X168073347Y-124505506D01*
X168124470Y-124570044D01*
X168166847Y-124623829D01*
X168199115Y-124665162D01*
X168219910Y-124692342D01*
X168227869Y-124703668D01*
X168226111Y-124707771D01*
X168213230Y-124728334D01*
X168188885Y-124764561D01*
X168154247Y-124814824D01*
X168110486Y-124877492D01*
X168058775Y-124950936D01*
X168000284Y-125033527D01*
X167936184Y-125123636D01*
X167867646Y-125219631D01*
X167795843Y-125319885D01*
X167721944Y-125422768D01*
X167647121Y-125526650D01*
X167572545Y-125629901D01*
X167499387Y-125730892D01*
X167428819Y-125827994D01*
X167362011Y-125919577D01*
X167300135Y-126004011D01*
X167244361Y-126079667D01*
X167195862Y-126144916D01*
X167155807Y-126198128D01*
X167125369Y-126237673D01*
X167104944Y-126263026D01*
X167058899Y-126317295D01*
X167008612Y-126373775D01*
X166961815Y-126423669D01*
X166870651Y-126517400D01*
X166172445Y-126517400D01*
X166241356Y-126517349D01*
X166339607Y-126517091D01*
X166429030Y-126516637D01*
X166507333Y-126516010D01*
X166572223Y-126515235D01*
X166621411Y-126514335D01*
X166652604Y-126513334D01*
X166663511Y-126512257D01*
X166662322Y-126509037D01*
X166652176Y-126491452D01*
X166635040Y-126465158D01*
X166626540Y-126452691D01*
X166617329Y-126438622D01*
X166609233Y-126424351D01*
X166602185Y-126408479D01*
X166596117Y-126389609D01*
X166590961Y-126366341D01*
X166586651Y-126337278D01*
X166583119Y-126301021D01*
X166580297Y-126256170D01*
X166578118Y-126201328D01*
X166576514Y-126135097D01*
X166575419Y-126056077D01*
X166574765Y-125962871D01*
X166574484Y-125854079D01*
X166574509Y-125728303D01*
X166574772Y-125584145D01*
X166575206Y-125420207D01*
X166575745Y-125235089D01*
X166576279Y-125056232D01*
X166576805Y-124897374D01*
X166577350Y-124758316D01*
X166577945Y-124637665D01*
X166578619Y-124534028D01*
X166579403Y-124446011D01*
X166580326Y-124372223D01*
X166581419Y-124311269D01*
X166582712Y-124261757D01*
X166584235Y-124222293D01*
X166586019Y-124191484D01*
X166588092Y-124167938D01*
X166590486Y-124150260D01*
X166593230Y-124137059D01*
X166596356Y-124126940D01*
X166599892Y-124118511D01*
X166603791Y-124110375D01*
X166623438Y-124073544D01*
X166642225Y-124043391D01*
X166643272Y-124041908D01*
X166657602Y-124019659D01*
X166663511Y-124006702D01*
X166662504Y-124006249D01*
X166645305Y-124004803D01*
X166608656Y-124003480D01*
X166554962Y-124002316D01*
X166486630Y-124001347D01*
X166406064Y-124000611D01*
X166315670Y-124000142D01*
X166217853Y-123999978D01*
X165772195Y-123999978D01*
X165769120Y-125176845D01*
X165766045Y-126353711D01*
X165739407Y-126412622D01*
X165727485Y-126437183D01*
X165710246Y-126467434D01*
X165697074Y-126484560D01*
X165689076Y-126492591D01*
X165681378Y-126507493D01*
X165389942Y-126507493D01*
X165389474Y-126415029D01*
X165389050Y-126299617D01*
X165388706Y-126169160D01*
X165388434Y-126022716D01*
X165388227Y-125859344D01*
X165388076Y-125678101D01*
X165387972Y-125478048D01*
X165387908Y-125258241D01*
X165387876Y-125017739D01*
X165387867Y-124755602D01*
X165387867Y-122564031D01*
X165426249Y-122525649D01*
X165453355Y-122501911D01*
X165480253Y-122490111D01*
X165516560Y-122487267D01*
X165568489Y-122487267D01*
X165568489Y-122575206D01*
X165570427Y-122625102D01*
X165589199Y-122735523D01*
X165626217Y-122836987D01*
X165679369Y-122928152D01*
X165746546Y-123007673D01*
X165825638Y-123074205D01*
X165914534Y-123126406D01*
X166011125Y-123162930D01*
X166113300Y-123182434D01*
X166218950Y-123183573D01*
X166325964Y-123165005D01*
X166432232Y-123125384D01*
X166529219Y-123067516D01*
X166614293Y-122992684D01*
X166683015Y-122904615D01*
X166733918Y-122805616D01*
X166765535Y-122697993D01*
X166776400Y-122584054D01*
X166776400Y-122487267D01*
X168396753Y-122487267D01*
X168607897Y-122487280D01*
X168812020Y-122487330D01*
X168995686Y-122487430D01*
X169159991Y-122487592D01*
X169306029Y-122487829D01*
X169434894Y-122488153D01*
X169547683Y-122488575D01*
X169645488Y-122489109D01*
X169729404Y-122489767D01*
X169800527Y-122490561D01*
X169859950Y-122491504D01*
X169908768Y-122492608D01*
X169948077Y-122493884D01*
X169978969Y-122495347D01*
X170002541Y-122497007D01*
X170019886Y-122498878D01*
X170032099Y-122500972D01*
X170040275Y-122503300D01*
X170045508Y-122505876D01*
X170051504Y-122509445D01*
X170058279Y-122512978D01*
X170064478Y-122516488D01*
X170070126Y-122520918D01*
X170075247Y-122527208D01*
X170079869Y-122536301D01*
X170084015Y-122549139D01*
X170087713Y-122566662D01*
X170090987Y-122589813D01*
X170093863Y-122619534D01*
X170096367Y-122656765D01*
X170098524Y-122702449D01*
X170100360Y-122757527D01*
X170101900Y-122822941D01*
X170103170Y-122899633D01*
X170104195Y-122988544D01*
X170105001Y-123090617D01*
X170105034Y-123096867D01*
X170105614Y-123206792D01*
X170106059Y-123338011D01*
G37*
X170106059Y-123338011D02*
X170106362Y-123485216D01*
X170106548Y-123649349D01*
X170106642Y-123831352D01*
X170106671Y-124032165D01*
X170106661Y-124252732D01*
X170106636Y-124493992D01*
X170106622Y-124756889D01*
X170106622Y-124799040D01*
X170106646Y-125059668D01*
X170106685Y-125298796D01*
X170106708Y-125517360D01*
X170106687Y-125716295D01*
X170106593Y-125896535D01*
X170106395Y-126059015D01*
X170106063Y-126204670D01*
X170105569Y-126334434D01*
X170104883Y-126449243D01*
X170103976Y-126550030D01*
X170102817Y-126637730D01*
X170101378Y-126713279D01*
X170099629Y-126777611D01*
X170097540Y-126831661D01*
X170095083Y-126876363D01*
X170092227Y-126912652D01*
X170088943Y-126941463D01*
X170085202Y-126963731D01*
X170080974Y-126980390D01*
X170076229Y-126992375D01*
X170070939Y-127000621D01*
X170065073Y-127006062D01*
X170058602Y-127009634D01*
X170051497Y-127012270D01*
X170043728Y-127014906D01*
X170035266Y-127018477D01*
X170030908Y-127020145D01*
X170022395Y-127022111D01*
X170009694Y-127023911D01*
X169991885Y-127025555D01*
X169968049Y-127027047D01*
X169937266Y-127028397D01*
X169898617Y-127029611D01*
X169851182Y-127030697D01*
X169794043Y-127031661D01*
X169726279Y-127032511D01*
X169646971Y-127033253D01*
X169555199Y-127033897D01*
X169450044Y-127034447D01*
X169330587Y-127034913D01*
X169195908Y-127035300D01*
X169045088Y-127035616D01*
X168877206Y-127035869D01*
X168691345Y-127036066D01*
X168486583Y-127036213D01*
X168262002Y-127036318D01*
X168016682Y-127036389D01*
X167749704Y-127036432D01*
X167711321Y-127036437D01*
X167445922Y-127036480D01*
X167202050Y-127036525D01*
X166978783Y-127036548D01*
X166775196Y-127036524D01*
X166590367Y-127036430D01*
X166423373Y-127036243D01*
X166273290Y-127035939D01*
X166139196Y-127035494D01*
X166020166Y-127034885D01*
X165915279Y-127034089D01*
X165823610Y-127033080D01*
X165744237Y-127031837D01*
X165676237Y-127030335D01*
X165618686Y-127028551D01*
X165570662Y-127026461D01*
X165531240Y-127024042D01*
X165499499Y-127021270D01*
X165474514Y-127018121D01*
X165455364Y-127014572D01*
X165441123Y-127010598D01*
X165430871Y-127006178D01*
X165423682Y-127001286D01*
X165418635Y-126995900D01*
X165414805Y-126989996D01*
X165411271Y-126983549D01*
X165407108Y-126976537D01*
X165406025Y-126974687D01*
X165403813Y-126969180D01*
X165401786Y-126960868D01*
X165399938Y-126948809D01*
X165398261Y-126932063D01*
X165396745Y-126909687D01*
X165395383Y-126880740D01*
X165394167Y-126844280D01*
X165393089Y-126799367D01*
X165392140Y-126745057D01*
X165391312Y-126680410D01*
X165390597Y-126604484D01*
X165389987Y-126516338D01*
X165389942Y-126507493D01*
X165681378Y-126507493D01*
X165685260Y-126508765D01*
X165708520Y-126510791D01*
X165750874Y-126512626D01*
X165810132Y-126514227D01*
X165884107Y-126515549D01*
X165970610Y-126516548D01*
X166067452Y-126517180D01*
X166172445Y-126517400D01*
X166870651Y-126517400D01*
X168025090Y-126517400D01*
X168024456Y-126441200D01*
X168025574Y-126399160D01*
X168031304Y-126363334D01*
X168043890Y-126325772D01*
X168065568Y-126277577D01*
X168068789Y-126270897D01*
X168094188Y-126221359D01*
X168120996Y-126173369D01*
X168143917Y-126136466D01*
X168148485Y-126129834D01*
X168170516Y-126098593D01*
X168202693Y-126053654D01*
X168243457Y-125997147D01*
X168291245Y-125931204D01*
X168344498Y-125857957D01*
X168401655Y-125779536D01*
X168461155Y-125698072D01*
X168521437Y-125615698D01*
X168580940Y-125534544D01*
X168638105Y-125456742D01*
X168691370Y-125384423D01*
X168739174Y-125319718D01*
X168779957Y-125264759D01*
X168812158Y-125221676D01*
X168834216Y-125192602D01*
X168844571Y-125179667D01*
X168849044Y-125175351D01*
X168853236Y-125173312D01*
X168856643Y-125175926D01*
X168859325Y-125184986D01*
X168861341Y-125202285D01*
X168862748Y-125229614D01*
X168863605Y-125268765D01*
X168863970Y-125321533D01*
X168863903Y-125389707D01*
X168863460Y-125475082D01*
X168862702Y-125579449D01*
X168861685Y-125704600D01*
X168861308Y-125749300D01*
X168860169Y-125870395D01*
X168858972Y-125971688D01*
X168857636Y-126055262D01*
X168856077Y-126123204D01*
X168854215Y-126177599D01*
X168851966Y-126220532D01*
X168849248Y-126254089D01*
X168845979Y-126280355D01*
X168842078Y-126301416D01*
X168837461Y-126319357D01*
X168829192Y-126345770D01*
X168805583Y-126407772D01*
X168779685Y-126460573D01*
X168754535Y-126497645D01*
X168753339Y-126499075D01*
X168751168Y-126503424D01*
X168753328Y-126507026D01*
X168761644Y-126509951D01*
X168777940Y-126512269D01*
X168804041Y-126514051D01*
X168841771Y-126515367D01*
X168892956Y-126516286D01*
X168959420Y-126516878D01*
X169042987Y-126517215D01*
X169145483Y-126517365D01*
X169268732Y-126517400D01*
X169800296Y-126517400D01*
X169761523Y-126459783D01*
X169755432Y-126450893D01*
X169744976Y-126436069D01*
X169735579Y-126422422D01*
X169727183Y-126408765D01*
X169719733Y-126393911D01*
X169713173Y-126376670D01*
X169707446Y-126355855D01*
X169702495Y-126330280D01*
X169698266Y-126298755D01*
X169694701Y-126260093D01*
X169691744Y-126213107D01*
X169689340Y-126156608D01*
X169687431Y-126089409D01*
X169685962Y-126010322D01*
X169684876Y-125918160D01*
X169684118Y-125811734D01*
X169683630Y-125689857D01*
X169683358Y-125551341D01*
X169683243Y-125394999D01*
X169683231Y-125219642D01*
X169683265Y-125024082D01*
X169683289Y-124807133D01*
X169683280Y-124684513D01*
X169683243Y-124479447D01*
X169683227Y-124295116D01*
X169683288Y-124130334D01*
X169683484Y-123983916D01*
X169683870Y-123854674D01*
X169684505Y-123741422D01*
X169685444Y-123642975D01*
X169686745Y-123558144D01*
X169688464Y-123485744D01*
X169690659Y-123424589D01*
X169693385Y-123373492D01*
X169696701Y-123331267D01*
X169700662Y-123296727D01*
X169705325Y-123268686D01*
X169710747Y-123245958D01*
X169716986Y-123227356D01*
X169724097Y-123211693D01*
X169732138Y-123197784D01*
X169741166Y-123184441D01*
X169751236Y-123170479D01*
X169762407Y-123154711D01*
X169802197Y-123096867D01*
X168742314Y-123096867D01*
X168780311Y-123159966D01*
X168794993Y-123185005D01*
X168809531Y-123212586D01*
X168821627Y-123240700D01*
X168831532Y-123271551D01*
X168839494Y-123307344D01*
X168845761Y-123350283D01*
X168850582Y-123402574D01*
X168854206Y-123466419D01*
X168856881Y-123544025D01*
X168858857Y-123637594D01*
X168860382Y-123749333D01*
X168861704Y-123881445D01*
X168862613Y-124001434D01*
X168863020Y-124118063D01*
X168862767Y-124213531D01*
X168861857Y-124287556D01*
X168860293Y-124339855D01*
X168858079Y-124370149D01*
X168855220Y-124378156D01*
X168852161Y-124374858D01*
X168834006Y-124353408D01*
X168804275Y-124316889D01*
X168764639Y-124267442D01*
X168716771Y-124207207D01*
X168662343Y-124138327D01*
X168603027Y-124062943D01*
X168540495Y-123983196D01*
X168476421Y-123901228D01*
X168412475Y-123819180D01*
X168350331Y-123739194D01*
X168291661Y-123663411D01*
X168238137Y-123593973D01*
X168191430Y-123533021D01*
X168153214Y-123482696D01*
X168125161Y-123445140D01*
X168108943Y-123422495D01*
X168063635Y-123350212D01*
X168023661Y-123270463D01*
X168002130Y-123202188D01*
X167998827Y-123144844D01*
X168004116Y-123096867D01*
X166872356Y-123097117D01*
X166911867Y-123127722D01*
X166921248Y-123135089D01*
X166984183Y-123189438D01*
X167052997Y-123257259D01*
X167129596Y-123340516D01*
X167215888Y-123441178D01*
X167233052Y-123461847D01*
X167273833Y-123511409D01*
X167323588Y-123572326D01*
X167380955Y-123642898D01*
X167444569Y-123721424D01*
X167513069Y-123806204D01*
X167585090Y-123895537D01*
X167659270Y-123987722D01*
X167674517Y-124006702D01*
X167734246Y-124081060D01*
X167808653Y-124173848D01*
X167881131Y-124264388D01*
X167950314Y-124350978D01*
X168014841Y-124431918D01*
X168073347Y-124505506D01*
X168124470Y-124570044D01*
X168166847Y-124623829D01*
X168199115Y-124665162D01*
X168219910Y-124692342D01*
X168227869Y-124703668D01*
X168226111Y-124707771D01*
X168213230Y-124728334D01*
X168188885Y-124764561D01*
X168154247Y-124814824D01*
X168110486Y-124877492D01*
X168058775Y-124950936D01*
X168000284Y-125033527D01*
X167936184Y-125123636D01*
X167867646Y-125219631D01*
X167795843Y-125319885D01*
X167721944Y-125422768D01*
X167647121Y-125526650D01*
X167572545Y-125629901D01*
X167499387Y-125730892D01*
X167428819Y-125827994D01*
X167362011Y-125919577D01*
X167300135Y-126004011D01*
X167244361Y-126079667D01*
X167195862Y-126144916D01*
X167155807Y-126198128D01*
X167125369Y-126237673D01*
X167104944Y-126263026D01*
X167058899Y-126317295D01*
X167008612Y-126373775D01*
X166961815Y-126423669D01*
X166870651Y-126517400D01*
X166172445Y-126517400D01*
X166241356Y-126517349D01*
X166339607Y-126517091D01*
X166429030Y-126516637D01*
X166507333Y-126516010D01*
X166572223Y-126515235D01*
X166621411Y-126514335D01*
X166652604Y-126513334D01*
X166663511Y-126512257D01*
X166662322Y-126509037D01*
X166652176Y-126491452D01*
X166635040Y-126465158D01*
X166626540Y-126452691D01*
X166617329Y-126438622D01*
X166609233Y-126424351D01*
X166602185Y-126408479D01*
X166596117Y-126389609D01*
X166590961Y-126366341D01*
X166586651Y-126337278D01*
X166583119Y-126301021D01*
X166580297Y-126256170D01*
X166578118Y-126201328D01*
X166576514Y-126135097D01*
X166575419Y-126056077D01*
X166574765Y-125962871D01*
X166574484Y-125854079D01*
X166574509Y-125728303D01*
X166574772Y-125584145D01*
X166575206Y-125420207D01*
X166575745Y-125235089D01*
X166576279Y-125056232D01*
X166576805Y-124897374D01*
X166577350Y-124758316D01*
X166577945Y-124637665D01*
X166578619Y-124534028D01*
X166579403Y-124446011D01*
X166580326Y-124372223D01*
X166581419Y-124311269D01*
X166582712Y-124261757D01*
X166584235Y-124222293D01*
X166586019Y-124191484D01*
X166588092Y-124167938D01*
X166590486Y-124150260D01*
X166593230Y-124137059D01*
X166596356Y-124126940D01*
X166599892Y-124118511D01*
X166603791Y-124110375D01*
X166623438Y-124073544D01*
X166642225Y-124043391D01*
X166643272Y-124041908D01*
X166657602Y-124019659D01*
X166663511Y-124006702D01*
X166662504Y-124006249D01*
X166645305Y-124004803D01*
X166608656Y-124003480D01*
X166554962Y-124002316D01*
X166486630Y-124001347D01*
X166406064Y-124000611D01*
X166315670Y-124000142D01*
X166217853Y-123999978D01*
X165772195Y-123999978D01*
X165769120Y-125176845D01*
X165766045Y-126353711D01*
X165739407Y-126412622D01*
X165727485Y-126437183D01*
X165710246Y-126467434D01*
X165697074Y-126484560D01*
X165689076Y-126492591D01*
X165681378Y-126507493D01*
X165389942Y-126507493D01*
X165389474Y-126415029D01*
X165389050Y-126299617D01*
X165388706Y-126169160D01*
X165388434Y-126022716D01*
X165388227Y-125859344D01*
X165388076Y-125678101D01*
X165387972Y-125478048D01*
X165387908Y-125258241D01*
X165387876Y-125017739D01*
X165387867Y-124755602D01*
X165387867Y-122564031D01*
X165426249Y-122525649D01*
X165453355Y-122501911D01*
X165480253Y-122490111D01*
X165516560Y-122487267D01*
X165568489Y-122487267D01*
X165568489Y-122575206D01*
X165570427Y-122625102D01*
X165589199Y-122735523D01*
X165626217Y-122836987D01*
X165679369Y-122928152D01*
X165746546Y-123007673D01*
X165825638Y-123074205D01*
X165914534Y-123126406D01*
X166011125Y-123162930D01*
X166113300Y-123182434D01*
X166218950Y-123183573D01*
X166325964Y-123165005D01*
X166432232Y-123125384D01*
X166529219Y-123067516D01*
X166614293Y-122992684D01*
X166683015Y-122904615D01*
X166733918Y-122805616D01*
X166765535Y-122697993D01*
X166776400Y-122584054D01*
X166776400Y-122487267D01*
X168396753Y-122487267D01*
X168607897Y-122487280D01*
X168812020Y-122487330D01*
X168995686Y-122487430D01*
X169159991Y-122487592D01*
X169306029Y-122487829D01*
X169434894Y-122488153D01*
X169547683Y-122488575D01*
X169645488Y-122489109D01*
X169729404Y-122489767D01*
X169800527Y-122490561D01*
X169859950Y-122491504D01*
X169908768Y-122492608D01*
X169948077Y-122493884D01*
X169978969Y-122495347D01*
X170002541Y-122497007D01*
X170019886Y-122498878D01*
X170032099Y-122500972D01*
X170040275Y-122503300D01*
X170045508Y-122505876D01*
X170051504Y-122509445D01*
X170058279Y-122512978D01*
X170064478Y-122516488D01*
X170070126Y-122520918D01*
X170075247Y-122527208D01*
X170079869Y-122536301D01*
X170084015Y-122549139D01*
X170087713Y-122566662D01*
X170090987Y-122589813D01*
X170093863Y-122619534D01*
X170096367Y-122656765D01*
X170098524Y-122702449D01*
X170100360Y-122757527D01*
X170101900Y-122822941D01*
X170103170Y-122899633D01*
X170104195Y-122988544D01*
X170105001Y-123090617D01*
X170105034Y-123096867D01*
X170105614Y-123206792D01*
X170106059Y-123338011D01*
G36*
X166284562Y-122127850D02*
G01*
X166367313Y-122155053D01*
X166442406Y-122200484D01*
X166514298Y-122266302D01*
X166552846Y-122310567D01*
X166592256Y-122368961D01*
X166617446Y-122429586D01*
X166630861Y-122498865D01*
X166634948Y-122583222D01*
X166634669Y-122629307D01*
X166632460Y-122670450D01*
X166626894Y-122702582D01*
X166616586Y-122733122D01*
X166600148Y-122769489D01*
X166586200Y-122796728D01*
X166527665Y-122882429D01*
X166455619Y-122951617D01*
X166371947Y-123002741D01*
X166278531Y-123034250D01*
X166245434Y-123041225D01*
X166204960Y-123048094D01*
X166171999Y-123049919D01*
X166137698Y-123046947D01*
X166093200Y-123039426D01*
X166041934Y-123027002D01*
X165951434Y-122989112D01*
X165872345Y-122934836D01*
X165806528Y-122866770D01*
X165755840Y-122787511D01*
X165722140Y-122699654D01*
X165707286Y-122605795D01*
X165713136Y-122508530D01*
X165739399Y-122412220D01*
X165784418Y-122323494D01*
X165845373Y-122248419D01*
X165920184Y-122188641D01*
X166006768Y-122145809D01*
X166103043Y-122121571D01*
X166206928Y-122117576D01*
X166284562Y-122127850D01*
G37*
X166284562Y-122127850D02*
X166367313Y-122155053D01*
X166442406Y-122200484D01*
X166514298Y-122266302D01*
X166552846Y-122310567D01*
X166592256Y-122368961D01*
X166617446Y-122429586D01*
X166630861Y-122498865D01*
X166634948Y-122583222D01*
X166634669Y-122629307D01*
X166632460Y-122670450D01*
X166626894Y-122702582D01*
X166616586Y-122733122D01*
X166600148Y-122769489D01*
X166586200Y-122796728D01*
X166527665Y-122882429D01*
X166455619Y-122951617D01*
X166371947Y-123002741D01*
X166278531Y-123034250D01*
X166245434Y-123041225D01*
X166204960Y-123048094D01*
X166171999Y-123049919D01*
X166137698Y-123046947D01*
X166093200Y-123039426D01*
X166041934Y-123027002D01*
X165951434Y-122989112D01*
X165872345Y-122934836D01*
X165806528Y-122866770D01*
X165755840Y-122787511D01*
X165722140Y-122699654D01*
X165707286Y-122605795D01*
X165713136Y-122508530D01*
X165739399Y-122412220D01*
X165784418Y-122323494D01*
X165845373Y-122248419D01*
X165920184Y-122188641D01*
X166006768Y-122145809D01*
X166103043Y-122121571D01*
X166206928Y-122117576D01*
X166284562Y-122127850D01*
G36*
X163818711Y-123057033D02*
G01*
X163914268Y-123074523D01*
X164078558Y-123119564D01*
X164232589Y-123182656D01*
X164378509Y-123264915D01*
X164518466Y-123367457D01*
X164654608Y-123491399D01*
X164698473Y-123536661D01*
X164810758Y-123668865D01*
X164903972Y-123806832D01*
X164980719Y-123954750D01*
X165043603Y-124116803D01*
X165047420Y-124128391D01*
X165097507Y-124314392D01*
X165130899Y-124510521D01*
X165147584Y-124712568D01*
X165147551Y-124916325D01*
X165130791Y-125117581D01*
X165097292Y-125312128D01*
X165047044Y-125495756D01*
X165003190Y-125613053D01*
X164925348Y-125775951D01*
X164831828Y-125929866D01*
X164724822Y-126071671D01*
X164606519Y-126198239D01*
X164479111Y-126306441D01*
X164401606Y-126359120D01*
X164274725Y-126428750D01*
X164137243Y-126487468D01*
X163995716Y-126532587D01*
X163856702Y-126561422D01*
X163842597Y-126563106D01*
X163799153Y-126566434D01*
X163741723Y-126569275D01*
X163676122Y-126571373D01*
X163608167Y-126572468D01*
X163481378Y-126570140D01*
X163333673Y-126557136D01*
X163195779Y-126532133D01*
X163062014Y-126494318D01*
X163038562Y-126485889D01*
X162990612Y-126466408D01*
X162934140Y-126441473D01*
X162872379Y-126412722D01*
X162808563Y-126381790D01*
X162745926Y-126350315D01*
X162687703Y-126319934D01*
X162637127Y-126292283D01*
X162597433Y-126268999D01*
X162571854Y-126251718D01*
X162563625Y-126242079D01*
X162565076Y-126238984D01*
X162576250Y-126219079D01*
X162597134Y-126183420D01*
X162626265Y-126134459D01*
X162662181Y-126074646D01*
X162703420Y-126006433D01*
X162748517Y-125932271D01*
X162929785Y-125635008D01*
X162976315Y-125679539D01*
X163067723Y-125757865D01*
X163181334Y-125832439D01*
X163299122Y-125886474D01*
X163419559Y-125919290D01*
X163541117Y-125930211D01*
X163582585Y-125928868D01*
X163700080Y-125910612D01*
X163810089Y-125871617D01*
X163911430Y-125812670D01*
X164002921Y-125734557D01*
X164083380Y-125638064D01*
X164151627Y-125523978D01*
X164167908Y-125489724D01*
X164213982Y-125366240D01*
X164249106Y-125227918D01*
X164273197Y-125078561D01*
X164286173Y-124921973D01*
X164287949Y-124761956D01*
X164278443Y-124602314D01*
X164257572Y-124446850D01*
X164225252Y-124299366D01*
X164181399Y-124163667D01*
X164143982Y-124077076D01*
X164079185Y-123963688D01*
X164003772Y-123870070D01*
X163917418Y-123795959D01*
X163819795Y-123741094D01*
X163710577Y-123705212D01*
X163589439Y-123688051D01*
X163520038Y-123686880D01*
X163397168Y-123701141D01*
X163281664Y-123736241D01*
X163174953Y-123791682D01*
X163078464Y-123866964D01*
X163062720Y-123881440D01*
X163032150Y-123907962D01*
X163009809Y-123925138D01*
X162999691Y-123929787D01*
X162997706Y-123927597D01*
X162983241Y-123908721D01*
X162959400Y-123875397D01*
X162928029Y-123830380D01*
X162890974Y-123776425D01*
X162850083Y-123716285D01*
X162807202Y-123652718D01*
X162764178Y-123588476D01*
X162722857Y-123526315D01*
X162685086Y-123468991D01*
X162652712Y-123419257D01*
X162627582Y-123379868D01*
X162611542Y-123353580D01*
X162606439Y-123343147D01*
X162611050Y-123338941D01*
X162630267Y-123333933D01*
X162639838Y-123331386D01*
X162667809Y-123320249D01*
X162709448Y-123301802D01*
X162760995Y-123277725D01*
X162818690Y-123249699D01*
X162829957Y-123244154D01*
X163007687Y-123164889D01*
X163177490Y-123105385D01*
X163341430Y-123065245D01*
X163501571Y-123044071D01*
X163659977Y-123041466D01*
X163818711Y-123057033D01*
G37*
X163818711Y-123057033D02*
X163914268Y-123074523D01*
X164078558Y-123119564D01*
X164232589Y-123182656D01*
X164378509Y-123264915D01*
X164518466Y-123367457D01*
X164654608Y-123491399D01*
X164698473Y-123536661D01*
X164810758Y-123668865D01*
X164903972Y-123806832D01*
X164980719Y-123954750D01*
X165043603Y-124116803D01*
X165047420Y-124128391D01*
X165097507Y-124314392D01*
X165130899Y-124510521D01*
X165147584Y-124712568D01*
X165147551Y-124916325D01*
X165130791Y-125117581D01*
X165097292Y-125312128D01*
X165047044Y-125495756D01*
X165003190Y-125613053D01*
X164925348Y-125775951D01*
X164831828Y-125929866D01*
X164724822Y-126071671D01*
X164606519Y-126198239D01*
X164479111Y-126306441D01*
X164401606Y-126359120D01*
X164274725Y-126428750D01*
X164137243Y-126487468D01*
X163995716Y-126532587D01*
X163856702Y-126561422D01*
X163842597Y-126563106D01*
X163799153Y-126566434D01*
X163741723Y-126569275D01*
X163676122Y-126571373D01*
X163608167Y-126572468D01*
X163481378Y-126570140D01*
X163333673Y-126557136D01*
X163195779Y-126532133D01*
X163062014Y-126494318D01*
X163038562Y-126485889D01*
X162990612Y-126466408D01*
X162934140Y-126441473D01*
X162872379Y-126412722D01*
X162808563Y-126381790D01*
X162745926Y-126350315D01*
X162687703Y-126319934D01*
X162637127Y-126292283D01*
X162597433Y-126268999D01*
X162571854Y-126251718D01*
X162563625Y-126242079D01*
X162565076Y-126238984D01*
X162576250Y-126219079D01*
X162597134Y-126183420D01*
X162626265Y-126134459D01*
X162662181Y-126074646D01*
X162703420Y-126006433D01*
X162748517Y-125932271D01*
X162929785Y-125635008D01*
X162976315Y-125679539D01*
X163067723Y-125757865D01*
X163181334Y-125832439D01*
X163299122Y-125886474D01*
X163419559Y-125919290D01*
X163541117Y-125930211D01*
X163582585Y-125928868D01*
X163700080Y-125910612D01*
X163810089Y-125871617D01*
X163911430Y-125812670D01*
X164002921Y-125734557D01*
X164083380Y-125638064D01*
X164151627Y-125523978D01*
X164167908Y-125489724D01*
X164213982Y-125366240D01*
X164249106Y-125227918D01*
X164273197Y-125078561D01*
X164286173Y-124921973D01*
X164287949Y-124761956D01*
X164278443Y-124602314D01*
X164257572Y-124446850D01*
X164225252Y-124299366D01*
X164181399Y-124163667D01*
X164143982Y-124077076D01*
X164079185Y-123963688D01*
X164003772Y-123870070D01*
X163917418Y-123795959D01*
X163819795Y-123741094D01*
X163710577Y-123705212D01*
X163589439Y-123688051D01*
X163520038Y-123686880D01*
X163397168Y-123701141D01*
X163281664Y-123736241D01*
X163174953Y-123791682D01*
X163078464Y-123866964D01*
X163062720Y-123881440D01*
X163032150Y-123907962D01*
X163009809Y-123925138D01*
X162999691Y-123929787D01*
X162997706Y-123927597D01*
X162983241Y-123908721D01*
X162959400Y-123875397D01*
X162928029Y-123830380D01*
X162890974Y-123776425D01*
X162850083Y-123716285D01*
X162807202Y-123652718D01*
X162764178Y-123588476D01*
X162722857Y-123526315D01*
X162685086Y-123468991D01*
X162652712Y-123419257D01*
X162627582Y-123379868D01*
X162611542Y-123353580D01*
X162606439Y-123343147D01*
X162611050Y-123338941D01*
X162630267Y-123333933D01*
X162639838Y-123331386D01*
X162667809Y-123320249D01*
X162709448Y-123301802D01*
X162760995Y-123277725D01*
X162818690Y-123249699D01*
X162829957Y-123244154D01*
X163007687Y-123164889D01*
X163177490Y-123105385D01*
X163341430Y-123065245D01*
X163501571Y-123044071D01*
X163659977Y-123041466D01*
X163818711Y-123057033D01*
G36*
X192272971Y-114777822D02*
G01*
X188752178Y-114777822D01*
X188752178Y-113910198D01*
X192272971Y-113910198D01*
X192272971Y-114777822D01*
G37*
X192272971Y-114777822D02*
X188752178Y-114777822D01*
X188752178Y-113910198D01*
X192272971Y-113910198D01*
X192272971Y-114777822D01*
G36*
X191511662Y-109520696D02*
G01*
X191551314Y-109521782D01*
X191619109Y-109521782D01*
X191619109Y-109634951D01*
X191459577Y-109634951D01*
X191444682Y-109812732D01*
X191442682Y-109837037D01*
X191438023Y-109897880D01*
X191434731Y-109947389D01*
X191433092Y-109980992D01*
X191433390Y-109994116D01*
X191437724Y-109990343D01*
X191457496Y-109970676D01*
X191491679Y-109935818D01*
X191538541Y-109887576D01*
X191596354Y-109827757D01*
X191663387Y-109758167D01*
X191737912Y-109680615D01*
X191818197Y-109596907D01*
X191902513Y-109508849D01*
X191989130Y-109418250D01*
X192076319Y-109326915D01*
X192162349Y-109236653D01*
X192245492Y-109149269D01*
X192324016Y-109066572D01*
X192396192Y-108990368D01*
X192460291Y-108922463D01*
X192514583Y-108864666D01*
X192611592Y-108761040D01*
X192612034Y-108849315D01*
X192612475Y-108937589D01*
X192011938Y-109569158D01*
X191411401Y-110200726D01*
X191399396Y-110344674D01*
X191351365Y-110920635D01*
X191342876Y-111022791D01*
X191332343Y-111150612D01*
X191322621Y-111269767D01*
X191313898Y-111377914D01*
X191306358Y-111472713D01*
X191300187Y-111551819D01*
X191295573Y-111612892D01*
X191292700Y-111653590D01*
X191291754Y-111671570D01*
X191294251Y-111679808D01*
X191305471Y-111697599D01*
X191326751Y-111724411D01*
X191337021Y-111736129D01*
X191359225Y-111761466D01*
X191404023Y-111809986D01*
X191462281Y-111871192D01*
X191535129Y-111946307D01*
X191623703Y-112036550D01*
X191729134Y-112143145D01*
X191798492Y-112213093D01*
X191895179Y-112310658D01*
X191991526Y-112407941D01*
X192084638Y-112502014D01*
X192171618Y-112589950D01*
X192249569Y-112668820D01*
X192315596Y-112735699D01*
X192366802Y-112787658D01*
X192567514Y-112991620D01*
X192531058Y-113029671D01*
X192522460Y-113038245D01*
X192497095Y-113059297D01*
X192479695Y-113067723D01*
X192466071Y-113060530D01*
X192440743Y-113038944D01*
X192410379Y-113007995D01*
X192391896Y-112988448D01*
X192357427Y-112952752D01*
X192308712Y-112902684D01*
X192247469Y-112840001D01*
X192175420Y-112766457D01*
X192094285Y-112683810D01*
X192005784Y-112593815D01*
X191911637Y-112498228D01*
X191813565Y-112398805D01*
X191271161Y-111849343D01*
X191249066Y-112134746D01*
X191244250Y-112195662D01*
X191237216Y-112277548D01*
X191230872Y-112339569D01*
X191224748Y-112384987D01*
X191218373Y-112417062D01*
X191211277Y-112439052D01*
X191202991Y-112454219D01*
X191191393Y-112475416D01*
X191181850Y-112514386D01*
X191179010Y-112570531D01*
X191179010Y-112652773D01*
X190952674Y-112652773D01*
X190952674Y-112476733D01*
X190107082Y-112476733D01*
X190058203Y-112532262D01*
X190044836Y-112546722D01*
X189972388Y-112604813D01*
X189890532Y-112640576D01*
X189801900Y-112652773D01*
X189723692Y-112646306D01*
X189635233Y-112619047D01*
X189559507Y-112570328D01*
X189544748Y-112556403D01*
X189507864Y-112511328D01*
X189475503Y-112458819D01*
X189452297Y-112407061D01*
X189442879Y-112364239D01*
X189442697Y-112358023D01*
X189441342Y-112335246D01*
X189437800Y-112319513D01*
X189430390Y-112312068D01*
X189417431Y-112314156D01*
X189397243Y-112327020D01*
X189368145Y-112351905D01*
X189328456Y-112390053D01*
X189276496Y-112442710D01*
X189210584Y-112511119D01*
X189129040Y-112596524D01*
X189085604Y-112642112D01*
X189013000Y-112718441D01*
X188944309Y-112790808D01*
X188882223Y-112856366D01*
X188829434Y-112912274D01*
X188788634Y-112955686D01*
X188762515Y-112983758D01*
X188691119Y-113061436D01*
X188602863Y-112973416D01*
X189148690Y-112401287D01*
X189183105Y-112365188D01*
X189305546Y-112236272D01*
X189410651Y-112124754D01*
X189498736Y-112030288D01*
X189570116Y-111952529D01*
X189620588Y-111896174D01*
X189827247Y-111896174D01*
X189828872Y-111909434D01*
X189829156Y-111910819D01*
X189842698Y-111942228D01*
X189869748Y-111956863D01*
X189953129Y-111988063D01*
X190027418Y-112040038D01*
X190085846Y-112108791D01*
X190125890Y-112191315D01*
X190145026Y-112284606D01*
X190151364Y-112363565D01*
X191100838Y-112363565D01*
X191107458Y-112335273D01*
X191108629Y-112328329D01*
X191112268Y-112297281D01*
X191117234Y-112247081D01*
X191123157Y-112181727D01*
X191129669Y-112105219D01*
X191136401Y-112021555D01*
X191158724Y-111736129D01*
X190857826Y-111430565D01*
X190802636Y-111374704D01*
X190735109Y-111306888D01*
X190674529Y-111246643D01*
X190623021Y-111196052D01*
X190582710Y-111157200D01*
X190555722Y-111132170D01*
X190544182Y-111123046D01*
X190536444Y-111127405D01*
X190513395Y-111147241D01*
X190478709Y-111180375D01*
X190435487Y-111223820D01*
X190386832Y-111274587D01*
X190374140Y-111288051D01*
X190317229Y-111348275D01*
X190249414Y-111419864D01*
X190175800Y-111497437D01*
X190101493Y-111575611D01*
X190031599Y-111649005D01*
X190027401Y-111653409D01*
X189962420Y-111721785D01*
X189912836Y-111774732D01*
X189876688Y-111814767D01*
X189852016Y-111844411D01*
X189836858Y-111866181D01*
X189829256Y-111882595D01*
X189827247Y-111896174D01*
X189620588Y-111896174D01*
X189625105Y-111891131D01*
X189664019Y-111845748D01*
X189687173Y-111816035D01*
X189694882Y-111801644D01*
X189694883Y-111801559D01*
X189693825Y-111783624D01*
X189690737Y-111743421D01*
X189685858Y-111683687D01*
X189679432Y-111607158D01*
X189671700Y-111516569D01*
X189662905Y-111414657D01*
X189653287Y-111304159D01*
X189643091Y-111187811D01*
X189632556Y-111068348D01*
X189621926Y-110948507D01*
X189611442Y-110831025D01*
X189601346Y-110718637D01*
X189591881Y-110614081D01*
X189583288Y-110520091D01*
X189575809Y-110439405D01*
X189569687Y-110374759D01*
X189565162Y-110328888D01*
X189562478Y-110304530D01*
X189557067Y-110263732D01*
X189686253Y-110263732D01*
X189687908Y-110294653D01*
X189691549Y-110346653D01*
X189696995Y-110417487D01*
X189704063Y-110504911D01*
X189712570Y-110606681D01*
X189722335Y-110720552D01*
X189733174Y-110844279D01*
X189744907Y-110975618D01*
X189754079Y-111076908D01*
X189765566Y-111202526D01*
X189776322Y-111318762D01*
X189786131Y-111423380D01*
X189794781Y-111514140D01*
X189802057Y-111588804D01*
X189807746Y-111645134D01*
X189811634Y-111680891D01*
X189813506Y-111693837D01*
X189819188Y-111689826D01*
X189840020Y-111670138D01*
X189873872Y-111636322D01*
X189918412Y-111590837D01*
X189971310Y-111536146D01*
X190030236Y-111474710D01*
X190092858Y-111408990D01*
X190156848Y-111341449D01*
X190219874Y-111274547D01*
X190279606Y-111210746D01*
X190333713Y-111152507D01*
X190379865Y-111102292D01*
X190415733Y-111062563D01*
X190438984Y-111035780D01*
X190445778Y-111026477D01*
X190627601Y-111026477D01*
X190903305Y-111301968D01*
X190970726Y-111369224D01*
X191034267Y-111432162D01*
X191083490Y-111480100D01*
X191120196Y-111514594D01*
X191146190Y-111537199D01*
X191163276Y-111549471D01*
X191173256Y-111552966D01*
X191177935Y-111549238D01*
X191179116Y-111539844D01*
X191179873Y-111524749D01*
X191182601Y-111485883D01*
X191187108Y-111426895D01*
X191193179Y-111350473D01*
X191200596Y-111259305D01*
X191209142Y-111156080D01*
X191218602Y-111043483D01*
X191228758Y-110924205D01*
X191237723Y-110819077D01*
X191247066Y-110708351D01*
X191255443Y-110607814D01*
X191262653Y-110519943D01*
X191268496Y-110447215D01*
X191272769Y-110392110D01*
X191275273Y-110357104D01*
X191275805Y-110344674D01*
X191275384Y-110344908D01*
X191263509Y-110356350D01*
X191237130Y-110383198D01*
X191198570Y-110423018D01*
X191150153Y-110473372D01*
X191094203Y-110531828D01*
X191033042Y-110595948D01*
X190968995Y-110663298D01*
X190904385Y-110731443D01*
X190841535Y-110797948D01*
X190782768Y-110860377D01*
X190730409Y-110916295D01*
X190629533Y-111024406D01*
X190627601Y-111026477D01*
X190445778Y-111026477D01*
X190447290Y-111024406D01*
X190439148Y-111013383D01*
X190415478Y-110986999D01*
X190378478Y-110947527D01*
X190330350Y-110897191D01*
X190273296Y-110838217D01*
X190209520Y-110772830D01*
X190141222Y-110703255D01*
X190070605Y-110631716D01*
X189999871Y-110560438D01*
X189931222Y-110491647D01*
X189866861Y-110427566D01*
X189808989Y-110370422D01*
X189759810Y-110322439D01*
X189721524Y-110285841D01*
X189696334Y-110262854D01*
X189686442Y-110255703D01*
X189686253Y-110263732D01*
X189557067Y-110263732D01*
X189555390Y-110251089D01*
X189280297Y-110251089D01*
X189280140Y-110150495D01*
X189380891Y-110150495D01*
X189462624Y-110150495D01*
X189469895Y-110150489D01*
X189510950Y-110149613D01*
X189533277Y-110145867D01*
X189542529Y-110137270D01*
X189544357Y-110121840D01*
X189536306Y-110099159D01*
X189508730Y-110061428D01*
X189462624Y-110012179D01*
X189380891Y-109931172D01*
X189380891Y-110150495D01*
X189280140Y-110150495D01*
X189279968Y-110040471D01*
X189279639Y-109829852D01*
X188827914Y-109370891D01*
X188376189Y-108911931D01*
X188375570Y-108824848D01*
X188374951Y-108737767D01*
X188916769Y-109286952D01*
X188969137Y-109339998D01*
X189077803Y-109449772D01*
X189170709Y-109543114D01*
X189249055Y-109621173D01*
X189314043Y-109685097D01*
X189366872Y-109736035D01*
X189408743Y-109775135D01*
X189440855Y-109803548D01*
X189464410Y-109822420D01*
X189480608Y-109832901D01*
X189490649Y-109836139D01*
X189507579Y-109835158D01*
X189517084Y-109827996D01*
X189518723Y-109808401D01*
X189514782Y-109770124D01*
X189512065Y-109746025D01*
X189508284Y-109705744D01*
X189506760Y-109678961D01*
X189506015Y-109669728D01*
X189498746Y-109659839D01*
X189478668Y-109656562D01*
X189439689Y-109657992D01*
X189429737Y-109658553D01*
X189389898Y-109657921D01*
X189361560Y-109649167D01*
X189341586Y-109634951D01*
X189624852Y-109634951D01*
X189629013Y-109682104D01*
X189630935Y-109703498D01*
X189636924Y-109761909D01*
X189642826Y-109800381D01*
X189649727Y-109822912D01*
X189658712Y-109833498D01*
X189670870Y-109836139D01*
X189681801Y-109837937D01*
X189689050Y-109846530D01*
X189693100Y-109866505D01*
X189694863Y-109902450D01*
X189695248Y-109958952D01*
X189695248Y-110081766D01*
X189735447Y-110121840D01*
X189833565Y-110219654D01*
X189971881Y-110357542D01*
X189971881Y-110251089D01*
X190726337Y-110251089D01*
X190726337Y-110490000D01*
X190107831Y-110490000D01*
X190317592Y-110706906D01*
X190357770Y-110748334D01*
X190413328Y-110805200D01*
X190461570Y-110854082D01*
X190499971Y-110892441D01*
X190526003Y-110917741D01*
X190537140Y-110927442D01*
X190541373Y-110924767D01*
X190561224Y-110906782D01*
X190595451Y-110873481D01*
X190642227Y-110826712D01*
X190699724Y-110768325D01*
X190766112Y-110700169D01*
X190839564Y-110624094D01*
X190918251Y-110541950D01*
X190997341Y-110458943D01*
X191074871Y-110377136D01*
X191137746Y-110310083D01*
X191187502Y-110256007D01*
X191225678Y-110213129D01*
X191253811Y-110179673D01*
X191273440Y-110153861D01*
X191286101Y-110133914D01*
X191293334Y-110118056D01*
X191296675Y-110104509D01*
X191297561Y-110097910D01*
X191301488Y-110061548D01*
X191306459Y-110008018D01*
X191311927Y-109943421D01*
X191317344Y-109873862D01*
X191319181Y-109849635D01*
X191324488Y-109784178D01*
X191329548Y-109727717D01*
X191333863Y-109685618D01*
X191336934Y-109663243D01*
X191342955Y-109634951D01*
X189624852Y-109634951D01*
X189341586Y-109634951D01*
X189333630Y-109629289D01*
X189328820Y-109625104D01*
X189289482Y-109574427D01*
X189273903Y-109521782D01*
X189614698Y-109521782D01*
X191029221Y-109521782D01*
X191241881Y-109521782D01*
X191298908Y-109521782D01*
X191315993Y-109521662D01*
X191341308Y-109519462D01*
X191348616Y-109512334D01*
X191342943Y-109497508D01*
X191341267Y-109494682D01*
X191322448Y-109472944D01*
X191295183Y-109448820D01*
X191267987Y-109429254D01*
X191249371Y-109421188D01*
X191247697Y-109422463D01*
X191243544Y-109439976D01*
X191241881Y-109471485D01*
X191241881Y-109521782D01*
X191029221Y-109521782D01*
X191025526Y-109431095D01*
X191021832Y-109340407D01*
X190946386Y-109325252D01*
X190908551Y-109318379D01*
X190845368Y-109308756D01*
X190786065Y-109301496D01*
X190701188Y-109292893D01*
X190701188Y-109396040D01*
X190122773Y-109396040D01*
X190122773Y-109305122D01*
X190050471Y-109313753D01*
X189939998Y-109332249D01*
X189828816Y-109365691D01*
X189736850Y-109412324D01*
X189662542Y-109472786D01*
X189614698Y-109521782D01*
X189273903Y-109521782D01*
X189272172Y-109515934D01*
X189277474Y-109454575D01*
X189305975Y-109395297D01*
X189308733Y-109391606D01*
X189346822Y-109359851D01*
X189396476Y-109341067D01*
X189450002Y-109336071D01*
X189499707Y-109345678D01*
X189537900Y-109370704D01*
X189550831Y-109383480D01*
X189563428Y-109386576D01*
X189581467Y-109376998D01*
X189611928Y-109353082D01*
X189621274Y-109345731D01*
X189693430Y-109299339D01*
X189778915Y-109258084D01*
X189848830Y-109232575D01*
X190223367Y-109232575D01*
X190223367Y-109295446D01*
X190600594Y-109295446D01*
X190600594Y-109232575D01*
X190223367Y-109232575D01*
X189848830Y-109232575D01*
X189869767Y-109224936D01*
X189958027Y-109202868D01*
X190035736Y-109194852D01*
X190043991Y-109194788D01*
X190089879Y-109190321D01*
X190115079Y-109177795D01*
X190122773Y-109155784D01*
X190123676Y-109148849D01*
X190128615Y-109142885D01*
X190140611Y-109138519D01*
X190162680Y-109135503D01*
X190197836Y-109133590D01*
X190249094Y-109132530D01*
X190319471Y-109132077D01*
X190411980Y-109131980D01*
X190498660Y-109132150D01*
X190572332Y-109132834D01*
X190626265Y-109134215D01*
X190663288Y-109136470D01*
X190686230Y-109139778D01*
X190697920Y-109144320D01*
X190701188Y-109150272D01*
X190711937Y-109164888D01*
X190742055Y-109174215D01*
X190753582Y-109175847D01*
X190792886Y-109181591D01*
X190845188Y-109189378D01*
X190902376Y-109198003D01*
X190933916Y-109202393D01*
X190980074Y-109207148D01*
X191012641Y-109208295D01*
X191026023Y-109205495D01*
X191028308Y-109203671D01*
X191049405Y-109199165D01*
X191087355Y-109196029D01*
X191136048Y-109194852D01*
X191241881Y-109194852D01*
X191241894Y-109232575D01*
X191241894Y-109235718D01*
X191242388Y-109248668D01*
X191248819Y-109270411D01*
X191267123Y-109288851D01*
X191302830Y-109310801D01*
X191334174Y-109330854D01*
X191381893Y-109369356D01*
X191425138Y-109412579D01*
X191458219Y-109454627D01*
X191475442Y-109489604D01*
X191479662Y-109503081D01*
X191487480Y-109512334D01*
X191490116Y-109515454D01*
X191511662Y-109520696D01*
G37*
X191511662Y-109520696D02*
X191551314Y-109521782D01*
X191619109Y-109521782D01*
X191619109Y-109634951D01*
X191459577Y-109634951D01*
X191444682Y-109812732D01*
X191442682Y-109837037D01*
X191438023Y-109897880D01*
X191434731Y-109947389D01*
X191433092Y-109980992D01*
X191433390Y-109994116D01*
X191437724Y-109990343D01*
X191457496Y-109970676D01*
X191491679Y-109935818D01*
X191538541Y-109887576D01*
X191596354Y-109827757D01*
X191663387Y-109758167D01*
X191737912Y-109680615D01*
X191818197Y-109596907D01*
X191902513Y-109508849D01*
X191989130Y-109418250D01*
X192076319Y-109326915D01*
X192162349Y-109236653D01*
X192245492Y-109149269D01*
X192324016Y-109066572D01*
X192396192Y-108990368D01*
X192460291Y-108922463D01*
X192514583Y-108864666D01*
X192611592Y-108761040D01*
X192612034Y-108849315D01*
X192612475Y-108937589D01*
X192011938Y-109569158D01*
X191411401Y-110200726D01*
X191399396Y-110344674D01*
X191351365Y-110920635D01*
X191342876Y-111022791D01*
X191332343Y-111150612D01*
X191322621Y-111269767D01*
X191313898Y-111377914D01*
X191306358Y-111472713D01*
X191300187Y-111551819D01*
X191295573Y-111612892D01*
X191292700Y-111653590D01*
X191291754Y-111671570D01*
X191294251Y-111679808D01*
X191305471Y-111697599D01*
X191326751Y-111724411D01*
X191337021Y-111736129D01*
X191359225Y-111761466D01*
X191404023Y-111809986D01*
X191462281Y-111871192D01*
X191535129Y-111946307D01*
X191623703Y-112036550D01*
X191729134Y-112143145D01*
X191798492Y-112213093D01*
X191895179Y-112310658D01*
X191991526Y-112407941D01*
X192084638Y-112502014D01*
X192171618Y-112589950D01*
X192249569Y-112668820D01*
X192315596Y-112735699D01*
X192366802Y-112787658D01*
X192567514Y-112991620D01*
X192531058Y-113029671D01*
X192522460Y-113038245D01*
X192497095Y-113059297D01*
X192479695Y-113067723D01*
X192466071Y-113060530D01*
X192440743Y-113038944D01*
X192410379Y-113007995D01*
X192391896Y-112988448D01*
X192357427Y-112952752D01*
X192308712Y-112902684D01*
X192247469Y-112840001D01*
X192175420Y-112766457D01*
X192094285Y-112683810D01*
X192005784Y-112593815D01*
X191911637Y-112498228D01*
X191813565Y-112398805D01*
X191271161Y-111849343D01*
X191249066Y-112134746D01*
X191244250Y-112195662D01*
X191237216Y-112277548D01*
X191230872Y-112339569D01*
X191224748Y-112384987D01*
X191218373Y-112417062D01*
X191211277Y-112439052D01*
X191202991Y-112454219D01*
X191191393Y-112475416D01*
X191181850Y-112514386D01*
X191179010Y-112570531D01*
X191179010Y-112652773D01*
X190952674Y-112652773D01*
X190952674Y-112476733D01*
X190107082Y-112476733D01*
X190058203Y-112532262D01*
X190044836Y-112546722D01*
X189972388Y-112604813D01*
X189890532Y-112640576D01*
X189801900Y-112652773D01*
X189723692Y-112646306D01*
X189635233Y-112619047D01*
X189559507Y-112570328D01*
X189544748Y-112556403D01*
X189507864Y-112511328D01*
X189475503Y-112458819D01*
X189452297Y-112407061D01*
X189442879Y-112364239D01*
X189442697Y-112358023D01*
X189441342Y-112335246D01*
X189437800Y-112319513D01*
X189430390Y-112312068D01*
X189417431Y-112314156D01*
X189397243Y-112327020D01*
X189368145Y-112351905D01*
X189328456Y-112390053D01*
X189276496Y-112442710D01*
X189210584Y-112511119D01*
X189129040Y-112596524D01*
X189085604Y-112642112D01*
X189013000Y-112718441D01*
X188944309Y-112790808D01*
X188882223Y-112856366D01*
X188829434Y-112912274D01*
X188788634Y-112955686D01*
X188762515Y-112983758D01*
X188691119Y-113061436D01*
X188602863Y-112973416D01*
X189148690Y-112401287D01*
X189183105Y-112365188D01*
X189305546Y-112236272D01*
X189410651Y-112124754D01*
X189498736Y-112030288D01*
X189570116Y-111952529D01*
X189620588Y-111896174D01*
X189827247Y-111896174D01*
X189828872Y-111909434D01*
X189829156Y-111910819D01*
X189842698Y-111942228D01*
X189869748Y-111956863D01*
X189953129Y-111988063D01*
X190027418Y-112040038D01*
X190085846Y-112108791D01*
X190125890Y-112191315D01*
X190145026Y-112284606D01*
X190151364Y-112363565D01*
X191100838Y-112363565D01*
X191107458Y-112335273D01*
X191108629Y-112328329D01*
X191112268Y-112297281D01*
X191117234Y-112247081D01*
X191123157Y-112181727D01*
X191129669Y-112105219D01*
X191136401Y-112021555D01*
X191158724Y-111736129D01*
X190857826Y-111430565D01*
X190802636Y-111374704D01*
X190735109Y-111306888D01*
X190674529Y-111246643D01*
X190623021Y-111196052D01*
X190582710Y-111157200D01*
X190555722Y-111132170D01*
X190544182Y-111123046D01*
X190536444Y-111127405D01*
X190513395Y-111147241D01*
X190478709Y-111180375D01*
X190435487Y-111223820D01*
X190386832Y-111274587D01*
X190374140Y-111288051D01*
X190317229Y-111348275D01*
X190249414Y-111419864D01*
X190175800Y-111497437D01*
X190101493Y-111575611D01*
X190031599Y-111649005D01*
X190027401Y-111653409D01*
X189962420Y-111721785D01*
X189912836Y-111774732D01*
X189876688Y-111814767D01*
X189852016Y-111844411D01*
X189836858Y-111866181D01*
X189829256Y-111882595D01*
X189827247Y-111896174D01*
X189620588Y-111896174D01*
X189625105Y-111891131D01*
X189664019Y-111845748D01*
X189687173Y-111816035D01*
X189694882Y-111801644D01*
X189694883Y-111801559D01*
X189693825Y-111783624D01*
X189690737Y-111743421D01*
X189685858Y-111683687D01*
X189679432Y-111607158D01*
X189671700Y-111516569D01*
X189662905Y-111414657D01*
X189653287Y-111304159D01*
X189643091Y-111187811D01*
X189632556Y-111068348D01*
X189621926Y-110948507D01*
X189611442Y-110831025D01*
X189601346Y-110718637D01*
X189591881Y-110614081D01*
X189583288Y-110520091D01*
X189575809Y-110439405D01*
X189569687Y-110374759D01*
X189565162Y-110328888D01*
X189562478Y-110304530D01*
X189557067Y-110263732D01*
X189686253Y-110263732D01*
X189687908Y-110294653D01*
X189691549Y-110346653D01*
X189696995Y-110417487D01*
X189704063Y-110504911D01*
X189712570Y-110606681D01*
X189722335Y-110720552D01*
X189733174Y-110844279D01*
X189744907Y-110975618D01*
X189754079Y-111076908D01*
X189765566Y-111202526D01*
X189776322Y-111318762D01*
X189786131Y-111423380D01*
X189794781Y-111514140D01*
X189802057Y-111588804D01*
X189807746Y-111645134D01*
X189811634Y-111680891D01*
X189813506Y-111693837D01*
X189819188Y-111689826D01*
X189840020Y-111670138D01*
X189873872Y-111636322D01*
X189918412Y-111590837D01*
X189971310Y-111536146D01*
X190030236Y-111474710D01*
X190092858Y-111408990D01*
X190156848Y-111341449D01*
X190219874Y-111274547D01*
X190279606Y-111210746D01*
X190333713Y-111152507D01*
X190379865Y-111102292D01*
X190415733Y-111062563D01*
X190438984Y-111035780D01*
X190445778Y-111026477D01*
X190627601Y-111026477D01*
X190903305Y-111301968D01*
X190970726Y-111369224D01*
X191034267Y-111432162D01*
X191083490Y-111480100D01*
X191120196Y-111514594D01*
X191146190Y-111537199D01*
X191163276Y-111549471D01*
X191173256Y-111552966D01*
X191177935Y-111549238D01*
X191179116Y-111539844D01*
X191179873Y-111524749D01*
X191182601Y-111485883D01*
X191187108Y-111426895D01*
X191193179Y-111350473D01*
X191200596Y-111259305D01*
X191209142Y-111156080D01*
X191218602Y-111043483D01*
X191228758Y-110924205D01*
X191237723Y-110819077D01*
X191247066Y-110708351D01*
X191255443Y-110607814D01*
X191262653Y-110519943D01*
X191268496Y-110447215D01*
X191272769Y-110392110D01*
X191275273Y-110357104D01*
X191275805Y-110344674D01*
X191275384Y-110344908D01*
X191263509Y-110356350D01*
X191237130Y-110383198D01*
X191198570Y-110423018D01*
X191150153Y-110473372D01*
X191094203Y-110531828D01*
X191033042Y-110595948D01*
X190968995Y-110663298D01*
X190904385Y-110731443D01*
X190841535Y-110797948D01*
X190782768Y-110860377D01*
X190730409Y-110916295D01*
X190629533Y-111024406D01*
X190627601Y-111026477D01*
X190445778Y-111026477D01*
X190447290Y-111024406D01*
X190439148Y-111013383D01*
X190415478Y-110986999D01*
X190378478Y-110947527D01*
X190330350Y-110897191D01*
X190273296Y-110838217D01*
X190209520Y-110772830D01*
X190141222Y-110703255D01*
X190070605Y-110631716D01*
X189999871Y-110560438D01*
X189931222Y-110491647D01*
X189866861Y-110427566D01*
X189808989Y-110370422D01*
X189759810Y-110322439D01*
X189721524Y-110285841D01*
X189696334Y-110262854D01*
X189686442Y-110255703D01*
X189686253Y-110263732D01*
X189557067Y-110263732D01*
X189555390Y-110251089D01*
X189280297Y-110251089D01*
X189280140Y-110150495D01*
X189380891Y-110150495D01*
X189462624Y-110150495D01*
X189469895Y-110150489D01*
X189510950Y-110149613D01*
X189533277Y-110145867D01*
X189542529Y-110137270D01*
X189544357Y-110121840D01*
X189536306Y-110099159D01*
X189508730Y-110061428D01*
X189462624Y-110012179D01*
X189380891Y-109931172D01*
X189380891Y-110150495D01*
X189280140Y-110150495D01*
X189279968Y-110040471D01*
X189279639Y-109829852D01*
X188827914Y-109370891D01*
X188376189Y-108911931D01*
X188375570Y-108824848D01*
X188374951Y-108737767D01*
X188916769Y-109286952D01*
X188969137Y-109339998D01*
X189077803Y-109449772D01*
X189170709Y-109543114D01*
X189249055Y-109621173D01*
X189314043Y-109685097D01*
X189366872Y-109736035D01*
X189408743Y-109775135D01*
X189440855Y-109803548D01*
X189464410Y-109822420D01*
X189480608Y-109832901D01*
X189490649Y-109836139D01*
X189507579Y-109835158D01*
X189517084Y-109827996D01*
X189518723Y-109808401D01*
X189514782Y-109770124D01*
X189512065Y-109746025D01*
X189508284Y-109705744D01*
X189506760Y-109678961D01*
X189506015Y-109669728D01*
X189498746Y-109659839D01*
X189478668Y-109656562D01*
X189439689Y-109657992D01*
X189429737Y-109658553D01*
X189389898Y-109657921D01*
X189361560Y-109649167D01*
X189341586Y-109634951D01*
X189624852Y-109634951D01*
X189629013Y-109682104D01*
X189630935Y-109703498D01*
X189636924Y-109761909D01*
X189642826Y-109800381D01*
X189649727Y-109822912D01*
X189658712Y-109833498D01*
X189670870Y-109836139D01*
X189681801Y-109837937D01*
X189689050Y-109846530D01*
X189693100Y-109866505D01*
X189694863Y-109902450D01*
X189695248Y-109958952D01*
X189695248Y-110081766D01*
X189735447Y-110121840D01*
X189833565Y-110219654D01*
X189971881Y-110357542D01*
X189971881Y-110251089D01*
X190726337Y-110251089D01*
X190726337Y-110490000D01*
X190107831Y-110490000D01*
X190317592Y-110706906D01*
X190357770Y-110748334D01*
X190413328Y-110805200D01*
X190461570Y-110854082D01*
X190499971Y-110892441D01*
X190526003Y-110917741D01*
X190537140Y-110927442D01*
X190541373Y-110924767D01*
X190561224Y-110906782D01*
X190595451Y-110873481D01*
X190642227Y-110826712D01*
X190699724Y-110768325D01*
X190766112Y-110700169D01*
X190839564Y-110624094D01*
X190918251Y-110541950D01*
X190997341Y-110458943D01*
X191074871Y-110377136D01*
X191137746Y-110310083D01*
X191187502Y-110256007D01*
X191225678Y-110213129D01*
X191253811Y-110179673D01*
X191273440Y-110153861D01*
X191286101Y-110133914D01*
X191293334Y-110118056D01*
X191296675Y-110104509D01*
X191297561Y-110097910D01*
X191301488Y-110061548D01*
X191306459Y-110008018D01*
X191311927Y-109943421D01*
X191317344Y-109873862D01*
X191319181Y-109849635D01*
X191324488Y-109784178D01*
X191329548Y-109727717D01*
X191333863Y-109685618D01*
X191336934Y-109663243D01*
X191342955Y-109634951D01*
X189624852Y-109634951D01*
X189341586Y-109634951D01*
X189333630Y-109629289D01*
X189328820Y-109625104D01*
X189289482Y-109574427D01*
X189273903Y-109521782D01*
X189614698Y-109521782D01*
X191029221Y-109521782D01*
X191241881Y-109521782D01*
X191298908Y-109521782D01*
X191315993Y-109521662D01*
X191341308Y-109519462D01*
X191348616Y-109512334D01*
X191342943Y-109497508D01*
X191341267Y-109494682D01*
X191322448Y-109472944D01*
X191295183Y-109448820D01*
X191267987Y-109429254D01*
X191249371Y-109421188D01*
X191247697Y-109422463D01*
X191243544Y-109439976D01*
X191241881Y-109471485D01*
X191241881Y-109521782D01*
X191029221Y-109521782D01*
X191025526Y-109431095D01*
X191021832Y-109340407D01*
X190946386Y-109325252D01*
X190908551Y-109318379D01*
X190845368Y-109308756D01*
X190786065Y-109301496D01*
X190701188Y-109292893D01*
X190701188Y-109396040D01*
X190122773Y-109396040D01*
X190122773Y-109305122D01*
X190050471Y-109313753D01*
X189939998Y-109332249D01*
X189828816Y-109365691D01*
X189736850Y-109412324D01*
X189662542Y-109472786D01*
X189614698Y-109521782D01*
X189273903Y-109521782D01*
X189272172Y-109515934D01*
X189277474Y-109454575D01*
X189305975Y-109395297D01*
X189308733Y-109391606D01*
X189346822Y-109359851D01*
X189396476Y-109341067D01*
X189450002Y-109336071D01*
X189499707Y-109345678D01*
X189537900Y-109370704D01*
X189550831Y-109383480D01*
X189563428Y-109386576D01*
X189581467Y-109376998D01*
X189611928Y-109353082D01*
X189621274Y-109345731D01*
X189693430Y-109299339D01*
X189778915Y-109258084D01*
X189848830Y-109232575D01*
X190223367Y-109232575D01*
X190223367Y-109295446D01*
X190600594Y-109295446D01*
X190600594Y-109232575D01*
X190223367Y-109232575D01*
X189848830Y-109232575D01*
X189869767Y-109224936D01*
X189958027Y-109202868D01*
X190035736Y-109194852D01*
X190043991Y-109194788D01*
X190089879Y-109190321D01*
X190115079Y-109177795D01*
X190122773Y-109155784D01*
X190123676Y-109148849D01*
X190128615Y-109142885D01*
X190140611Y-109138519D01*
X190162680Y-109135503D01*
X190197836Y-109133590D01*
X190249094Y-109132530D01*
X190319471Y-109132077D01*
X190411980Y-109131980D01*
X190498660Y-109132150D01*
X190572332Y-109132834D01*
X190626265Y-109134215D01*
X190663288Y-109136470D01*
X190686230Y-109139778D01*
X190697920Y-109144320D01*
X190701188Y-109150272D01*
X190711937Y-109164888D01*
X190742055Y-109174215D01*
X190753582Y-109175847D01*
X190792886Y-109181591D01*
X190845188Y-109189378D01*
X190902376Y-109198003D01*
X190933916Y-109202393D01*
X190980074Y-109207148D01*
X191012641Y-109208295D01*
X191026023Y-109205495D01*
X191028308Y-109203671D01*
X191049405Y-109199165D01*
X191087355Y-109196029D01*
X191136048Y-109194852D01*
X191241881Y-109194852D01*
X191241894Y-109232575D01*
X191241894Y-109235718D01*
X191242388Y-109248668D01*
X191248819Y-109270411D01*
X191267123Y-109288851D01*
X191302830Y-109310801D01*
X191334174Y-109330854D01*
X191381893Y-109369356D01*
X191425138Y-109412579D01*
X191458219Y-109454627D01*
X191475442Y-109489604D01*
X191479662Y-109503081D01*
X191487480Y-109512334D01*
X191490116Y-109515454D01*
X191511662Y-109520696D01*
G36*
X141885868Y-126925101D02*
G01*
X141881608Y-126974866D01*
X141880878Y-126979427D01*
X141852206Y-127061004D01*
X141799846Y-127130165D01*
X141731158Y-127177021D01*
X141657396Y-127196416D01*
X141566668Y-127194911D01*
X141483205Y-127168906D01*
X141461465Y-127157932D01*
X141433510Y-127146174D01*
X141422872Y-127149832D01*
X141421185Y-127168906D01*
X141420410Y-127178418D01*
X141410407Y-127192485D01*
X141382623Y-127198962D01*
X141329277Y-127200526D01*
X141237369Y-127200526D01*
X141237369Y-126799328D01*
X141421185Y-126799328D01*
X141422502Y-126868832D01*
X141427848Y-126915106D01*
X141439262Y-126946807D01*
X141458783Y-126973373D01*
X141510329Y-127012873D01*
X141570650Y-127026115D01*
X141629144Y-127009740D01*
X141678410Y-126964060D01*
X141691432Y-126930634D01*
X141701051Y-126871441D01*
X141705280Y-126799626D01*
X141703948Y-126725967D01*
X141696884Y-126661239D01*
X141683917Y-126616222D01*
X141679774Y-126608840D01*
X141639840Y-126571738D01*
X141585722Y-126555301D01*
X141527600Y-126559124D01*
X141475653Y-126582802D01*
X141440063Y-126625929D01*
X141438592Y-126629556D01*
X141429767Y-126670026D01*
X141423542Y-126730499D01*
X141421185Y-126799328D01*
X141237369Y-126799328D01*
X141237369Y-126064210D01*
X141421185Y-126064210D01*
X141421185Y-126453732D01*
X141455232Y-126422920D01*
X141488014Y-126403769D01*
X141550059Y-126387760D01*
X141622589Y-126382602D01*
X141693419Y-126388935D01*
X141750368Y-126407400D01*
X141791128Y-126433666D01*
X141833113Y-126478412D01*
X141861370Y-126538588D01*
X141878355Y-126619988D01*
X141886528Y-126728405D01*
X141887729Y-126772230D01*
X141887816Y-126799626D01*
X141887986Y-126853659D01*
X141885868Y-126925101D01*
G37*
X141885868Y-126925101D02*
X141881608Y-126974866D01*
X141880878Y-126979427D01*
X141852206Y-127061004D01*
X141799846Y-127130165D01*
X141731158Y-127177021D01*
X141657396Y-127196416D01*
X141566668Y-127194911D01*
X141483205Y-127168906D01*
X141461465Y-127157932D01*
X141433510Y-127146174D01*
X141422872Y-127149832D01*
X141421185Y-127168906D01*
X141420410Y-127178418D01*
X141410407Y-127192485D01*
X141382623Y-127198962D01*
X141329277Y-127200526D01*
X141237369Y-127200526D01*
X141237369Y-126799328D01*
X141421185Y-126799328D01*
X141422502Y-126868832D01*
X141427848Y-126915106D01*
X141439262Y-126946807D01*
X141458783Y-126973373D01*
X141510329Y-127012873D01*
X141570650Y-127026115D01*
X141629144Y-127009740D01*
X141678410Y-126964060D01*
X141691432Y-126930634D01*
X141701051Y-126871441D01*
X141705280Y-126799626D01*
X141703948Y-126725967D01*
X141696884Y-126661239D01*
X141683917Y-126616222D01*
X141679774Y-126608840D01*
X141639840Y-126571738D01*
X141585722Y-126555301D01*
X141527600Y-126559124D01*
X141475653Y-126582802D01*
X141440063Y-126625929D01*
X141438592Y-126629556D01*
X141429767Y-126670026D01*
X141423542Y-126730499D01*
X141421185Y-126799328D01*
X141237369Y-126799328D01*
X141237369Y-126064210D01*
X141421185Y-126064210D01*
X141421185Y-126453732D01*
X141455232Y-126422920D01*
X141488014Y-126403769D01*
X141550059Y-126387760D01*
X141622589Y-126382602D01*
X141693419Y-126388935D01*
X141750368Y-126407400D01*
X141791128Y-126433666D01*
X141833113Y-126478412D01*
X141861370Y-126538588D01*
X141878355Y-126619988D01*
X141886528Y-126728405D01*
X141887729Y-126772230D01*
X141887816Y-126799626D01*
X141887986Y-126853659D01*
X141885868Y-126925101D01*
G36*
X143906875Y-127197222D02*
G01*
X143819145Y-127192171D01*
X143814974Y-126924802D01*
X143813740Y-126859788D01*
X143810237Y-126762111D01*
X143804224Y-126690434D01*
X143794597Y-126639940D01*
X143780249Y-126605810D01*
X143760075Y-126583227D01*
X143732970Y-126567372D01*
X143682112Y-126551180D01*
X143631534Y-126557472D01*
X143578125Y-126592077D01*
X143526711Y-126635339D01*
X143526711Y-127200526D01*
X143342895Y-127200526D01*
X143342895Y-126894010D01*
X143343072Y-126797935D01*
X143344049Y-126712562D01*
X143346399Y-126650071D01*
X143350691Y-126604794D01*
X143357495Y-126571068D01*
X143367378Y-126543227D01*
X143380910Y-126515605D01*
X143384119Y-126509741D01*
X143426792Y-126452627D01*
X143476735Y-126412714D01*
X143536948Y-126391756D01*
X143616680Y-126382427D01*
X143696527Y-126387480D01*
X143761488Y-126407205D01*
X143810790Y-126432700D01*
X143810790Y-125880931D01*
X143743237Y-125916142D01*
X143715019Y-125928934D01*
X143625950Y-125947023D01*
X143537434Y-125934521D01*
X143455381Y-125892952D01*
X143385704Y-125823843D01*
X143374789Y-125807600D01*
X143364298Y-125783790D01*
X143357455Y-125751418D01*
X143353504Y-125704271D01*
X143351688Y-125636135D01*
X143351362Y-125565142D01*
X143527891Y-125565142D01*
X143528040Y-125624431D01*
X143532573Y-125663969D01*
X143542760Y-125692189D01*
X143559872Y-125717519D01*
X143581610Y-125741069D01*
X143616372Y-125758892D01*
X143668750Y-125763421D01*
X143715020Y-125759480D01*
X143760817Y-125739759D01*
X143790312Y-125699809D01*
X143806104Y-125635600D01*
X143810790Y-125543101D01*
X143809578Y-125493894D01*
X143797481Y-125401006D01*
X143772523Y-125338196D01*
X143734844Y-125305906D01*
X143696789Y-125296822D01*
X143630513Y-125301081D01*
X143574516Y-125327452D01*
X143561114Y-125339545D01*
X143546913Y-125360467D01*
X143538133Y-125391611D01*
X143532919Y-125440710D01*
X143529416Y-125515498D01*
X143527891Y-125565142D01*
X143351362Y-125565142D01*
X143351250Y-125540797D01*
X143351400Y-125497296D01*
X143353962Y-125396111D01*
X143361097Y-125320522D01*
X143374606Y-125264817D01*
X143396294Y-125223283D01*
X143427960Y-125190206D01*
X143471408Y-125159874D01*
X143506640Y-125142468D01*
X143590173Y-125123271D01*
X143678222Y-125125887D01*
X143756481Y-125150772D01*
X143790067Y-125167039D01*
X143806960Y-125168720D01*
X143810790Y-125153916D01*
X143810794Y-125153468D01*
X143819048Y-125138351D01*
X143847517Y-125130603D01*
X143902698Y-125128421D01*
X143994606Y-125128421D01*
X143994606Y-127202273D01*
X143906875Y-127197222D01*
G37*
X143906875Y-127197222D02*
X143819145Y-127192171D01*
X143814974Y-126924802D01*
X143813740Y-126859788D01*
X143810237Y-126762111D01*
X143804224Y-126690434D01*
X143794597Y-126639940D01*
X143780249Y-126605810D01*
X143760075Y-126583227D01*
X143732970Y-126567372D01*
X143682112Y-126551180D01*
X143631534Y-126557472D01*
X143578125Y-126592077D01*
X143526711Y-126635339D01*
X143526711Y-127200526D01*
X143342895Y-127200526D01*
X143342895Y-126894010D01*
X143343072Y-126797935D01*
X143344049Y-126712562D01*
X143346399Y-126650071D01*
X143350691Y-126604794D01*
X143357495Y-126571068D01*
X143367378Y-126543227D01*
X143380910Y-126515605D01*
X143384119Y-126509741D01*
X143426792Y-126452627D01*
X143476735Y-126412714D01*
X143536948Y-126391756D01*
X143616680Y-126382427D01*
X143696527Y-126387480D01*
X143761488Y-126407205D01*
X143810790Y-126432700D01*
X143810790Y-125880931D01*
X143743237Y-125916142D01*
X143715019Y-125928934D01*
X143625950Y-125947023D01*
X143537434Y-125934521D01*
X143455381Y-125892952D01*
X143385704Y-125823843D01*
X143374789Y-125807600D01*
X143364298Y-125783790D01*
X143357455Y-125751418D01*
X143353504Y-125704271D01*
X143351688Y-125636135D01*
X143351362Y-125565142D01*
X143527891Y-125565142D01*
X143528040Y-125624431D01*
X143532573Y-125663969D01*
X143542760Y-125692189D01*
X143559872Y-125717519D01*
X143581610Y-125741069D01*
X143616372Y-125758892D01*
X143668750Y-125763421D01*
X143715020Y-125759480D01*
X143760817Y-125739759D01*
X143790312Y-125699809D01*
X143806104Y-125635600D01*
X143810790Y-125543101D01*
X143809578Y-125493894D01*
X143797481Y-125401006D01*
X143772523Y-125338196D01*
X143734844Y-125305906D01*
X143696789Y-125296822D01*
X143630513Y-125301081D01*
X143574516Y-125327452D01*
X143561114Y-125339545D01*
X143546913Y-125360467D01*
X143538133Y-125391611D01*
X143532919Y-125440710D01*
X143529416Y-125515498D01*
X143527891Y-125565142D01*
X143351362Y-125565142D01*
X143351250Y-125540797D01*
X143351400Y-125497296D01*
X143353962Y-125396111D01*
X143361097Y-125320522D01*
X143374606Y-125264817D01*
X143396294Y-125223283D01*
X143427960Y-125190206D01*
X143471408Y-125159874D01*
X143506640Y-125142468D01*
X143590173Y-125123271D01*
X143678222Y-125125887D01*
X143756481Y-125150772D01*
X143790067Y-125167039D01*
X143806960Y-125168720D01*
X143810790Y-125153916D01*
X143810794Y-125153468D01*
X143819048Y-125138351D01*
X143847517Y-125130603D01*
X143902698Y-125128421D01*
X143994606Y-125128421D01*
X143994606Y-127202273D01*
X143906875Y-127197222D01*
G36*
X140748063Y-126644107D02*
G01*
X140770655Y-126711510D01*
X140797379Y-126786127D01*
X140819696Y-126842654D01*
X140835759Y-126876486D01*
X140843724Y-126883016D01*
X140845646Y-126877337D01*
X140856049Y-126842507D01*
X140872619Y-126784335D01*
X140893516Y-126709333D01*
X140916900Y-126624013D01*
X140980518Y-126390066D01*
X141077655Y-126384990D01*
X141085854Y-126384584D01*
X141138235Y-126384046D01*
X141163406Y-126389423D01*
X141166612Y-126401701D01*
X141162562Y-126413692D01*
X141149241Y-126454734D01*
X141128384Y-126519736D01*
X141101479Y-126604048D01*
X141070012Y-126703022D01*
X141035469Y-126812006D01*
X140912505Y-127200526D01*
X140758689Y-127200526D01*
X140686213Y-126954046D01*
X140672830Y-126908785D01*
X140648096Y-126826502D01*
X140626962Y-126757940D01*
X140611329Y-126709225D01*
X140603102Y-126686483D01*
X140600758Y-126684787D01*
X140589351Y-126699456D01*
X140573065Y-126738248D01*
X140554606Y-126795102D01*
X140553631Y-126798441D01*
X140528917Y-126882347D01*
X140500641Y-126977351D01*
X140474730Y-127063528D01*
X140432714Y-127202253D01*
X140277750Y-127192171D01*
X140205987Y-126966579D01*
X140174480Y-126867454D01*
X140139187Y-126756281D01*
X140105393Y-126649704D01*
X140077418Y-126561349D01*
X140020613Y-126381710D01*
X140210656Y-126381710D01*
X140256720Y-126552993D01*
X140268965Y-126598251D01*
X140292125Y-126682625D01*
X140313572Y-126759384D01*
X140329876Y-126816184D01*
X140356969Y-126908092D01*
X140443374Y-126649079D01*
X140529780Y-126390066D01*
X140595870Y-126385104D01*
X140661959Y-126380143D01*
X140748063Y-126644107D01*
G37*
X140748063Y-126644107D02*
X140770655Y-126711510D01*
X140797379Y-126786127D01*
X140819696Y-126842654D01*
X140835759Y-126876486D01*
X140843724Y-126883016D01*
X140845646Y-126877337D01*
X140856049Y-126842507D01*
X140872619Y-126784335D01*
X140893516Y-126709333D01*
X140916900Y-126624013D01*
X140980518Y-126390066D01*
X141077655Y-126384990D01*
X141085854Y-126384584D01*
X141138235Y-126384046D01*
X141163406Y-126389423D01*
X141166612Y-126401701D01*
X141162562Y-126413692D01*
X141149241Y-126454734D01*
X141128384Y-126519736D01*
X141101479Y-126604048D01*
X141070012Y-126703022D01*
X141035469Y-126812006D01*
X140912505Y-127200526D01*
X140758689Y-127200526D01*
X140686213Y-126954046D01*
X140672830Y-126908785D01*
X140648096Y-126826502D01*
X140626962Y-126757940D01*
X140611329Y-126709225D01*
X140603102Y-126686483D01*
X140600758Y-126684787D01*
X140589351Y-126699456D01*
X140573065Y-126738248D01*
X140554606Y-126795102D01*
X140553631Y-126798441D01*
X140528917Y-126882347D01*
X140500641Y-126977351D01*
X140474730Y-127063528D01*
X140432714Y-127202253D01*
X140277750Y-127192171D01*
X140205987Y-126966579D01*
X140174480Y-126867454D01*
X140139187Y-126756281D01*
X140105393Y-126649704D01*
X140077418Y-126561349D01*
X140020613Y-126381710D01*
X140210656Y-126381710D01*
X140256720Y-126552993D01*
X140268965Y-126598251D01*
X140292125Y-126682625D01*
X140313572Y-126759384D01*
X140329876Y-126816184D01*
X140356969Y-126908092D01*
X140443374Y-126649079D01*
X140529780Y-126390066D01*
X140595870Y-126385104D01*
X140661959Y-126380143D01*
X140748063Y-126644107D01*
G36*
X138661245Y-126853498D02*
G01*
X138641455Y-126972794D01*
X138600734Y-127066598D01*
X138538724Y-127135581D01*
X138455066Y-127180412D01*
X138428037Y-127188332D01*
X138331524Y-127199395D01*
X138229615Y-127190059D01*
X138137566Y-127161246D01*
X138105138Y-127144892D01*
X138058643Y-127116878D01*
X138030465Y-127093827D01*
X138026305Y-127088560D01*
X138018522Y-127069299D01*
X138029736Y-127048361D01*
X138063886Y-127016650D01*
X138080367Y-127002845D01*
X138112832Y-126977583D01*
X138129855Y-126967258D01*
X138134732Y-126968321D01*
X138162681Y-126979819D01*
X138204408Y-127000000D01*
X138218013Y-127006638D01*
X138298271Y-127031289D01*
X138367997Y-127024935D01*
X138429140Y-126987467D01*
X138436255Y-126980544D01*
X138470268Y-126937178D01*
X138489702Y-126895559D01*
X138500466Y-126849605D01*
X137995527Y-126849605D01*
X137995620Y-126761875D01*
X137995673Y-126753150D01*
X138002490Y-126682763D01*
X138179343Y-126682763D01*
X138181431Y-126697361D01*
X138192152Y-126707422D01*
X138217707Y-126713006D01*
X138264289Y-126715408D01*
X138338093Y-126715921D01*
X138379124Y-126715389D01*
X138439688Y-126712280D01*
X138481345Y-126707012D01*
X138496843Y-126700298D01*
X138483626Y-126645033D01*
X138444930Y-126593452D01*
X138389121Y-126557666D01*
X138324651Y-126545288D01*
X138277185Y-126559242D01*
X138229738Y-126593353D01*
X138193669Y-126637796D01*
X138179343Y-126682763D01*
X138002490Y-126682763D01*
X138006127Y-126645216D01*
X138036555Y-126557413D01*
X138089649Y-126481723D01*
X138122038Y-126449705D01*
X138188932Y-126406845D01*
X138268807Y-126386078D01*
X138369700Y-126384618D01*
X138418435Y-126390343D01*
X138508396Y-126420071D01*
X138577271Y-126474178D01*
X138625664Y-126553498D01*
X138654179Y-126658866D01*
X138657074Y-126700298D01*
X138663418Y-126791118D01*
X138661245Y-126853498D01*
G37*
X138661245Y-126853498D02*
X138641455Y-126972794D01*
X138600734Y-127066598D01*
X138538724Y-127135581D01*
X138455066Y-127180412D01*
X138428037Y-127188332D01*
X138331524Y-127199395D01*
X138229615Y-127190059D01*
X138137566Y-127161246D01*
X138105138Y-127144892D01*
X138058643Y-127116878D01*
X138030465Y-127093827D01*
X138026305Y-127088560D01*
X138018522Y-127069299D01*
X138029736Y-127048361D01*
X138063886Y-127016650D01*
X138080367Y-127002845D01*
X138112832Y-126977583D01*
X138129855Y-126967258D01*
X138134732Y-126968321D01*
X138162681Y-126979819D01*
X138204408Y-127000000D01*
X138218013Y-127006638D01*
X138298271Y-127031289D01*
X138367997Y-127024935D01*
X138429140Y-126987467D01*
X138436255Y-126980544D01*
X138470268Y-126937178D01*
X138489702Y-126895559D01*
X138500466Y-126849605D01*
X137995527Y-126849605D01*
X137995620Y-126761875D01*
X137995673Y-126753150D01*
X138002490Y-126682763D01*
X138179343Y-126682763D01*
X138181431Y-126697361D01*
X138192152Y-126707422D01*
X138217707Y-126713006D01*
X138264289Y-126715408D01*
X138338093Y-126715921D01*
X138379124Y-126715389D01*
X138439688Y-126712280D01*
X138481345Y-126707012D01*
X138496843Y-126700298D01*
X138483626Y-126645033D01*
X138444930Y-126593452D01*
X138389121Y-126557666D01*
X138324651Y-126545288D01*
X138277185Y-126559242D01*
X138229738Y-126593353D01*
X138193669Y-126637796D01*
X138179343Y-126682763D01*
X138002490Y-126682763D01*
X138006127Y-126645216D01*
X138036555Y-126557413D01*
X138089649Y-126481723D01*
X138122038Y-126449705D01*
X138188932Y-126406845D01*
X138268807Y-126386078D01*
X138369700Y-126384618D01*
X138418435Y-126390343D01*
X138508396Y-126420071D01*
X138577271Y-126474178D01*
X138625664Y-126553498D01*
X138654179Y-126658866D01*
X138657074Y-126700298D01*
X138663418Y-126791118D01*
X138661245Y-126853498D01*
G36*
X138693684Y-125122216D02*
G01*
X138734650Y-125135005D01*
X138785099Y-125156261D01*
X138809526Y-125167684D01*
X138827155Y-125169749D01*
X138831053Y-125153916D01*
X138831057Y-125153468D01*
X138839312Y-125138351D01*
X138867781Y-125130603D01*
X138922961Y-125128421D01*
X139014869Y-125128421D01*
X139014869Y-125930526D01*
X138831053Y-125930526D01*
X138831053Y-125377483D01*
X138785358Y-125335134D01*
X138771082Y-125323098D01*
X138728558Y-125302534D01*
X138676192Y-125301710D01*
X138604889Y-125319856D01*
X138580852Y-125321005D01*
X138552656Y-125303402D01*
X138515126Y-125261562D01*
X138496921Y-125238419D01*
X138475391Y-125205742D01*
X138472073Y-125184942D01*
X138484128Y-125167395D01*
X138521135Y-125145206D01*
X138578612Y-125127645D01*
X138640972Y-125118938D01*
X138693684Y-125122216D01*
G37*
X138693684Y-125122216D02*
X138734650Y-125135005D01*
X138785099Y-125156261D01*
X138809526Y-125167684D01*
X138827155Y-125169749D01*
X138831053Y-125153916D01*
X138831057Y-125153468D01*
X138839312Y-125138351D01*
X138867781Y-125130603D01*
X138922961Y-125128421D01*
X139014869Y-125128421D01*
X139014869Y-125930526D01*
X138831053Y-125930526D01*
X138831053Y-125377483D01*
X138785358Y-125335134D01*
X138771082Y-125323098D01*
X138728558Y-125302534D01*
X138676192Y-125301710D01*
X138604889Y-125319856D01*
X138580852Y-125321005D01*
X138552656Y-125303402D01*
X138515126Y-125261562D01*
X138496921Y-125238419D01*
X138475391Y-125205742D01*
X138472073Y-125184942D01*
X138484128Y-125167395D01*
X138521135Y-125145206D01*
X138578612Y-125127645D01*
X138640972Y-125118938D01*
X138693684Y-125122216D01*
G36*
X143238722Y-126980000D02*
G01*
X143218360Y-127065846D01*
X143173067Y-127130412D01*
X143100593Y-127176937D01*
X143063140Y-127188256D01*
X142998990Y-127197078D01*
X142928840Y-127199185D01*
X142865548Y-127194330D01*
X142821976Y-127182268D01*
X142795512Y-127172606D01*
X142769601Y-127182268D01*
X142760123Y-127187866D01*
X142722294Y-127196943D01*
X142671132Y-127200526D01*
X142590922Y-127200526D01*
X142590922Y-126913857D01*
X142774737Y-126913857D01*
X142780915Y-126962753D01*
X142805297Y-127005765D01*
X142819249Y-127015074D01*
X142869051Y-127029583D01*
X142931225Y-127033205D01*
X142992196Y-127025845D01*
X143038388Y-127007408D01*
X143061399Y-126983030D01*
X143075527Y-126939713D01*
X143062998Y-126905376D01*
X143021582Y-126875520D01*
X142955005Y-126856366D01*
X142867182Y-126849605D01*
X142774737Y-126849605D01*
X142774737Y-126913857D01*
X142590922Y-126913857D01*
X142590922Y-126877142D01*
X142590928Y-126849176D01*
X142591232Y-126743767D01*
X142592376Y-126665401D01*
X142594877Y-126608871D01*
X142599256Y-126568970D01*
X142606032Y-126540492D01*
X142615725Y-126518230D01*
X142628853Y-126496978D01*
X142671084Y-126447180D01*
X142730930Y-126409160D01*
X142809543Y-126388184D01*
X142913136Y-126381736D01*
X142916503Y-126381743D01*
X142988513Y-126384995D01*
X143052966Y-126393103D01*
X143096952Y-126404470D01*
X143109010Y-126410166D01*
X143147391Y-126434289D01*
X143182124Y-126462960D01*
X143204977Y-126488760D01*
X143207716Y-126504273D01*
X143202370Y-126508465D01*
X143144127Y-126553218D01*
X143105181Y-126579613D01*
X143079431Y-126590262D01*
X143060772Y-126587780D01*
X143043101Y-126574782D01*
X143010490Y-126558556D01*
X142955533Y-126547737D01*
X142893420Y-126544931D01*
X142837217Y-126550642D01*
X142799984Y-126565376D01*
X142798025Y-126567169D01*
X142781294Y-126600850D01*
X142774737Y-126651125D01*
X142774737Y-126715921D01*
X142929310Y-126715983D01*
X143000314Y-126717107D01*
X143060082Y-126721996D01*
X143102837Y-126732055D01*
X143137380Y-126748665D01*
X143145419Y-126753767D01*
X143203576Y-126809847D01*
X143234510Y-126884004D01*
X143237125Y-126939713D01*
X143238912Y-126977796D01*
X143238722Y-126980000D01*
G37*
X143238722Y-126980000D02*
X143218360Y-127065846D01*
X143173067Y-127130412D01*
X143100593Y-127176937D01*
X143063140Y-127188256D01*
X142998990Y-127197078D01*
X142928840Y-127199185D01*
X142865548Y-127194330D01*
X142821976Y-127182268D01*
X142795512Y-127172606D01*
X142769601Y-127182268D01*
X142760123Y-127187866D01*
X142722294Y-127196943D01*
X142671132Y-127200526D01*
X142590922Y-127200526D01*
X142590922Y-126913857D01*
X142774737Y-126913857D01*
X142780915Y-126962753D01*
X142805297Y-127005765D01*
X142819249Y-127015074D01*
X142869051Y-127029583D01*
X142931225Y-127033205D01*
X142992196Y-127025845D01*
X143038388Y-127007408D01*
X143061399Y-126983030D01*
X143075527Y-126939713D01*
X143062998Y-126905376D01*
X143021582Y-126875520D01*
X142955005Y-126856366D01*
X142867182Y-126849605D01*
X142774737Y-126849605D01*
X142774737Y-126913857D01*
X142590922Y-126913857D01*
X142590922Y-126877142D01*
X142590928Y-126849176D01*
X142591232Y-126743767D01*
X142592376Y-126665401D01*
X142594877Y-126608871D01*
X142599256Y-126568970D01*
X142606032Y-126540492D01*
X142615725Y-126518230D01*
X142628853Y-126496978D01*
X142671084Y-126447180D01*
X142730930Y-126409160D01*
X142809543Y-126388184D01*
X142913136Y-126381736D01*
X142916503Y-126381743D01*
X142988513Y-126384995D01*
X143052966Y-126393103D01*
X143096952Y-126404470D01*
X143109010Y-126410166D01*
X143147391Y-126434289D01*
X143182124Y-126462960D01*
X143204977Y-126488760D01*
X143207716Y-126504273D01*
X143202370Y-126508465D01*
X143144127Y-126553218D01*
X143105181Y-126579613D01*
X143079431Y-126590262D01*
X143060772Y-126587780D01*
X143043101Y-126574782D01*
X143010490Y-126558556D01*
X142955533Y-126547737D01*
X142893420Y-126544931D01*
X142837217Y-126550642D01*
X142799984Y-126565376D01*
X142798025Y-126567169D01*
X142781294Y-126600850D01*
X142774737Y-126651125D01*
X142774737Y-126715921D01*
X142929310Y-126715983D01*
X143000314Y-126717107D01*
X143060082Y-126721996D01*
X143102837Y-126732055D01*
X143137380Y-126748665D01*
X143145419Y-126753767D01*
X143203576Y-126809847D01*
X143234510Y-126884004D01*
X143237125Y-126939713D01*
X143238912Y-126977796D01*
X143238722Y-126980000D01*
G36*
X141101399Y-125127879D02*
G01*
X141197909Y-125152068D01*
X141268411Y-125196902D01*
X141313307Y-125262681D01*
X141332999Y-125349707D01*
X141329012Y-125433023D01*
X141300235Y-125503297D01*
X141245048Y-125555254D01*
X141162348Y-125589910D01*
X141051026Y-125608279D01*
X140978692Y-125617906D01*
X140912670Y-125638737D01*
X140878583Y-125668904D01*
X140876526Y-125708352D01*
X140890243Y-125732949D01*
X140932726Y-125762101D01*
X140993117Y-125775889D01*
X141063889Y-125774004D01*
X141137512Y-125756133D01*
X141206457Y-125721967D01*
X141275197Y-125676477D01*
X141396119Y-125798835D01*
X141345987Y-125839755D01*
X141326494Y-125853973D01*
X141271650Y-125886275D01*
X141212303Y-125914109D01*
X141165335Y-125930083D01*
X141096562Y-125941654D01*
X141011777Y-125941807D01*
X140907806Y-125929067D01*
X140814145Y-125896777D01*
X140747849Y-125845486D01*
X140708760Y-125775065D01*
X140696722Y-125685387D01*
X140705436Y-125606497D01*
X140733408Y-125541907D01*
X140783768Y-125495651D01*
X140859703Y-125464888D01*
X140964400Y-125446778D01*
X140976425Y-125445467D01*
X141041611Y-125437106D01*
X141094490Y-125428357D01*
X141124573Y-125420913D01*
X141134612Y-125414920D01*
X141151584Y-125384013D01*
X141148828Y-125344450D01*
X141126146Y-125310105D01*
X141114236Y-125302615D01*
X141064606Y-125290613D01*
X141000500Y-125291420D01*
X140933653Y-125304192D01*
X140875799Y-125328086D01*
X140815008Y-125363954D01*
X140767854Y-125308852D01*
X140756412Y-125294853D01*
X140730634Y-125257353D01*
X140720022Y-125231937D01*
X140731166Y-125216353D01*
X140765644Y-125192026D01*
X140815428Y-125165848D01*
X140822443Y-125162648D01*
X140888092Y-125137548D01*
X140951372Y-125125547D01*
X141029900Y-125123137D01*
X141101399Y-125127879D01*
G37*
X141101399Y-125127879D02*
X141197909Y-125152068D01*
X141268411Y-125196902D01*
X141313307Y-125262681D01*
X141332999Y-125349707D01*
X141329012Y-125433023D01*
X141300235Y-125503297D01*
X141245048Y-125555254D01*
X141162348Y-125589910D01*
X141051026Y-125608279D01*
X140978692Y-125617906D01*
X140912670Y-125638737D01*
X140878583Y-125668904D01*
X140876526Y-125708352D01*
X140890243Y-125732949D01*
X140932726Y-125762101D01*
X140993117Y-125775889D01*
X141063889Y-125774004D01*
X141137512Y-125756133D01*
X141206457Y-125721967D01*
X141275197Y-125676477D01*
X141396119Y-125798835D01*
X141345987Y-125839755D01*
X141326494Y-125853973D01*
X141271650Y-125886275D01*
X141212303Y-125914109D01*
X141165335Y-125930083D01*
X141096562Y-125941654D01*
X141011777Y-125941807D01*
X140907806Y-125929067D01*
X140814145Y-125896777D01*
X140747849Y-125845486D01*
X140708760Y-125775065D01*
X140696722Y-125685387D01*
X140705436Y-125606497D01*
X140733408Y-125541907D01*
X140783768Y-125495651D01*
X140859703Y-125464888D01*
X140964400Y-125446778D01*
X140976425Y-125445467D01*
X141041611Y-125437106D01*
X141094490Y-125428357D01*
X141124573Y-125420913D01*
X141134612Y-125414920D01*
X141151584Y-125384013D01*
X141148828Y-125344450D01*
X141126146Y-125310105D01*
X141114236Y-125302615D01*
X141064606Y-125290613D01*
X141000500Y-125291420D01*
X140933653Y-125304192D01*
X140875799Y-125328086D01*
X140815008Y-125363954D01*
X140767854Y-125308852D01*
X140756412Y-125294853D01*
X140730634Y-125257353D01*
X140720022Y-125231937D01*
X140731166Y-125216353D01*
X140765644Y-125192026D01*
X140815428Y-125165848D01*
X140822443Y-125162648D01*
X140888092Y-125137548D01*
X140951372Y-125125547D01*
X141029900Y-125123137D01*
X141101399Y-125127879D01*
G36*
X142142937Y-125126840D02*
G01*
X142219112Y-125150773D01*
X142252699Y-125167040D01*
X142269592Y-125168720D01*
X142273422Y-125153916D01*
X142273425Y-125153468D01*
X142281680Y-125138351D01*
X142310149Y-125130603D01*
X142365329Y-125128421D01*
X142457237Y-125128421D01*
X142457237Y-125930526D01*
X142273422Y-125930526D01*
X142273422Y-125654043D01*
X142273296Y-125560680D01*
X142272436Y-125483988D01*
X142270137Y-125430322D01*
X142265690Y-125394212D01*
X142258390Y-125370191D01*
X142247530Y-125352791D01*
X142232405Y-125336543D01*
X142211801Y-125319261D01*
X142152555Y-125296042D01*
X142090366Y-125302857D01*
X142033398Y-125339581D01*
X142017115Y-125356673D01*
X142005426Y-125373971D01*
X141997586Y-125396990D01*
X141992827Y-125431271D01*
X141990379Y-125482353D01*
X141989473Y-125555777D01*
X141989343Y-125657081D01*
X141989343Y-125930526D01*
X141805527Y-125930526D01*
X141805894Y-125633914D01*
X141805919Y-125620702D01*
X141807513Y-125494535D01*
X141812408Y-125396528D01*
X141821864Y-125321915D01*
X141837139Y-125265931D01*
X141859490Y-125223809D01*
X141890175Y-125190784D01*
X141930454Y-125162090D01*
X141972043Y-125142226D01*
X142055800Y-125124178D01*
X142142937Y-125126840D01*
G37*
X142142937Y-125126840D02*
X142219112Y-125150773D01*
X142252699Y-125167040D01*
X142269592Y-125168720D01*
X142273422Y-125153916D01*
X142273425Y-125153468D01*
X142281680Y-125138351D01*
X142310149Y-125130603D01*
X142365329Y-125128421D01*
X142457237Y-125128421D01*
X142457237Y-125930526D01*
X142273422Y-125930526D01*
X142273422Y-125654043D01*
X142273296Y-125560680D01*
X142272436Y-125483988D01*
X142270137Y-125430322D01*
X142265690Y-125394212D01*
X142258390Y-125370191D01*
X142247530Y-125352791D01*
X142232405Y-125336543D01*
X142211801Y-125319261D01*
X142152555Y-125296042D01*
X142090366Y-125302857D01*
X142033398Y-125339581D01*
X142017115Y-125356673D01*
X142005426Y-125373971D01*
X141997586Y-125396990D01*
X141992827Y-125431271D01*
X141990379Y-125482353D01*
X141989473Y-125555777D01*
X141989343Y-125657081D01*
X141989343Y-125930526D01*
X141805527Y-125930526D01*
X141805894Y-125633914D01*
X141805919Y-125620702D01*
X141807513Y-125494535D01*
X141812408Y-125396528D01*
X141821864Y-125321915D01*
X141837139Y-125265931D01*
X141859490Y-125223809D01*
X141890175Y-125190784D01*
X141930454Y-125162090D01*
X141972043Y-125142226D01*
X142055800Y-125124178D01*
X142142937Y-125126840D01*
G36*
X144775273Y-125627701D02*
G01*
X144770376Y-125691519D01*
X144762033Y-125736752D01*
X144748256Y-125772593D01*
X144727057Y-125808236D01*
X144726154Y-125809587D01*
X144673953Y-125867335D01*
X144610083Y-125911380D01*
X144535813Y-125937517D01*
X144438110Y-125946003D01*
X144342350Y-125929316D01*
X144256755Y-125889106D01*
X144189545Y-125827022D01*
X144170250Y-125797688D01*
X144134216Y-125706496D01*
X144116344Y-125593984D01*
X144116650Y-125565524D01*
X144296249Y-125565524D01*
X144296588Y-125618750D01*
X144302231Y-125654284D01*
X144315089Y-125681589D01*
X144337072Y-125710124D01*
X144367579Y-125738440D01*
X144428592Y-125763710D01*
X144494106Y-125759016D01*
X144556719Y-125723896D01*
X144574381Y-125707122D01*
X144593239Y-125678407D01*
X144603696Y-125638046D01*
X144609624Y-125575154D01*
X144611257Y-125527910D01*
X144602311Y-125431428D01*
X144574860Y-125362352D01*
X144528781Y-125320301D01*
X144474766Y-125300165D01*
X144410349Y-125301860D01*
X144350637Y-125335855D01*
X144336361Y-125348797D01*
X144318347Y-125371440D01*
X144307659Y-125401064D01*
X144301729Y-125446482D01*
X144297988Y-125516506D01*
X144296249Y-125565524D01*
X144116650Y-125565524D01*
X144117723Y-125465624D01*
X144119482Y-125447418D01*
X144144024Y-125330812D01*
X144189430Y-125240290D01*
X144255795Y-125175754D01*
X144343216Y-125137104D01*
X144451791Y-125124243D01*
X144492811Y-125125450D01*
X144576934Y-125140220D01*
X144645722Y-125175474D01*
X144709854Y-125235828D01*
X144720110Y-125247942D01*
X144747774Y-125288737D01*
X144765955Y-125334930D01*
X144776036Y-125393468D01*
X144779401Y-125471299D01*
X144778329Y-125527910D01*
X144777431Y-125575368D01*
X144775273Y-125627701D01*
G37*
X144775273Y-125627701D02*
X144770376Y-125691519D01*
X144762033Y-125736752D01*
X144748256Y-125772593D01*
X144727057Y-125808236D01*
X144726154Y-125809587D01*
X144673953Y-125867335D01*
X144610083Y-125911380D01*
X144535813Y-125937517D01*
X144438110Y-125946003D01*
X144342350Y-125929316D01*
X144256755Y-125889106D01*
X144189545Y-125827022D01*
X144170250Y-125797688D01*
X144134216Y-125706496D01*
X144116344Y-125593984D01*
X144116650Y-125565524D01*
X144296249Y-125565524D01*
X144296588Y-125618750D01*
X144302231Y-125654284D01*
X144315089Y-125681589D01*
X144337072Y-125710124D01*
X144367579Y-125738440D01*
X144428592Y-125763710D01*
X144494106Y-125759016D01*
X144556719Y-125723896D01*
X144574381Y-125707122D01*
X144593239Y-125678407D01*
X144603696Y-125638046D01*
X144609624Y-125575154D01*
X144611257Y-125527910D01*
X144602311Y-125431428D01*
X144574860Y-125362352D01*
X144528781Y-125320301D01*
X144474766Y-125300165D01*
X144410349Y-125301860D01*
X144350637Y-125335855D01*
X144336361Y-125348797D01*
X144318347Y-125371440D01*
X144307659Y-125401064D01*
X144301729Y-125446482D01*
X144297988Y-125516506D01*
X144296249Y-125565524D01*
X144116650Y-125565524D01*
X144117723Y-125465624D01*
X144119482Y-125447418D01*
X144144024Y-125330812D01*
X144189430Y-125240290D01*
X144255795Y-125175754D01*
X144343216Y-125137104D01*
X144451791Y-125124243D01*
X144492811Y-125125450D01*
X144576934Y-125140220D01*
X144645722Y-125175474D01*
X144709854Y-125235828D01*
X144720110Y-125247942D01*
X144747774Y-125288737D01*
X144765955Y-125334930D01*
X144776036Y-125393468D01*
X144779401Y-125471299D01*
X144778329Y-125527910D01*
X144777431Y-125575368D01*
X144775273Y-125627701D01*
G36*
X141454254Y-119588576D02*
G01*
X141529803Y-119989322D01*
X141808567Y-120104238D01*
X142087332Y-120219154D01*
X142421756Y-119991748D01*
X142487946Y-119946917D01*
X142575693Y-119888071D01*
X142651663Y-119837810D01*
X142711911Y-119798715D01*
X142752491Y-119773365D01*
X142769457Y-119764342D01*
X142779877Y-119770759D01*
X142811025Y-119797647D01*
X142858161Y-119841774D01*
X142917293Y-119899087D01*
X142984426Y-119965535D01*
X143055566Y-120037065D01*
X143126719Y-120109626D01*
X143193892Y-120179167D01*
X143253090Y-120241635D01*
X143300319Y-120292978D01*
X143331586Y-120329145D01*
X143342895Y-120346083D01*
X143340264Y-120353361D01*
X143322048Y-120385824D01*
X143288782Y-120439249D01*
X143243164Y-120509449D01*
X143187890Y-120592236D01*
X143125658Y-120683421D01*
X143091506Y-120733152D01*
X143032757Y-120819731D01*
X142982388Y-120895291D01*
X142943086Y-120955733D01*
X142917535Y-120996961D01*
X142908422Y-121014876D01*
X142908571Y-121015869D01*
X142916611Y-121038580D01*
X142935054Y-121084955D01*
X142961331Y-121148937D01*
X142992871Y-121224468D01*
X143027102Y-121305489D01*
X143061454Y-121385943D01*
X143093355Y-121459772D01*
X143120235Y-121520918D01*
X143139522Y-121563322D01*
X143148646Y-121580926D01*
X143154045Y-121582488D01*
X143186846Y-121589531D01*
X143245306Y-121601199D01*
X143324746Y-121616580D01*
X143420486Y-121634760D01*
X143527846Y-121654830D01*
X143584431Y-121665471D01*
X143688289Y-121685773D01*
X143779097Y-121704522D01*
X143851891Y-121720642D01*
X143901708Y-121733056D01*
X143923586Y-121740686D01*
X143927516Y-121748250D01*
X143934034Y-121785209D01*
X143939156Y-121846765D01*
X143942884Y-121927127D01*
X143945223Y-122020503D01*
X143946177Y-122121101D01*
X143945749Y-122223128D01*
X143943945Y-122320793D01*
X143940766Y-122408304D01*
X143936219Y-122479869D01*
X143930306Y-122529696D01*
X143923031Y-122551993D01*
X143918617Y-122554508D01*
X143885694Y-122565296D01*
X143828582Y-122579569D01*
X143753882Y-122595764D01*
X143668196Y-122612319D01*
X143639285Y-122617592D01*
X143505755Y-122642113D01*
X143400813Y-122661821D01*
X143320820Y-122677531D01*
X143262139Y-122690062D01*
X143221132Y-122700229D01*
X143194161Y-122708851D01*
X143177588Y-122716745D01*
X143167775Y-122724727D01*
X143166635Y-122726067D01*
X143150588Y-122753997D01*
X143126843Y-122805104D01*
X143097701Y-122873392D01*
X143065463Y-122952866D01*
X143032430Y-123037529D01*
X143000904Y-123121387D01*
X142973186Y-123198444D01*
X142951577Y-123262704D01*
X142938379Y-123308172D01*
X142935893Y-123328852D01*
X142937555Y-123331535D01*
X142954765Y-123357484D01*
X142987130Y-123405345D01*
X143031650Y-123470710D01*
X143085323Y-123549170D01*
X143145149Y-123636315D01*
X143161567Y-123660292D01*
X143219303Y-123746295D01*
X143269200Y-123823211D01*
X143308409Y-123886477D01*
X143334083Y-123931532D01*
X143343374Y-123953815D01*
X143341372Y-123959673D01*
X143320503Y-123988541D01*
X143279331Y-124035680D01*
X143220803Y-124097920D01*
X143147867Y-124172087D01*
X143063473Y-124255008D01*
X143015234Y-124301421D01*
X142938962Y-124373708D01*
X142872205Y-124435624D01*
X142818546Y-124483911D01*
X142781570Y-124515307D01*
X142764863Y-124526554D01*
X142753385Y-124522384D01*
X142718045Y-124502663D01*
X142666723Y-124470410D01*
X142606113Y-124429711D01*
X142563020Y-124400011D01*
X142476987Y-124341030D01*
X142385179Y-124278390D01*
X142301323Y-124221469D01*
X142137053Y-124110359D01*
X141999160Y-124184916D01*
X141966690Y-124202125D01*
X141907642Y-124231560D01*
X141861979Y-124251883D01*
X141837574Y-124259460D01*
X141829588Y-124249730D01*
X141809756Y-124212679D01*
X141780462Y-124151593D01*
X141743338Y-124070349D01*
X141700013Y-123972823D01*
X141652118Y-123862891D01*
X141601281Y-123744432D01*
X141549133Y-123621321D01*
X141497304Y-123497435D01*
X141447424Y-123376650D01*
X141401123Y-123262844D01*
X141360031Y-123159893D01*
X141325778Y-123071673D01*
X141299993Y-123002062D01*
X141284308Y-122954936D01*
X141280351Y-122934172D01*
X141280619Y-122933565D01*
X141299050Y-122914370D01*
X141337602Y-122884306D01*
X141388316Y-122849609D01*
X141404324Y-122839014D01*
X141526125Y-122738498D01*
X141626929Y-122618777D01*
X141704351Y-122484834D01*
X141756004Y-122341653D01*
X141779500Y-122194216D01*
X141772454Y-122047507D01*
X141743910Y-121917020D01*
X141692659Y-121785257D01*
X141617945Y-121667706D01*
X141515414Y-121556042D01*
X141475127Y-121520369D01*
X141344889Y-121432480D01*
X141204197Y-121373288D01*
X141057127Y-121342265D01*
X140907758Y-121338879D01*
X140760167Y-121362602D01*
X140618429Y-121412904D01*
X140486623Y-121489255D01*
X140368826Y-121591125D01*
X140269114Y-121717984D01*
X140249943Y-121749400D01*
X140184783Y-121892992D01*
X140150177Y-122042517D01*
X140145218Y-122194105D01*
X140169001Y-122343882D01*
X140220619Y-122487976D01*
X140299166Y-122622515D01*
X140403736Y-122743625D01*
X140533422Y-122847434D01*
X140537634Y-122850232D01*
X140587810Y-122885590D01*
X140625417Y-122915653D01*
X140642594Y-122934172D01*
X140640426Y-122948690D01*
X140626951Y-122990965D01*
X140603058Y-123056486D01*
X140570375Y-123141377D01*
X140530533Y-123241759D01*
X140485160Y-123353757D01*
X140435887Y-123473491D01*
X140384341Y-123597084D01*
X140332154Y-123720659D01*
X140280953Y-123840339D01*
X140232368Y-123952245D01*
X140188030Y-124052500D01*
X140149566Y-124137227D01*
X140118606Y-124202547D01*
X140096779Y-124244584D01*
X140085716Y-124259460D01*
X140076516Y-124257446D01*
X140040371Y-124242966D01*
X139986951Y-124217578D01*
X139924131Y-124184916D01*
X139786238Y-124110359D01*
X139621968Y-124221469D01*
X139573436Y-124254370D01*
X139483166Y-124315845D01*
X139393171Y-124377418D01*
X139317177Y-124429711D01*
X139275237Y-124458209D01*
X139220726Y-124493616D01*
X139180309Y-124517855D01*
X139160568Y-124526842D01*
X139152087Y-124523026D01*
X139121429Y-124499656D01*
X139074168Y-124458510D01*
X139014416Y-124403635D01*
X138946288Y-124339077D01*
X138873896Y-124268885D01*
X138801356Y-124197106D01*
X138732780Y-124127786D01*
X138672282Y-124064973D01*
X138623976Y-124012714D01*
X138591976Y-123975057D01*
X138580395Y-123956048D01*
X138581063Y-123952431D01*
X138594847Y-123922993D01*
X138624292Y-123872062D01*
X138666553Y-123804238D01*
X138718785Y-123724123D01*
X138778142Y-123636315D01*
X138794789Y-123612096D01*
X138853244Y-123526868D01*
X138904733Y-123451521D01*
X138946256Y-123390463D01*
X138974811Y-123348104D01*
X138987398Y-123328852D01*
X138987707Y-123328027D01*
X138983993Y-123304473D01*
X138969807Y-123256759D01*
X138947451Y-123190879D01*
X138919227Y-123112830D01*
X138887435Y-123028607D01*
X138854378Y-122944205D01*
X138822356Y-122865621D01*
X138793671Y-122798850D01*
X138770623Y-122749886D01*
X138755515Y-122724727D01*
X138754002Y-122723165D01*
X138743185Y-122715263D01*
X138724915Y-122707294D01*
X138695556Y-122698441D01*
X138651470Y-122687887D01*
X138589018Y-122674815D01*
X138504564Y-122658408D01*
X138394469Y-122637848D01*
X138255095Y-122612319D01*
X138226187Y-122606946D01*
X138143377Y-122590337D01*
X138073718Y-122574600D01*
X138023812Y-122561298D01*
X138000259Y-122551993D01*
X137996319Y-122544230D01*
X137989750Y-122506942D01*
X137984544Y-122445125D01*
X137980706Y-122364572D01*
X137978239Y-122271075D01*
X137977147Y-122170426D01*
X137977435Y-122068417D01*
X137979107Y-121970839D01*
X137982165Y-121883485D01*
X137986615Y-121812147D01*
X137992460Y-121762617D01*
X137999704Y-121740686D01*
X138007101Y-121737446D01*
X138043896Y-121727233D01*
X138106091Y-121712789D01*
X138188723Y-121695189D01*
X138286828Y-121675510D01*
X138395444Y-121654830D01*
X138454750Y-121643781D01*
X138556398Y-121624621D01*
X138643890Y-121607844D01*
X138712549Y-121594361D01*
X138757693Y-121585084D01*
X138774644Y-121580926D01*
X138775281Y-121580069D01*
X138786077Y-121558293D01*
X138806657Y-121512671D01*
X138834449Y-121449258D01*
X138866882Y-121374107D01*
X138901382Y-121293270D01*
X138935378Y-121212799D01*
X138966297Y-121138749D01*
X138991566Y-121077172D01*
X139008615Y-121034121D01*
X139014869Y-121015650D01*
X139012110Y-121009150D01*
X138993750Y-120978222D01*
X138960446Y-120926163D01*
X138914874Y-120857059D01*
X138859711Y-120774993D01*
X138797632Y-120684052D01*
X138763573Y-120634248D01*
X138704797Y-120546931D01*
X138654403Y-120470298D01*
X138615080Y-120408531D01*
X138589514Y-120365806D01*
X138580395Y-120346305D01*
X138586732Y-120335727D01*
X138613237Y-120304119D01*
X138656720Y-120256283D01*
X138713189Y-120196273D01*
X138778653Y-120128142D01*
X138849121Y-120055945D01*
X138920601Y-119983733D01*
X138989100Y-119915562D01*
X139050629Y-119855483D01*
X139101194Y-119807551D01*
X139136805Y-119775820D01*
X139153470Y-119764342D01*
X139162720Y-119768805D01*
X139196689Y-119789502D01*
X139251505Y-119824727D01*
X139323218Y-119871896D01*
X139407878Y-119928431D01*
X139501535Y-119991748D01*
X139835959Y-120219154D01*
X140393487Y-119989322D01*
X140469036Y-119588576D01*
X140544585Y-119187829D01*
X141378706Y-119187829D01*
X141454254Y-119588576D01*
G37*
X141454254Y-119588576D02*
X141529803Y-119989322D01*
X141808567Y-120104238D01*
X142087332Y-120219154D01*
X142421756Y-119991748D01*
X142487946Y-119946917D01*
X142575693Y-119888071D01*
X142651663Y-119837810D01*
X142711911Y-119798715D01*
X142752491Y-119773365D01*
X142769457Y-119764342D01*
X142779877Y-119770759D01*
X142811025Y-119797647D01*
X142858161Y-119841774D01*
X142917293Y-119899087D01*
X142984426Y-119965535D01*
X143055566Y-120037065D01*
X143126719Y-120109626D01*
X143193892Y-120179167D01*
X143253090Y-120241635D01*
X143300319Y-120292978D01*
X143331586Y-120329145D01*
X143342895Y-120346083D01*
X143340264Y-120353361D01*
X143322048Y-120385824D01*
X143288782Y-120439249D01*
X143243164Y-120509449D01*
X143187890Y-120592236D01*
X143125658Y-120683421D01*
X143091506Y-120733152D01*
X143032757Y-120819731D01*
X142982388Y-120895291D01*
X142943086Y-120955733D01*
X142917535Y-120996961D01*
X142908422Y-121014876D01*
X142908571Y-121015869D01*
X142916611Y-121038580D01*
X142935054Y-121084955D01*
X142961331Y-121148937D01*
X142992871Y-121224468D01*
X143027102Y-121305489D01*
X143061454Y-121385943D01*
X143093355Y-121459772D01*
X143120235Y-121520918D01*
X143139522Y-121563322D01*
X143148646Y-121580926D01*
X143154045Y-121582488D01*
X143186846Y-121589531D01*
X143245306Y-121601199D01*
X143324746Y-121616580D01*
X143420486Y-121634760D01*
X143527846Y-121654830D01*
X143584431Y-121665471D01*
X143688289Y-121685773D01*
X143779097Y-121704522D01*
X143851891Y-121720642D01*
X143901708Y-121733056D01*
X143923586Y-121740686D01*
X143927516Y-121748250D01*
X143934034Y-121785209D01*
X143939156Y-121846765D01*
X143942884Y-121927127D01*
X143945223Y-122020503D01*
X143946177Y-122121101D01*
X143945749Y-122223128D01*
X143943945Y-122320793D01*
X143940766Y-122408304D01*
X143936219Y-122479869D01*
X143930306Y-122529696D01*
X143923031Y-122551993D01*
X143918617Y-122554508D01*
X143885694Y-122565296D01*
X143828582Y-122579569D01*
X143753882Y-122595764D01*
X143668196Y-122612319D01*
X143639285Y-122617592D01*
X143505755Y-122642113D01*
X143400813Y-122661821D01*
X143320820Y-122677531D01*
X143262139Y-122690062D01*
X143221132Y-122700229D01*
X143194161Y-122708851D01*
X143177588Y-122716745D01*
X143167775Y-122724727D01*
X143166635Y-122726067D01*
X143150588Y-122753997D01*
X143126843Y-122805104D01*
X143097701Y-122873392D01*
X143065463Y-122952866D01*
X143032430Y-123037529D01*
X143000904Y-123121387D01*
X142973186Y-123198444D01*
X142951577Y-123262704D01*
X142938379Y-123308172D01*
X142935893Y-123328852D01*
X142937555Y-123331535D01*
X142954765Y-123357484D01*
X142987130Y-123405345D01*
X143031650Y-123470710D01*
X143085323Y-123549170D01*
X143145149Y-123636315D01*
X143161567Y-123660292D01*
X143219303Y-123746295D01*
X143269200Y-123823211D01*
X143308409Y-123886477D01*
X143334083Y-123931532D01*
X143343374Y-123953815D01*
X143341372Y-123959673D01*
X143320503Y-123988541D01*
X143279331Y-124035680D01*
X143220803Y-124097920D01*
X143147867Y-124172087D01*
X143063473Y-124255008D01*
X143015234Y-124301421D01*
X142938962Y-124373708D01*
X142872205Y-124435624D01*
X142818546Y-124483911D01*
X142781570Y-124515307D01*
X142764863Y-124526554D01*
X142753385Y-124522384D01*
X142718045Y-124502663D01*
X142666723Y-124470410D01*
X142606113Y-124429711D01*
X142563020Y-124400011D01*
X142476987Y-124341030D01*
X142385179Y-124278390D01*
X142301323Y-124221469D01*
X142137053Y-124110359D01*
X141999160Y-124184916D01*
X141966690Y-124202125D01*
X141907642Y-124231560D01*
X141861979Y-124251883D01*
X141837574Y-124259460D01*
X141829588Y-124249730D01*
X141809756Y-124212679D01*
X141780462Y-124151593D01*
X141743338Y-124070349D01*
X141700013Y-123972823D01*
X141652118Y-123862891D01*
X141601281Y-123744432D01*
X141549133Y-123621321D01*
X141497304Y-123497435D01*
X141447424Y-123376650D01*
X141401123Y-123262844D01*
X141360031Y-123159893D01*
X141325778Y-123071673D01*
X141299993Y-123002062D01*
X141284308Y-122954936D01*
X141280351Y-122934172D01*
X141280619Y-122933565D01*
X141299050Y-122914370D01*
X141337602Y-122884306D01*
X141388316Y-122849609D01*
X141404324Y-122839014D01*
X141526125Y-122738498D01*
X141626929Y-122618777D01*
X141704351Y-122484834D01*
X141756004Y-122341653D01*
X141779500Y-122194216D01*
X141772454Y-122047507D01*
X141743910Y-121917020D01*
X141692659Y-121785257D01*
X141617945Y-121667706D01*
X141515414Y-121556042D01*
X141475127Y-121520369D01*
X141344889Y-121432480D01*
X141204197Y-121373288D01*
X141057127Y-121342265D01*
X140907758Y-121338879D01*
X140760167Y-121362602D01*
X140618429Y-121412904D01*
X140486623Y-121489255D01*
X140368826Y-121591125D01*
X140269114Y-121717984D01*
X140249943Y-121749400D01*
X140184783Y-121892992D01*
X140150177Y-122042517D01*
X140145218Y-122194105D01*
X140169001Y-122343882D01*
X140220619Y-122487976D01*
X140299166Y-122622515D01*
X140403736Y-122743625D01*
X140533422Y-122847434D01*
X140537634Y-122850232D01*
X140587810Y-122885590D01*
X140625417Y-122915653D01*
X140642594Y-122934172D01*
X140640426Y-122948690D01*
X140626951Y-122990965D01*
X140603058Y-123056486D01*
X140570375Y-123141377D01*
X140530533Y-123241759D01*
X140485160Y-123353757D01*
X140435887Y-123473491D01*
X140384341Y-123597084D01*
X140332154Y-123720659D01*
X140280953Y-123840339D01*
X140232368Y-123952245D01*
X140188030Y-124052500D01*
X140149566Y-124137227D01*
X140118606Y-124202547D01*
X140096779Y-124244584D01*
X140085716Y-124259460D01*
X140076516Y-124257446D01*
X140040371Y-124242966D01*
X139986951Y-124217578D01*
X139924131Y-124184916D01*
X139786238Y-124110359D01*
X139621968Y-124221469D01*
X139573436Y-124254370D01*
X139483166Y-124315845D01*
X139393171Y-124377418D01*
X139317177Y-124429711D01*
X139275237Y-124458209D01*
X139220726Y-124493616D01*
X139180309Y-124517855D01*
X139160568Y-124526842D01*
X139152087Y-124523026D01*
X139121429Y-124499656D01*
X139074168Y-124458510D01*
X139014416Y-124403635D01*
X138946288Y-124339077D01*
X138873896Y-124268885D01*
X138801356Y-124197106D01*
X138732780Y-124127786D01*
X138672282Y-124064973D01*
X138623976Y-124012714D01*
X138591976Y-123975057D01*
X138580395Y-123956048D01*
X138581063Y-123952431D01*
X138594847Y-123922993D01*
X138624292Y-123872062D01*
X138666553Y-123804238D01*
X138718785Y-123724123D01*
X138778142Y-123636315D01*
X138794789Y-123612096D01*
X138853244Y-123526868D01*
X138904733Y-123451521D01*
X138946256Y-123390463D01*
X138974811Y-123348104D01*
X138987398Y-123328852D01*
X138987707Y-123328027D01*
X138983993Y-123304473D01*
X138969807Y-123256759D01*
X138947451Y-123190879D01*
X138919227Y-123112830D01*
X138887435Y-123028607D01*
X138854378Y-122944205D01*
X138822356Y-122865621D01*
X138793671Y-122798850D01*
X138770623Y-122749886D01*
X138755515Y-122724727D01*
X138754002Y-122723165D01*
X138743185Y-122715263D01*
X138724915Y-122707294D01*
X138695556Y-122698441D01*
X138651470Y-122687887D01*
X138589018Y-122674815D01*
X138504564Y-122658408D01*
X138394469Y-122637848D01*
X138255095Y-122612319D01*
X138226187Y-122606946D01*
X138143377Y-122590337D01*
X138073718Y-122574600D01*
X138023812Y-122561298D01*
X138000259Y-122551993D01*
X137996319Y-122544230D01*
X137989750Y-122506942D01*
X137984544Y-122445125D01*
X137980706Y-122364572D01*
X137978239Y-122271075D01*
X137977147Y-122170426D01*
X137977435Y-122068417D01*
X137979107Y-121970839D01*
X137982165Y-121883485D01*
X137986615Y-121812147D01*
X137992460Y-121762617D01*
X137999704Y-121740686D01*
X138007101Y-121737446D01*
X138043896Y-121727233D01*
X138106091Y-121712789D01*
X138188723Y-121695189D01*
X138286828Y-121675510D01*
X138395444Y-121654830D01*
X138454750Y-121643781D01*
X138556398Y-121624621D01*
X138643890Y-121607844D01*
X138712549Y-121594361D01*
X138757693Y-121585084D01*
X138774644Y-121580926D01*
X138775281Y-121580069D01*
X138786077Y-121558293D01*
X138806657Y-121512671D01*
X138834449Y-121449258D01*
X138866882Y-121374107D01*
X138901382Y-121293270D01*
X138935378Y-121212799D01*
X138966297Y-121138749D01*
X138991566Y-121077172D01*
X139008615Y-121034121D01*
X139014869Y-121015650D01*
X139012110Y-121009150D01*
X138993750Y-120978222D01*
X138960446Y-120926163D01*
X138914874Y-120857059D01*
X138859711Y-120774993D01*
X138797632Y-120684052D01*
X138763573Y-120634248D01*
X138704797Y-120546931D01*
X138654403Y-120470298D01*
X138615080Y-120408531D01*
X138589514Y-120365806D01*
X138580395Y-120346305D01*
X138586732Y-120335727D01*
X138613237Y-120304119D01*
X138656720Y-120256283D01*
X138713189Y-120196273D01*
X138778653Y-120128142D01*
X138849121Y-120055945D01*
X138920601Y-119983733D01*
X138989100Y-119915562D01*
X139050629Y-119855483D01*
X139101194Y-119807551D01*
X139136805Y-119775820D01*
X139153470Y-119764342D01*
X139162720Y-119768805D01*
X139196689Y-119789502D01*
X139251505Y-119824727D01*
X139323218Y-119871896D01*
X139407878Y-119928431D01*
X139501535Y-119991748D01*
X139835959Y-120219154D01*
X140393487Y-119989322D01*
X140469036Y-119588576D01*
X140544585Y-119187829D01*
X141378706Y-119187829D01*
X141454254Y-119588576D01*
G36*
X142423816Y-127200526D02*
G01*
X142256711Y-127200526D01*
X142256711Y-126942601D01*
X142256526Y-126882605D01*
X142254626Y-126783237D01*
X142249816Y-126709673D01*
X142241052Y-126656827D01*
X142227290Y-126619614D01*
X142207487Y-126592949D01*
X142180600Y-126571746D01*
X142151248Y-126555947D01*
X142116491Y-126551467D01*
X142067058Y-126561429D01*
X142051173Y-126565576D01*
X142011520Y-126571818D01*
X141983167Y-126562875D01*
X141950306Y-126535195D01*
X141944070Y-126529175D01*
X141909594Y-126491937D01*
X141887361Y-126461660D01*
X141884311Y-126454366D01*
X141890354Y-126427432D01*
X141920998Y-126405898D01*
X141969363Y-126390786D01*
X142028566Y-126383114D01*
X142091728Y-126383904D01*
X142151967Y-126394175D01*
X142202402Y-126414948D01*
X142218388Y-126424648D01*
X142245302Y-126438845D01*
X142255264Y-126435594D01*
X142256711Y-126414886D01*
X142257050Y-126407451D01*
X142265112Y-126390982D01*
X142290119Y-126383486D01*
X142340264Y-126381710D01*
X142423816Y-126381710D01*
X142423816Y-127200526D01*
G37*
X142423816Y-127200526D02*
X142256711Y-127200526D01*
X142256711Y-126942601D01*
X142256526Y-126882605D01*
X142254626Y-126783237D01*
X142249816Y-126709673D01*
X142241052Y-126656827D01*
X142227290Y-126619614D01*
X142207487Y-126592949D01*
X142180600Y-126571746D01*
X142151248Y-126555947D01*
X142116491Y-126551467D01*
X142067058Y-126561429D01*
X142051173Y-126565576D01*
X142011520Y-126571818D01*
X141983167Y-126562875D01*
X141950306Y-126535195D01*
X141944070Y-126529175D01*
X141909594Y-126491937D01*
X141887361Y-126461660D01*
X141884311Y-126454366D01*
X141890354Y-126427432D01*
X141920998Y-126405898D01*
X141969363Y-126390786D01*
X142028566Y-126383114D01*
X142091728Y-126383904D01*
X142151967Y-126394175D01*
X142202402Y-126414948D01*
X142218388Y-126424648D01*
X142245302Y-126438845D01*
X142255264Y-126435594D01*
X142256711Y-126414886D01*
X142257050Y-126407451D01*
X142265112Y-126390982D01*
X142290119Y-126383486D01*
X142340264Y-126381710D01*
X142423816Y-126381710D01*
X142423816Y-127200526D01*
G36*
X143244389Y-125546138D02*
G01*
X143242928Y-125597216D01*
X143226454Y-125708843D01*
X143190151Y-125796856D01*
X143132120Y-125864884D01*
X143050461Y-125916551D01*
X142971246Y-125940670D01*
X142871871Y-125945285D01*
X142771607Y-125927537D01*
X142682172Y-125888327D01*
X142649030Y-125866515D01*
X142612515Y-125838556D01*
X142595853Y-125820158D01*
X142596798Y-125812567D01*
X142615448Y-125786703D01*
X142650498Y-125755367D01*
X142711241Y-125709036D01*
X142782418Y-125744584D01*
X142801665Y-125753383D01*
X142858323Y-125772506D01*
X142905811Y-125780131D01*
X142940828Y-125773848D01*
X142995778Y-125743591D01*
X143041967Y-125696620D01*
X143068387Y-125642270D01*
X143079150Y-125596316D01*
X142574211Y-125596316D01*
X142574304Y-125508585D01*
X142575069Y-125480781D01*
X142580649Y-125421119D01*
X142758027Y-125421119D01*
X142758352Y-125424537D01*
X142767540Y-125435181D01*
X142793504Y-125441720D01*
X142841779Y-125445014D01*
X142917903Y-125445921D01*
X142942923Y-125445910D01*
X143007902Y-125445310D01*
X143046964Y-125442715D01*
X143065903Y-125436662D01*
X143070511Y-125425686D01*
X143066581Y-125408322D01*
X143065981Y-125406353D01*
X143032127Y-125345930D01*
X142978757Y-125304329D01*
X142915115Y-125288842D01*
X142891591Y-125290080D01*
X142847928Y-125304896D01*
X142806041Y-125342579D01*
X142794758Y-125355903D01*
X142768513Y-125393956D01*
X142758027Y-125421119D01*
X142580649Y-125421119D01*
X142581366Y-125413449D01*
X142591926Y-125357734D01*
X142603501Y-125326543D01*
X142644195Y-125258700D01*
X142698695Y-125197086D01*
X142756330Y-125154866D01*
X142772982Y-125147027D01*
X142869945Y-125121021D01*
X142968960Y-125123762D01*
X143062052Y-125154092D01*
X143141244Y-125210848D01*
X143184078Y-125263190D01*
X143219101Y-125336928D01*
X143237825Y-125425686D01*
X143238543Y-125429091D01*
X143244389Y-125546138D01*
G37*
X143244389Y-125546138D02*
X143242928Y-125597216D01*
X143226454Y-125708843D01*
X143190151Y-125796856D01*
X143132120Y-125864884D01*
X143050461Y-125916551D01*
X142971246Y-125940670D01*
X142871871Y-125945285D01*
X142771607Y-125927537D01*
X142682172Y-125888327D01*
X142649030Y-125866515D01*
X142612515Y-125838556D01*
X142595853Y-125820158D01*
X142596798Y-125812567D01*
X142615448Y-125786703D01*
X142650498Y-125755367D01*
X142711241Y-125709036D01*
X142782418Y-125744584D01*
X142801665Y-125753383D01*
X142858323Y-125772506D01*
X142905811Y-125780131D01*
X142940828Y-125773848D01*
X142995778Y-125743591D01*
X143041967Y-125696620D01*
X143068387Y-125642270D01*
X143079150Y-125596316D01*
X142574211Y-125596316D01*
X142574304Y-125508585D01*
X142575069Y-125480781D01*
X142580649Y-125421119D01*
X142758027Y-125421119D01*
X142758352Y-125424537D01*
X142767540Y-125435181D01*
X142793504Y-125441720D01*
X142841779Y-125445014D01*
X142917903Y-125445921D01*
X142942923Y-125445910D01*
X143007902Y-125445310D01*
X143046964Y-125442715D01*
X143065903Y-125436662D01*
X143070511Y-125425686D01*
X143066581Y-125408322D01*
X143065981Y-125406353D01*
X143032127Y-125345930D01*
X142978757Y-125304329D01*
X142915115Y-125288842D01*
X142891591Y-125290080D01*
X142847928Y-125304896D01*
X142806041Y-125342579D01*
X142794758Y-125355903D01*
X142768513Y-125393956D01*
X142758027Y-125421119D01*
X142580649Y-125421119D01*
X142581366Y-125413449D01*
X142591926Y-125357734D01*
X142603501Y-125326543D01*
X142644195Y-125258700D01*
X142698695Y-125197086D01*
X142756330Y-125154866D01*
X142772982Y-125147027D01*
X142869945Y-125121021D01*
X142968960Y-125123762D01*
X143062052Y-125154092D01*
X143141244Y-125210848D01*
X143184078Y-125263190D01*
X143219101Y-125336928D01*
X143237825Y-125425686D01*
X143238543Y-125429091D01*
X143244389Y-125546138D01*
G36*
X138223610Y-125132247D02*
G01*
X138314791Y-125167771D01*
X138391907Y-125226413D01*
X138448864Y-125306956D01*
X138452710Y-125315169D01*
X138477130Y-125395267D01*
X138489330Y-125490948D01*
X138489234Y-125590569D01*
X138476764Y-125682488D01*
X138451843Y-125755066D01*
X138421073Y-125805650D01*
X138353344Y-125877310D01*
X138268657Y-125922862D01*
X138196202Y-125941282D01*
X138085875Y-125943293D01*
X137980302Y-125915513D01*
X137886682Y-125859142D01*
X137826088Y-125809196D01*
X137880664Y-125752887D01*
X137915144Y-125719530D01*
X137946332Y-125700958D01*
X137975250Y-125705047D01*
X138012237Y-125730000D01*
X138026985Y-125739768D01*
X138089291Y-125759762D01*
X138160903Y-125759749D01*
X138227950Y-125739143D01*
X138253196Y-125722595D01*
X138290228Y-125673730D01*
X138308792Y-125601958D01*
X138309987Y-125504136D01*
X138309983Y-125504081D01*
X138296171Y-125416562D01*
X138265744Y-125355881D01*
X138215676Y-125318345D01*
X138142941Y-125300261D01*
X138097137Y-125297829D01*
X138057116Y-125307789D01*
X138016070Y-125336642D01*
X137962954Y-125381336D01*
X137895688Y-125327279D01*
X137871113Y-125306570D01*
X137840416Y-125276899D01*
X137828422Y-125259413D01*
X137832669Y-125251533D01*
X137857135Y-125227340D01*
X137896110Y-125196571D01*
X137926605Y-125176549D01*
X138023424Y-125135419D01*
X138124457Y-125121057D01*
X138223610Y-125132247D01*
G37*
X138223610Y-125132247D02*
X138314791Y-125167771D01*
X138391907Y-125226413D01*
X138448864Y-125306956D01*
X138452710Y-125315169D01*
X138477130Y-125395267D01*
X138489330Y-125490948D01*
X138489234Y-125590569D01*
X138476764Y-125682488D01*
X138451843Y-125755066D01*
X138421073Y-125805650D01*
X138353344Y-125877310D01*
X138268657Y-125922862D01*
X138196202Y-125941282D01*
X138085875Y-125943293D01*
X137980302Y-125915513D01*
X137886682Y-125859142D01*
X137826088Y-125809196D01*
X137880664Y-125752887D01*
X137915144Y-125719530D01*
X137946332Y-125700958D01*
X137975250Y-125705047D01*
X138012237Y-125730000D01*
X138026985Y-125739768D01*
X138089291Y-125759762D01*
X138160903Y-125759749D01*
X138227950Y-125739143D01*
X138253196Y-125722595D01*
X138290228Y-125673730D01*
X138308792Y-125601958D01*
X138309987Y-125504136D01*
X138309983Y-125504081D01*
X138296171Y-125416562D01*
X138265744Y-125355881D01*
X138215676Y-125318345D01*
X138142941Y-125300261D01*
X138097137Y-125297829D01*
X138057116Y-125307789D01*
X138016070Y-125336642D01*
X137962954Y-125381336D01*
X137895688Y-125327279D01*
X137871113Y-125306570D01*
X137840416Y-125276899D01*
X137828422Y-125259413D01*
X137832669Y-125251533D01*
X137857135Y-125227340D01*
X137896110Y-125196571D01*
X137926605Y-125176549D01*
X138023424Y-125135419D01*
X138124457Y-125121057D01*
X138223610Y-125132247D01*
G36*
X138937063Y-126392716D02*
G01*
X138987550Y-126416344D01*
X139031579Y-126450978D01*
X139031579Y-126416344D01*
X139032676Y-126403194D01*
X139042885Y-126389252D01*
X139070493Y-126383094D01*
X139123487Y-126381710D01*
X139215395Y-126381710D01*
X139215395Y-127200526D01*
X139031579Y-127200526D01*
X139031579Y-126933944D01*
X139031557Y-126918640D01*
X139029989Y-126811060D01*
X139026141Y-126723427D01*
X139020287Y-126660224D01*
X139012701Y-126625929D01*
X139005736Y-126612982D01*
X138962860Y-126572378D01*
X138904458Y-126554404D01*
X138840686Y-126562789D01*
X138825044Y-126568472D01*
X138791721Y-126578517D01*
X138768947Y-126575398D01*
X138746031Y-126554979D01*
X138712283Y-126513127D01*
X138657547Y-126444017D01*
X138696020Y-126412864D01*
X138732592Y-126394112D01*
X138796833Y-126381447D01*
X138869240Y-126381033D01*
X138937063Y-126392716D01*
G37*
X138937063Y-126392716D02*
X138987550Y-126416344D01*
X139031579Y-126450978D01*
X139031579Y-126416344D01*
X139032676Y-126403194D01*
X139042885Y-126389252D01*
X139070493Y-126383094D01*
X139123487Y-126381710D01*
X139215395Y-126381710D01*
X139215395Y-127200526D01*
X139031579Y-127200526D01*
X139031579Y-126933944D01*
X139031557Y-126918640D01*
X139029989Y-126811060D01*
X139026141Y-126723427D01*
X139020287Y-126660224D01*
X139012701Y-126625929D01*
X139005736Y-126612982D01*
X138962860Y-126572378D01*
X138904458Y-126554404D01*
X138840686Y-126562789D01*
X138825044Y-126568472D01*
X138791721Y-126578517D01*
X138768947Y-126575398D01*
X138746031Y-126554979D01*
X138712283Y-126513127D01*
X138657547Y-126444017D01*
X138696020Y-126412864D01*
X138732592Y-126394112D01*
X138796833Y-126381447D01*
X138869240Y-126381033D01*
X138937063Y-126392716D01*
G36*
X139349079Y-125388533D02*
G01*
X139350489Y-125505550D01*
X139356007Y-125600058D01*
X139367185Y-125668751D01*
X139385572Y-125715478D01*
X139412717Y-125744089D01*
X139450168Y-125758432D01*
X139499474Y-125762358D01*
X139546552Y-125758854D01*
X139584574Y-125745139D01*
X139612210Y-125717355D01*
X139631009Y-125671651D01*
X139642519Y-125604179D01*
X139648290Y-125511089D01*
X139649869Y-125388533D01*
X139649869Y-125128421D01*
X139816974Y-125128421D01*
X139816974Y-125442004D01*
X139816688Y-125525705D01*
X139814459Y-125633943D01*
X139808869Y-125716489D01*
X139798561Y-125778068D01*
X139782183Y-125823405D01*
X139758379Y-125857226D01*
X139725796Y-125884257D01*
X139683079Y-125909221D01*
X139593377Y-125940825D01*
X139499761Y-125942887D01*
X139411496Y-125913783D01*
X139372986Y-125894917D01*
X139353880Y-125892097D01*
X139349079Y-125905428D01*
X139341109Y-125920396D01*
X139312578Y-125928281D01*
X139257172Y-125930526D01*
X139165264Y-125930526D01*
X139165264Y-125128421D01*
X139349079Y-125128421D01*
X139349079Y-125388533D01*
G37*
X139349079Y-125388533D02*
X139350489Y-125505550D01*
X139356007Y-125600058D01*
X139367185Y-125668751D01*
X139385572Y-125715478D01*
X139412717Y-125744089D01*
X139450168Y-125758432D01*
X139499474Y-125762358D01*
X139546552Y-125758854D01*
X139584574Y-125745139D01*
X139612210Y-125717355D01*
X139631009Y-125671651D01*
X139642519Y-125604179D01*
X139648290Y-125511089D01*
X139649869Y-125388533D01*
X139649869Y-125128421D01*
X139816974Y-125128421D01*
X139816974Y-125442004D01*
X139816688Y-125525705D01*
X139814459Y-125633943D01*
X139808869Y-125716489D01*
X139798561Y-125778068D01*
X139782183Y-125823405D01*
X139758379Y-125857226D01*
X139725796Y-125884257D01*
X139683079Y-125909221D01*
X139593377Y-125940825D01*
X139499761Y-125942887D01*
X139411496Y-125913783D01*
X139372986Y-125894917D01*
X139353880Y-125892097D01*
X139349079Y-125905428D01*
X139341109Y-125920396D01*
X139312578Y-125928281D01*
X139257172Y-125930526D01*
X139165264Y-125930526D01*
X139165264Y-125128421D01*
X139349079Y-125128421D01*
X139349079Y-125388533D01*
G36*
X140610320Y-125640001D02*
G01*
X140589714Y-125740965D01*
X140552857Y-125818007D01*
X140496761Y-125876201D01*
X140418434Y-125920617D01*
X140388023Y-125931188D01*
X140309263Y-125944377D01*
X140226384Y-125944018D01*
X140156450Y-125929531D01*
X140155076Y-125929005D01*
X140098718Y-125895852D01*
X140041780Y-125844530D01*
X139994535Y-125785840D01*
X139967255Y-125730584D01*
X139959169Y-125690193D01*
X139952246Y-125614569D01*
X139951085Y-125547161D01*
X140119442Y-125547161D01*
X140129507Y-125628014D01*
X140153151Y-125694451D01*
X140188973Y-125737862D01*
X140202551Y-125745316D01*
X140254327Y-125758864D01*
X140314213Y-125761651D01*
X140364596Y-125752237D01*
X140384260Y-125738736D01*
X140411862Y-125691523D01*
X140429230Y-125617630D01*
X140435264Y-125520663D01*
X140435167Y-125492750D01*
X140433071Y-125436190D01*
X140426100Y-125399294D01*
X140411475Y-125372031D01*
X140386418Y-125344372D01*
X140338736Y-125310849D01*
X140276663Y-125297143D01*
X140216689Y-125310197D01*
X140166891Y-125347951D01*
X140135345Y-125408349D01*
X140124358Y-125460502D01*
X140119442Y-125547161D01*
X139951085Y-125547161D01*
X139950763Y-125528442D01*
X139954478Y-125442719D01*
X139963145Y-125368305D01*
X139976522Y-125316106D01*
X140007679Y-125257006D01*
X140073808Y-125184340D01*
X140158331Y-125138310D01*
X140258734Y-125120090D01*
X140372505Y-125130858D01*
X140391435Y-125135445D01*
X140479595Y-125175000D01*
X140546028Y-125239941D01*
X140590735Y-125330271D01*
X140613718Y-125445994D01*
X140614387Y-125520663D01*
X140614982Y-125587116D01*
X140610320Y-125640001D01*
G37*
X140610320Y-125640001D02*
X140589714Y-125740965D01*
X140552857Y-125818007D01*
X140496761Y-125876201D01*
X140418434Y-125920617D01*
X140388023Y-125931188D01*
X140309263Y-125944377D01*
X140226384Y-125944018D01*
X140156450Y-125929531D01*
X140155076Y-125929005D01*
X140098718Y-125895852D01*
X140041780Y-125844530D01*
X139994535Y-125785840D01*
X139967255Y-125730584D01*
X139959169Y-125690193D01*
X139952246Y-125614569D01*
X139951085Y-125547161D01*
X140119442Y-125547161D01*
X140129507Y-125628014D01*
X140153151Y-125694451D01*
X140188973Y-125737862D01*
X140202551Y-125745316D01*
X140254327Y-125758864D01*
X140314213Y-125761651D01*
X140364596Y-125752237D01*
X140384260Y-125738736D01*
X140411862Y-125691523D01*
X140429230Y-125617630D01*
X140435264Y-125520663D01*
X140435167Y-125492750D01*
X140433071Y-125436190D01*
X140426100Y-125399294D01*
X140411475Y-125372031D01*
X140386418Y-125344372D01*
X140338736Y-125310849D01*
X140276663Y-125297143D01*
X140216689Y-125310197D01*
X140166891Y-125347951D01*
X140135345Y-125408349D01*
X140124358Y-125460502D01*
X140119442Y-125547161D01*
X139951085Y-125547161D01*
X139950763Y-125528442D01*
X139954478Y-125442719D01*
X139963145Y-125368305D01*
X139976522Y-125316106D01*
X140007679Y-125257006D01*
X140073808Y-125184340D01*
X140158331Y-125138310D01*
X140258734Y-125120090D01*
X140372505Y-125130858D01*
X140391435Y-125135445D01*
X140479595Y-125175000D01*
X140546028Y-125239941D01*
X140590735Y-125330271D01*
X140613718Y-125445994D01*
X140614387Y-125520663D01*
X140614982Y-125587116D01*
X140610320Y-125640001D01*
G36*
X140005509Y-127056464D02*
G01*
X139961698Y-127121365D01*
X139895241Y-127168051D01*
X139888719Y-127170889D01*
X139816005Y-127191330D01*
X139734071Y-127199299D01*
X139656172Y-127194427D01*
X139595560Y-127176348D01*
X139571348Y-127164554D01*
X139553580Y-127161741D01*
X139549606Y-127176451D01*
X139542078Y-127190055D01*
X139512953Y-127198156D01*
X139456420Y-127200526D01*
X139363235Y-127200526D01*
X139368194Y-126908092D01*
X139549606Y-126908092D01*
X139555900Y-126951806D01*
X139583027Y-127000000D01*
X139593040Y-127008858D01*
X139634081Y-127027494D01*
X139695823Y-127032290D01*
X139732871Y-127030417D01*
X139802195Y-127016309D01*
X139845163Y-126990024D01*
X139859655Y-126953344D01*
X139843551Y-126908052D01*
X139834154Y-126896200D01*
X139792187Y-126869613D01*
X139725766Y-126854432D01*
X139631070Y-126849605D01*
X139549606Y-126849605D01*
X139549606Y-126908092D01*
X139368194Y-126908092D01*
X139368690Y-126878849D01*
X139370172Y-126804462D01*
X139374076Y-126693099D01*
X139380657Y-126607946D01*
X139391214Y-126544360D01*
X139407048Y-126497699D01*
X139429459Y-126463321D01*
X139459747Y-126436583D01*
X139499213Y-126412844D01*
X139519573Y-126403780D01*
X139590008Y-126386673D01*
X139674959Y-126379600D01*
X139762788Y-126382432D01*
X139841857Y-126395041D01*
X139900527Y-126417297D01*
X139920935Y-126430219D01*
X139967921Y-126468519D01*
X139983824Y-126500589D01*
X139979962Y-126506786D01*
X139955894Y-126528432D01*
X139917039Y-126557308D01*
X139897174Y-126570824D01*
X139863346Y-126589974D01*
X139841363Y-126591803D01*
X139820953Y-126578585D01*
X139770086Y-126551816D01*
X139701640Y-126540808D01*
X139631694Y-126549236D01*
X139630370Y-126549618D01*
X139581036Y-126571052D01*
X139556616Y-126604603D01*
X139549862Y-126660091D01*
X139549606Y-126712879D01*
X139724010Y-126718577D01*
X139751796Y-126719515D01*
X139821848Y-126722775D01*
X139868809Y-126727897D01*
X139900552Y-126736798D01*
X139924948Y-126751397D01*
X139949869Y-126773612D01*
X139991015Y-126824995D01*
X140021171Y-126901026D01*
X140024128Y-126953344D01*
X140025668Y-126980600D01*
X140005509Y-127056464D01*
G37*
X140005509Y-127056464D02*
X139961698Y-127121365D01*
X139895241Y-127168051D01*
X139888719Y-127170889D01*
X139816005Y-127191330D01*
X139734071Y-127199299D01*
X139656172Y-127194427D01*
X139595560Y-127176348D01*
X139571348Y-127164554D01*
X139553580Y-127161741D01*
X139549606Y-127176451D01*
X139542078Y-127190055D01*
X139512953Y-127198156D01*
X139456420Y-127200526D01*
X139363235Y-127200526D01*
X139368194Y-126908092D01*
X139549606Y-126908092D01*
X139555900Y-126951806D01*
X139583027Y-127000000D01*
X139593040Y-127008858D01*
X139634081Y-127027494D01*
X139695823Y-127032290D01*
X139732871Y-127030417D01*
X139802195Y-127016309D01*
X139845163Y-126990024D01*
X139859655Y-126953344D01*
X139843551Y-126908052D01*
X139834154Y-126896200D01*
X139792187Y-126869613D01*
X139725766Y-126854432D01*
X139631070Y-126849605D01*
X139549606Y-126849605D01*
X139549606Y-126908092D01*
X139368194Y-126908092D01*
X139368690Y-126878849D01*
X139370172Y-126804462D01*
X139374076Y-126693099D01*
X139380657Y-126607946D01*
X139391214Y-126544360D01*
X139407048Y-126497699D01*
X139429459Y-126463321D01*
X139459747Y-126436583D01*
X139499213Y-126412844D01*
X139519573Y-126403780D01*
X139590008Y-126386673D01*
X139674959Y-126379600D01*
X139762788Y-126382432D01*
X139841857Y-126395041D01*
X139900527Y-126417297D01*
X139920935Y-126430219D01*
X139967921Y-126468519D01*
X139983824Y-126500589D01*
X139979962Y-126506786D01*
X139955894Y-126528432D01*
X139917039Y-126557308D01*
X139897174Y-126570824D01*
X139863346Y-126589974D01*
X139841363Y-126591803D01*
X139820953Y-126578585D01*
X139770086Y-126551816D01*
X139701640Y-126540808D01*
X139631694Y-126549236D01*
X139630370Y-126549618D01*
X139581036Y-126571052D01*
X139556616Y-126604603D01*
X139549862Y-126660091D01*
X139549606Y-126712879D01*
X139724010Y-126718577D01*
X139751796Y-126719515D01*
X139821848Y-126722775D01*
X139868809Y-126727897D01*
X139900552Y-126736798D01*
X139924948Y-126751397D01*
X139949869Y-126773612D01*
X139991015Y-126824995D01*
X140021171Y-126901026D01*
X140024128Y-126953344D01*
X140025668Y-126980600D01*
X140005509Y-127056464D01*
G36*
X137804216Y-125603529D02*
G01*
X137803936Y-125606044D01*
X137779909Y-125723405D01*
X137736499Y-125814652D01*
X137672353Y-125881791D01*
X137586119Y-125926824D01*
X137570289Y-125931974D01*
X137472173Y-125947151D01*
X137370698Y-125938688D01*
X137276359Y-125908445D01*
X137199649Y-125858285D01*
X137142190Y-125805197D01*
X137203266Y-125756904D01*
X137264341Y-125708611D01*
X137337947Y-125744371D01*
X137423115Y-125773347D01*
X137498301Y-125774215D01*
X137559816Y-125747592D01*
X137604083Y-125694155D01*
X137619952Y-125662136D01*
X137628811Y-125634771D01*
X137623685Y-125616285D01*
X137600687Y-125604938D01*
X137555931Y-125598987D01*
X137485529Y-125596693D01*
X137385593Y-125596316D01*
X137143290Y-125596316D01*
X137143290Y-125480430D01*
X137145100Y-125429555D01*
X137315706Y-125429555D01*
X137323900Y-125438912D01*
X137348160Y-125443783D01*
X137394272Y-125445630D01*
X137468019Y-125445921D01*
X137507566Y-125445457D01*
X137569971Y-125442388D01*
X137612303Y-125437013D01*
X137627895Y-125429997D01*
X137623906Y-125404108D01*
X137595788Y-125354570D01*
X137548932Y-125313875D01*
X137493074Y-125289295D01*
X137437951Y-125288105D01*
X137396458Y-125307815D01*
X137349440Y-125352668D01*
X137319545Y-125408322D01*
X137317794Y-125414245D01*
X137315706Y-125429555D01*
X137145100Y-125429555D01*
X137145471Y-125419138D01*
X137151876Y-125358496D01*
X137161025Y-125317502D01*
X137167695Y-125301852D01*
X137216243Y-125232149D01*
X137286391Y-125174013D01*
X137368426Y-125135949D01*
X137411216Y-125125554D01*
X137513170Y-125120822D01*
X137604015Y-125144893D01*
X137681253Y-125195088D01*
X137742389Y-125268727D01*
X137784926Y-125363133D01*
X137797671Y-125429997D01*
X137806367Y-125475627D01*
X137804216Y-125603529D01*
G37*
X137804216Y-125603529D02*
X137803936Y-125606044D01*
X137779909Y-125723405D01*
X137736499Y-125814652D01*
X137672353Y-125881791D01*
X137586119Y-125926824D01*
X137570289Y-125931974D01*
X137472173Y-125947151D01*
X137370698Y-125938688D01*
X137276359Y-125908445D01*
X137199649Y-125858285D01*
X137142190Y-125805197D01*
X137203266Y-125756904D01*
X137264341Y-125708611D01*
X137337947Y-125744371D01*
X137423115Y-125773347D01*
X137498301Y-125774215D01*
X137559816Y-125747592D01*
X137604083Y-125694155D01*
X137619952Y-125662136D01*
X137628811Y-125634771D01*
X137623685Y-125616285D01*
X137600687Y-125604938D01*
X137555931Y-125598987D01*
X137485529Y-125596693D01*
X137385593Y-125596316D01*
X137143290Y-125596316D01*
X137143290Y-125480430D01*
X137145100Y-125429555D01*
X137315706Y-125429555D01*
X137323900Y-125438912D01*
X137348160Y-125443783D01*
X137394272Y-125445630D01*
X137468019Y-125445921D01*
X137507566Y-125445457D01*
X137569971Y-125442388D01*
X137612303Y-125437013D01*
X137627895Y-125429997D01*
X137623906Y-125404108D01*
X137595788Y-125354570D01*
X137548932Y-125313875D01*
X137493074Y-125289295D01*
X137437951Y-125288105D01*
X137396458Y-125307815D01*
X137349440Y-125352668D01*
X137319545Y-125408322D01*
X137317794Y-125414245D01*
X137315706Y-125429555D01*
X137145100Y-125429555D01*
X137145471Y-125419138D01*
X137151876Y-125358496D01*
X137161025Y-125317502D01*
X137167695Y-125301852D01*
X137216243Y-125232149D01*
X137286391Y-125174013D01*
X137368426Y-125135949D01*
X137411216Y-125125554D01*
X137513170Y-125120822D01*
X137604015Y-125144893D01*
X137681253Y-125195088D01*
X137742389Y-125268727D01*
X137784926Y-125363133D01*
X137797671Y-125429997D01*
X137806367Y-125475627D01*
X137804216Y-125603529D01*
%TD*%
M02*
