%TF.GenerationSoftware,KiCad,Pcbnew,6.0.4+dfsg-1+b1*%
%TF.CreationDate,2022-05-07T15:52:58-05:00*%
%TF.ProjectId,arduino-midi-argb-dmx,61726475-696e-46f2-9d6d-6964692d6172,rev?*%
%TF.SameCoordinates,Original*%
%TF.FileFunction,Other,User*%
%FSLAX46Y46*%
G04 Gerber Fmt 4.6, Leading zero omitted, Abs format (unit mm)*
G04 Created by KiCad (PCBNEW 6.0.4+dfsg-1+b1) date 2022-05-07 15:52:58*
%MOMM*%
%LPD*%
G01*
G04 APERTURE LIST*
%ADD10C,0.050000*%
G04 APERTURE END LIST*
D10*
%TO.C,Q4*%
X162390000Y-109884000D02*
X162390000Y-114794000D01*
X172890000Y-109884000D02*
X162390000Y-109884000D01*
X162390000Y-114794000D02*
X172890000Y-114794000D01*
X172890000Y-114794000D02*
X172890000Y-109884000D01*
%TO.C,Q3*%
X162390000Y-103534000D02*
X162390000Y-108444000D01*
X172890000Y-103534000D02*
X162390000Y-103534000D01*
X162390000Y-108444000D02*
X172890000Y-108444000D01*
X172890000Y-108444000D02*
X172890000Y-103534000D01*
%TO.C,Q2*%
X162390000Y-97184000D02*
X162390000Y-102094000D01*
X172890000Y-97184000D02*
X162390000Y-97184000D01*
X162390000Y-102094000D02*
X172890000Y-102094000D01*
X172890000Y-102094000D02*
X172890000Y-97184000D01*
%TO.C,Q1*%
X162390000Y-90834000D02*
X162390000Y-95744000D01*
X172890000Y-90834000D02*
X162390000Y-90834000D01*
X162390000Y-95744000D02*
X172890000Y-95744000D01*
X172890000Y-95744000D02*
X172890000Y-90834000D01*
%TO.C,JP1*%
X177060000Y-113770000D02*
X173460000Y-113770000D01*
X177060000Y-119920000D02*
X177060000Y-113770000D01*
X173460000Y-113770000D02*
X173460000Y-119920000D01*
X173460000Y-119920000D02*
X177060000Y-119920000D01*
%TO.C,J5*%
X187880000Y-115805000D02*
X187880000Y-117805000D01*
X187880000Y-117805000D02*
X196880000Y-117805000D01*
X183880000Y-115805000D02*
X187880000Y-115805000D01*
X180880000Y-120555000D02*
X181880000Y-120555000D01*
X180880000Y-124555000D02*
X180880000Y-120555000D01*
X181880000Y-120555000D02*
X181880000Y-117805000D01*
X196880000Y-117805000D02*
X196880000Y-127305000D01*
X183880000Y-117805000D02*
X183880000Y-115805000D01*
X181880000Y-117805000D02*
X183880000Y-117805000D01*
X181880000Y-124555000D02*
X180880000Y-124555000D01*
X181880000Y-127055000D02*
X181880000Y-127305000D01*
X181880000Y-127055000D02*
X181880000Y-124555000D01*
X181880000Y-127305000D02*
X196880000Y-127305000D01*
%TO.C,R7*%
X143740000Y-82135000D02*
X153460000Y-82135000D01*
X143740000Y-79135000D02*
X143740000Y-82135000D01*
X153460000Y-79135000D02*
X143740000Y-79135000D01*
X153460000Y-82135000D02*
X153460000Y-79135000D01*
%TO.C,R6*%
X143740000Y-77690000D02*
X153460000Y-77690000D01*
X143740000Y-74690000D02*
X143740000Y-77690000D01*
X153460000Y-74690000D02*
X143740000Y-74690000D01*
X153460000Y-77690000D02*
X153460000Y-74690000D01*
%TO.C,J2*%
X197020000Y-61930000D02*
X173820000Y-61930000D01*
X197020000Y-61930000D02*
X197020000Y-87930000D01*
X197020000Y-87930000D02*
X173820000Y-87930000D01*
X173820000Y-61930000D02*
X173820000Y-87930000D01*
%TO.C,R1*%
X155990000Y-91015000D02*
X155990000Y-100735000D01*
X158990000Y-100735000D02*
X158990000Y-91015000D01*
X158990000Y-91015000D02*
X155990000Y-91015000D01*
X155990000Y-100735000D02*
X158990000Y-100735000D01*
%TO.C,R2*%
X159165000Y-93047000D02*
X159165000Y-102767000D01*
X159165000Y-102767000D02*
X162165000Y-102767000D01*
X162165000Y-102767000D02*
X162165000Y-93047000D01*
X162165000Y-93047000D02*
X159165000Y-93047000D01*
%TO.C,C1*%
X119630000Y-120870000D02*
X124230000Y-120870000D01*
X124230000Y-120870000D02*
X124230000Y-117870000D01*
X124230000Y-117870000D02*
X119630000Y-117870000D01*
X119630000Y-117870000D02*
X119630000Y-120870000D01*
%TO.C,H3*%
X178075000Y-125085000D02*
G75*
G03*
X178075000Y-125085000I-3450000J0D01*
G01*
%TO.C,H1*%
X125380000Y-64125000D02*
G75*
G03*
X125380000Y-64125000I-3450000J0D01*
G01*
%TO.C,U3*%
X173000000Y-89210000D02*
X173000000Y-78410000D01*
X162300000Y-89210000D02*
X173000000Y-89210000D01*
X173000000Y-78410000D02*
X162300000Y-78410000D01*
X162300000Y-78410000D02*
X162300000Y-89210000D01*
%TO.C,R8*%
X153460000Y-83580000D02*
X143740000Y-83580000D01*
X153460000Y-86580000D02*
X153460000Y-83580000D01*
X143740000Y-83580000D02*
X143740000Y-86580000D01*
X143740000Y-86580000D02*
X153460000Y-86580000D01*
%TO.C,H2*%
X176805000Y-64125000D02*
G75*
G03*
X176805000Y-64125000I-3450000J0D01*
G01*
%TO.C,J3*%
X158240000Y-72840000D02*
X169440000Y-72840000D01*
X169440000Y-60490000D02*
X158240000Y-60490000D01*
X158240000Y-60490000D02*
X158240000Y-72840000D01*
X169440000Y-72840000D02*
X169440000Y-60490000D01*
%TO.C,U2*%
X153950000Y-61900000D02*
X143250000Y-61900000D01*
X143250000Y-61900000D02*
X143250000Y-72700000D01*
X143250000Y-72700000D02*
X153950000Y-72700000D01*
X153950000Y-72700000D02*
X153950000Y-61900000D01*
%TO.C,R4*%
X159165000Y-114705000D02*
X162165000Y-114705000D01*
X162165000Y-104985000D02*
X159165000Y-104985000D01*
X159165000Y-104985000D02*
X159165000Y-114705000D01*
X162165000Y-114705000D02*
X162165000Y-104985000D01*
%TO.C,C4*%
X155420000Y-128430000D02*
X155420000Y-117930000D01*
X126520000Y-128430000D02*
X155420000Y-128430000D01*
X126520000Y-117930000D02*
X126520000Y-128430000D01*
X155420000Y-117930000D02*
X126520000Y-117930000D01*
%TO.C,C2*%
X126530000Y-98585000D02*
X155430000Y-98585000D01*
X126530000Y-88085000D02*
X126530000Y-98585000D01*
X155430000Y-88085000D02*
X126530000Y-88085000D01*
X155430000Y-98585000D02*
X155430000Y-88085000D01*
%TO.C,D1*%
X136950000Y-64105000D02*
X136950000Y-61605000D01*
X127230000Y-64105000D02*
X136950000Y-64105000D01*
X127230000Y-61605000D02*
X127230000Y-64105000D01*
X136950000Y-61605000D02*
X127230000Y-61605000D01*
%TO.C,J6*%
X156965000Y-128720000D02*
X170715000Y-128720000D01*
X156965000Y-116370000D02*
X156965000Y-128720000D01*
X170715000Y-116370000D02*
X156965000Y-116370000D01*
X170715000Y-128720000D02*
X170715000Y-116370000D01*
%TO.C,R9*%
X172510000Y-77690000D02*
X172510000Y-74690000D01*
X162790000Y-74690000D02*
X162790000Y-77690000D01*
X162790000Y-77690000D02*
X172510000Y-77690000D01*
X172510000Y-74690000D02*
X162790000Y-74690000D01*
%TO.C,J4*%
X197020000Y-89870000D02*
X173820000Y-89870000D01*
X173820000Y-89870000D02*
X173820000Y-115870000D01*
X197020000Y-89870000D02*
X197020000Y-115870000D01*
X197020000Y-115870000D02*
X173820000Y-115870000D01*
%TO.C,C3*%
X124680000Y-94625000D02*
G75*
G03*
X124680000Y-94625000I-2750000J0D01*
G01*
%TO.C,H4*%
X125380000Y-125085000D02*
G75*
G03*
X125380000Y-125085000I-3450000J0D01*
G01*
%TO.C,C6*%
X160895000Y-85715000D02*
G75*
G03*
X160895000Y-85715000I-2750000J0D01*
G01*
%TO.C,R3*%
X155990000Y-103080000D02*
X155990000Y-112800000D01*
X158990000Y-103080000D02*
X155990000Y-103080000D01*
X158990000Y-112800000D02*
X158990000Y-103080000D01*
X155990000Y-112800000D02*
X158990000Y-112800000D01*
%TO.C,C5*%
X160919887Y-78095000D02*
G75*
G03*
X160919887Y-78095000I-2750000J0D01*
G01*
%TO.C,R5*%
X127230000Y-65165000D02*
X127230000Y-68165000D01*
X136950000Y-65165000D02*
X127230000Y-65165000D01*
X127230000Y-68165000D02*
X136950000Y-68165000D01*
X136950000Y-68165000D02*
X136950000Y-65165000D01*
%TD*%
M02*
