M48
INCH,TZ
T1C0.0300
T2C0.0315
T3C0.0394
T4C0.0433
T5C0.0472
T6C0.0551
T7C0.0630
T8C0.1260
%
G90
G05
T1
X47004Y-39746
X47004Y-45746
X48004Y-39746
X48004Y-45746
X49004Y-39746
X49004Y-45746
X50004Y-39746
X50004Y-45746
X51004Y-39746
X51004Y-45746
X52004Y-39746
X52004Y-45746
X53004Y-39746
X53004Y-45746
X54004Y-39746
X54004Y-45746
X55004Y-39746
X55004Y-45746
X56004Y-39746
X56004Y-45746
X57004Y-39746
X57004Y-45746
X58004Y-39746
X58004Y-45746
X59004Y-39746
X59004Y-45746
X60004Y-39746
X60004Y-40746
X60004Y-41746
X60004Y-42746
X60004Y-43746
X60004Y-44746
X60004Y-45746
T2
X47512Y-46996
X48004Y-36762
X48004Y-37746
X48496Y-46996
X50504Y-24746
X50504Y-26246
X53504Y-24746
X53504Y-26246
X57004Y-29996
X57004Y-31746
X57004Y-33496
X57008Y-25000
X57008Y-26000
X57008Y-27000
X57008Y-28000
X60004Y-29996
X60004Y-31746
X60004Y-33496
X60008Y-25000
X60008Y-26000
X60008Y-27000
X60008Y-28000
X61770Y-33746
X61779Y-30746
X62004Y-36246
X62004Y-39246
X62004Y-40996
X62004Y-43996
X62754Y-33746
X62764Y-30746
X63254Y-37046
X63254Y-40046
X63254Y-41746
X63254Y-44746
X64504Y-29996
X64508Y-31500
X64508Y-32500
X64508Y-33500
X64508Y-34500
X67504Y-29996
X67508Y-31500
X67508Y-32500
X67508Y-33500
X67508Y-34500
T3
X62502Y-46524
X63008Y-27969
X63502Y-46524
X64008Y-27969
X64502Y-46524
X65008Y-27969
X65502Y-46524
X66008Y-27969
X66502Y-46524
X69000Y-45500
X69000Y-46500
T4
X65000Y-37100
X65000Y-39600
X65000Y-42100
X65000Y-44600
X66000Y-37100
X66000Y-39600
X66000Y-42100
X66000Y-44600
X67000Y-37100
X67000Y-39600
X67000Y-42100
X67000Y-44600
T5
X50382Y-48496
X50386Y-36746
X60618Y-48496
X60622Y-36746
X69555Y-29500
X69555Y-40500
X73559Y-26252
X73559Y-37252
T6
X47748Y-28778
X47748Y-32715
X51685Y-27793
X51685Y-30746
X51685Y-33699
X52669Y-28778
X52669Y-32715
T7
X71057Y-31000
X71057Y-42000
X71307Y-28000
X71307Y-39000
T8
X48004Y-25246
X48004Y-49246
X68250Y-25246
X68750Y-49246
T3
G00X72000Y-48644
M15
G01X72000Y-47856
M16
G05
G00X73575Y-46400
M15
G01X72787Y-46400
M16
G05
G00X74362Y-48644
M15
G01X74362Y-47856
M16
G05
T0
M30
